%TF.GenerationSoftware,KiCad,Pcbnew,7.0.6-0*%
%TF.CreationDate,2024-03-05T22:32:30-08:00*%
%TF.ProjectId,New Groundstation,4e657720-4772-46f7-956e-647374617469,rev?*%
%TF.SameCoordinates,Original*%
%TF.FileFunction,Copper,L3,Inr*%
%TF.FilePolarity,Positive*%
%FSLAX46Y46*%
G04 Gerber Fmt 4.6, Leading zero omitted, Abs format (unit mm)*
G04 Created by KiCad (PCBNEW 7.0.6-0) date 2024-03-05 22:32:30*
%MOMM*%
%LPD*%
G01*
G04 APERTURE LIST*
%TA.AperFunction,ComponentPad*%
%ADD10R,1.524000X1.524000*%
%TD*%
%TA.AperFunction,ComponentPad*%
%ADD11C,1.524000*%
%TD*%
%TA.AperFunction,ComponentPad*%
%ADD12C,3.812400*%
%TD*%
%TA.AperFunction,ComponentPad*%
%ADD13C,6.000000*%
%TD*%
%TA.AperFunction,ComponentPad*%
%ADD14C,2.050000*%
%TD*%
%TA.AperFunction,ComponentPad*%
%ADD15C,2.250000*%
%TD*%
%TA.AperFunction,ComponentPad*%
%ADD16R,1.700000X1.700000*%
%TD*%
%TA.AperFunction,ComponentPad*%
%ADD17O,1.700000X1.700000*%
%TD*%
%TA.AperFunction,ViaPad*%
%ADD18C,0.800000*%
%TD*%
G04 APERTURE END LIST*
D10*
%TO.N,unconnected-(U2-3V3-Pad1)*%
%TO.C,U2*%
X116223937Y-73469886D03*
D11*
%TO.N,+5V*%
X116223937Y-70929886D03*
%TO.N,unconnected-(U2-GPIO2{slash}SDA1-Pad3)*%
X118763937Y-73469886D03*
%TO.N,+5V*%
X118763937Y-70929886D03*
%TO.N,unconnected-(U2-GPIO3{slash}SCL1-Pad5)*%
X121303937Y-73469886D03*
%TO.N,GND*%
X121303937Y-70929886D03*
%TO.N,unconnected-(U2-GPIO4{slash}GPIO_GCKL-Pad7)*%
X123843937Y-73469886D03*
%TO.N,unconnected-(U2-GPIO14{slash}TXD0-Pad8)*%
X123843937Y-70929886D03*
%TO.N,GND*%
X126383937Y-73469886D03*
%TO.N,unconnected-(U2-GPIO15{slash}RXD0-Pad10)*%
X126383937Y-70929886D03*
%TO.N,/DIO0*%
X128923937Y-73469886D03*
%TO.N,/DIO5*%
X128923937Y-70929886D03*
%TO.N,/PTT_OUT*%
X131463937Y-73469886D03*
%TO.N,GND*%
X131463937Y-70929886D03*
%TO.N,TX_CTRL*%
X134003937Y-73469886D03*
%TO.N,unconnected-(U2-GPIO23{slash}GPIO_GEN4-Pad16)*%
X134003937Y-70929886D03*
%TO.N,unconnected-(U2-3V3-Pad1)*%
X136543937Y-73469886D03*
%TO.N,unconnected-(U2-GPIO24{slash}GPIO_GEN5-Pad18)*%
X136543937Y-70929886D03*
%TO.N,/MOSI*%
X139083937Y-73469886D03*
%TO.N,GND*%
X139083937Y-70929886D03*
%TO.N,/MISO*%
X141623937Y-73469886D03*
%TO.N,unconnected-(U2-GPIO25{slash}GPIO_GEN6-Pad22)*%
X141623937Y-70929886D03*
%TO.N,/SCK*%
X144163937Y-73469886D03*
%TO.N,unconnected-(U2-GPIO8{slash}~{SPI_CE0}-Pad24)*%
X144163937Y-70929886D03*
%TO.N,GND*%
X146703937Y-73469886D03*
%TO.N,/CS*%
X146703937Y-70929886D03*
%TO.N,unconnected-(U2-ID_SD-Pad27)*%
X149243937Y-73469886D03*
%TO.N,/PTT_IN*%
X149243937Y-70929886D03*
%TO.N,unconnected-(U2-GPIO5-Pad29)*%
X151783937Y-73469886D03*
%TO.N,GND*%
X151783937Y-70929886D03*
%TO.N,/RST*%
X154323937Y-73469886D03*
%TO.N,/DIO1*%
X154323937Y-70929886D03*
%TO.N,/DIO2*%
X156863937Y-73469886D03*
%TO.N,GND*%
X156863937Y-70929886D03*
%TO.N,/DIO4*%
X159403937Y-73469886D03*
%TO.N,/DIO3*%
X159403937Y-70929886D03*
%TO.N,RX_CTRL*%
X161943937Y-73469886D03*
%TO.N,/enable*%
X161943937Y-70929886D03*
%TO.N,GND*%
X164483937Y-73469886D03*
%TO.N,unconnected-(U2-GPIO21-Pad40)*%
X164483937Y-70929886D03*
%TO.N,unconnected-(U2-TR01-Pad41)*%
X170583937Y-79592886D03*
%TO.N,unconnected-(U2-TR00-Pad42)*%
X170583937Y-77052886D03*
%TO.N,unconnected-(U2-TR03-Pad43)*%
X168043937Y-79592886D03*
%TO.N,unconnected-(U2-TR02-Pad44)*%
X168043937Y-77052886D03*
D12*
%TO.N,GND*%
X111353937Y-72199886D03*
X169353937Y-72199886D03*
X169353937Y-121199886D03*
X111353937Y-121199886D03*
%TD*%
D13*
%TO.N,GND*%
%TO.C,U1*%
X100853937Y-78835000D03*
X100953937Y-114935000D03*
X137503937Y-78835000D03*
X137603937Y-114935000D03*
%TD*%
D11*
%TO.N,+5V*%
%TO.C,RMF96W1*%
X143974575Y-88237234D03*
%TO.N,GND*%
X143974575Y-90777234D03*
%TO.N,/enable*%
X143974575Y-93317234D03*
%TO.N,/DIO0*%
X143974575Y-95857234D03*
%TO.N,/SCK_5V*%
X143974575Y-98397234D03*
%TO.N,/MOSI_5V*%
X143974575Y-100937234D03*
%TO.N,/MISO_3V*%
X143974575Y-103477234D03*
%TO.N,/CS_5V*%
X143974575Y-106017234D03*
%TO.N,/RST_5V*%
X143974575Y-108557234D03*
%TO.N,/DIO1*%
X169361899Y-88289567D03*
%TO.N,/DIO2*%
X169361899Y-90829567D03*
%TO.N,/DIO3*%
X169361899Y-93369567D03*
%TO.N,/DIO4*%
X169361899Y-95909567D03*
%TO.N,/DIO5*%
X169361899Y-98449567D03*
%TO.N,Net-(J1-In)*%
X166085299Y-106780767D03*
%TD*%
D14*
%TO.N,Net-(J1-In)*%
%TO.C,J1*%
X162876937Y-115697000D03*
D15*
%TO.N,GND*%
X160336937Y-113157000D03*
X160336937Y-118237000D03*
X165416937Y-113157000D03*
X165416937Y-118237000D03*
%TD*%
D16*
%TO.N,PA_PTT*%
%TO.C,J2*%
X119569937Y-121793000D03*
D17*
%TO.N,LNA_PTT*%
X122109937Y-121793000D03*
%TO.N,/PTT_IN*%
X124649937Y-121793000D03*
%TO.N,TX_CTRL*%
X127189937Y-121793000D03*
%TO.N,RX_CTRL*%
X129729937Y-121793000D03*
%TO.N,GND*%
X132269937Y-121793000D03*
%TD*%
D18*
%TO.N,GND*%
X148932337Y-79552800D03*
X142658537Y-76250800D03*
X102450337Y-74879200D03*
X154158947Y-83190790D03*
%TO.N,LNA_PTT*%
X164146937Y-84886800D03*
%TO.N,/PTT_IN*%
X140131237Y-85813900D03*
%TO.N,/PTT_OUT*%
X160861812Y-76581000D03*
X163410337Y-76504800D03*
%TO.N,/DIO0*%
X136816537Y-91008200D03*
%TO.N,TX_CTRL*%
X152666137Y-85013800D03*
%TO.N,/DIO2*%
X161911737Y-84810600D03*
%TO.N,/DIO4*%
X161767621Y-86196840D03*
%TO.N,/DIO3*%
X166864737Y-70281800D03*
%TD*%
%TA.AperFunction,Conductor*%
%TO.N,+5V*%
G36*
X119815677Y-71628073D02*
G01*
X119815679Y-71628072D01*
X119861030Y-71563306D01*
X119861034Y-71563299D01*
X119916864Y-71443570D01*
X119963036Y-71391130D01*
X120030229Y-71371977D01*
X120097111Y-71392192D01*
X120141629Y-71443568D01*
X120199448Y-71567562D01*
X120199449Y-71567563D01*
X120326960Y-71749667D01*
X120484156Y-71906863D01*
X120666260Y-72034374D01*
X120716366Y-72057739D01*
X120780198Y-72087504D01*
X120832637Y-72133676D01*
X120851789Y-72200870D01*
X120831573Y-72267751D01*
X120780198Y-72312268D01*
X120666260Y-72365398D01*
X120666256Y-72365400D01*
X120484154Y-72492909D01*
X120326960Y-72650103D01*
X120199451Y-72832205D01*
X120199449Y-72832209D01*
X120146319Y-72946147D01*
X120100146Y-72998586D01*
X120032953Y-73017738D01*
X119966072Y-72997522D01*
X119921555Y-72946147D01*
X119912067Y-72925800D01*
X119868425Y-72832210D01*
X119868423Y-72832207D01*
X119868422Y-72832205D01*
X119740915Y-72650106D01*
X119689490Y-72598681D01*
X119583718Y-72492909D01*
X119401614Y-72365398D01*
X119401615Y-72365398D01*
X119401613Y-72365397D01*
X119277619Y-72307578D01*
X119225180Y-72261405D01*
X119206028Y-72194212D01*
X119226244Y-72127331D01*
X119277621Y-72082813D01*
X119397350Y-72026983D01*
X119397357Y-72026979D01*
X119462123Y-71981628D01*
X119462124Y-71981626D01*
X118903537Y-71423038D01*
X118908529Y-71422321D01*
X119041407Y-71361638D01*
X119151806Y-71265976D01*
X119230782Y-71143087D01*
X119253458Y-71065855D01*
X119815677Y-71628073D01*
G37*
%TD.AperFunction*%
%TA.AperFunction,Conductor*%
G36*
X118297092Y-71143087D02*
G01*
X118376068Y-71265976D01*
X118486467Y-71361638D01*
X118619345Y-71422321D01*
X118624337Y-71423038D01*
X118065748Y-71981627D01*
X118130519Y-72026980D01*
X118130529Y-72026986D01*
X118250253Y-72082814D01*
X118302693Y-72128986D01*
X118321845Y-72196179D01*
X118301630Y-72263060D01*
X118250255Y-72307578D01*
X118170809Y-72344625D01*
X118126266Y-72365396D01*
X118126257Y-72365400D01*
X118126256Y-72365400D01*
X117944154Y-72492909D01*
X117786963Y-72650100D01*
X117720012Y-72745717D01*
X117665435Y-72789341D01*
X117595936Y-72796534D01*
X117533582Y-72765012D01*
X117498168Y-72704782D01*
X117494437Y-72674593D01*
X117494437Y-72659248D01*
X117494436Y-72659231D01*
X117491094Y-72628156D01*
X117487926Y-72598685D01*
X117436826Y-72461682D01*
X117349198Y-72344625D01*
X117232141Y-72256997D01*
X117232140Y-72256997D01*
X117095140Y-72205897D01*
X117034591Y-72199386D01*
X117034575Y-72199386D01*
X117004409Y-72199386D01*
X116937370Y-72179701D01*
X116891615Y-72126897D01*
X116881671Y-72057739D01*
X116910696Y-71994183D01*
X116921910Y-71984069D01*
X116922124Y-71981626D01*
X116363537Y-71423038D01*
X116368529Y-71422321D01*
X116501407Y-71361638D01*
X116611806Y-71265976D01*
X116690782Y-71143087D01*
X116713459Y-71065855D01*
X117275677Y-71628073D01*
X117275679Y-71628072D01*
X117321030Y-71563306D01*
X117321037Y-71563294D01*
X117381555Y-71433513D01*
X117427727Y-71381073D01*
X117494920Y-71361921D01*
X117561801Y-71382136D01*
X117606319Y-71433513D01*
X117666836Y-71563293D01*
X117666837Y-71563295D01*
X117712195Y-71628073D01*
X118274414Y-71065854D01*
X118297092Y-71143087D01*
G37*
%TD.AperFunction*%
%TA.AperFunction,Conductor*%
G36*
X169355450Y-68644460D02*
G01*
X169509301Y-68652020D01*
X169706004Y-68662318D01*
X169711804Y-68662899D01*
X169885468Y-68688662D01*
X170062581Y-68716715D01*
X170067918Y-68717805D01*
X170241009Y-68761164D01*
X170411797Y-68806928D01*
X170416583Y-68808422D01*
X170585823Y-68868979D01*
X170750049Y-68932021D01*
X170754290Y-68933834D01*
X170917471Y-69011015D01*
X171073879Y-69090710D01*
X171077559Y-69092747D01*
X171208864Y-69171449D01*
X171232830Y-69185814D01*
X171379938Y-69281347D01*
X171383075Y-69283526D01*
X171459014Y-69339846D01*
X171528789Y-69391596D01*
X171665120Y-69501995D01*
X171667726Y-69504228D01*
X171801230Y-69625230D01*
X171803402Y-69627298D01*
X171839169Y-69663065D01*
X171926506Y-69750403D01*
X171928604Y-69752607D01*
X172049567Y-69886070D01*
X172051812Y-69888689D01*
X172162226Y-70025040D01*
X172270274Y-70170727D01*
X172272473Y-70173893D01*
X172367995Y-70320984D01*
X172461050Y-70476238D01*
X172463114Y-70479966D01*
X172542793Y-70636345D01*
X172619962Y-70799507D01*
X172621798Y-70803798D01*
X172684827Y-70967996D01*
X172745372Y-71137212D01*
X172746884Y-71142053D01*
X172792638Y-71312801D01*
X172835998Y-71485905D01*
X172837093Y-71491273D01*
X172865135Y-71668316D01*
X172890901Y-71842015D01*
X172891487Y-71847871D01*
X172901577Y-72040392D01*
X172909362Y-72198836D01*
X172909437Y-72201879D01*
X172909437Y-121220357D01*
X172909362Y-121223399D01*
X172902251Y-121368169D01*
X172891401Y-121574663D01*
X172890815Y-121580509D01*
X172866277Y-121745942D01*
X172836917Y-121931323D01*
X172835822Y-121936691D01*
X172793776Y-122104552D01*
X172746605Y-122280591D01*
X172745093Y-122285432D01*
X172685948Y-122450739D01*
X172621403Y-122618885D01*
X172619568Y-122623175D01*
X172543903Y-122783162D01*
X172462587Y-122942756D01*
X172460523Y-122946484D01*
X172369090Y-123099033D01*
X172271782Y-123248876D01*
X172269582Y-123252043D01*
X172163290Y-123395364D01*
X172050947Y-123534097D01*
X172048703Y-123536716D01*
X171929637Y-123668085D01*
X171927539Y-123670290D01*
X171802327Y-123795504D01*
X171800122Y-123797602D01*
X171668747Y-123916675D01*
X171666128Y-123918920D01*
X171527418Y-124031249D01*
X171384066Y-124137566D01*
X171380900Y-124139765D01*
X171231096Y-124237051D01*
X171078520Y-124328502D01*
X171074792Y-124330566D01*
X170915205Y-124411882D01*
X170755236Y-124487543D01*
X170750945Y-124489378D01*
X170582799Y-124553926D01*
X170417481Y-124613079D01*
X170412639Y-124614591D01*
X170236616Y-124661759D01*
X170080138Y-124700957D01*
X170069417Y-124703643D01*
X170068754Y-124703809D01*
X170063392Y-124704903D01*
X170013645Y-124712783D01*
X169877941Y-124734277D01*
X169712593Y-124758806D01*
X169706737Y-124759392D01*
X169490759Y-124770713D01*
X169356482Y-124777310D01*
X169353518Y-124777385D01*
X99987957Y-124866025D01*
X99984845Y-124865950D01*
X99941233Y-124863806D01*
X99825524Y-124858119D01*
X99634779Y-124848150D01*
X99628912Y-124847563D01*
X99450912Y-124821155D01*
X99278221Y-124793798D01*
X99272853Y-124792703D01*
X99097017Y-124748655D01*
X99020713Y-124728208D01*
X98929042Y-124703643D01*
X98924209Y-124702133D01*
X98752884Y-124640829D01*
X98590816Y-124578613D01*
X98586525Y-124576778D01*
X98421656Y-124498798D01*
X98267007Y-124419995D01*
X98263280Y-124417932D01*
X98117520Y-124330566D01*
X98106582Y-124324010D01*
X97960957Y-124229436D01*
X97957791Y-124227237D01*
X97810830Y-124118242D01*
X97675783Y-124008880D01*
X97673164Y-124006635D01*
X97573909Y-123916675D01*
X97538537Y-123884615D01*
X97536347Y-123882529D01*
X97518313Y-123864495D01*
X97414426Y-123760605D01*
X97412327Y-123758401D01*
X97392048Y-123736026D01*
X97290299Y-123623761D01*
X97288070Y-123621159D01*
X97178718Y-123486119D01*
X97069732Y-123339166D01*
X97067536Y-123336006D01*
X97006952Y-123242714D01*
X96972950Y-123190354D01*
X96927451Y-123114443D01*
X96879032Y-123033659D01*
X96876978Y-123029949D01*
X96798170Y-122875278D01*
X96720196Y-122710417D01*
X96718365Y-122706134D01*
X96689246Y-122630276D01*
X96656135Y-122544020D01*
X96637448Y-122491794D01*
X96594842Y-122372720D01*
X96593344Y-122367921D01*
X96548330Y-122199929D01*
X96504279Y-122024067D01*
X96503190Y-122018735D01*
X96475835Y-121846025D01*
X96469243Y-121801589D01*
X96448685Y-121663002D01*
X96448184Y-121658436D01*
X96447809Y-121653207D01*
X96430984Y-121310769D01*
X96430909Y-121307726D01*
X96430909Y-121285823D01*
X96427643Y-121280176D01*
X96424127Y-121250856D01*
X96424127Y-121199891D01*
X108934463Y-121199891D01*
X108953539Y-121503115D01*
X108953540Y-121503122D01*
X108982008Y-121652355D01*
X109008838Y-121793005D01*
X109010476Y-121801589D01*
X109104367Y-122090555D01*
X109104369Y-122090560D01*
X109233733Y-122365472D01*
X109233737Y-122365478D01*
X109396537Y-122622012D01*
X109396540Y-122622016D01*
X109396541Y-122622017D01*
X109470945Y-122711956D01*
X109590221Y-122856136D01*
X109811704Y-123064121D01*
X109811714Y-123064129D01*
X110057506Y-123242707D01*
X110057511Y-123242709D01*
X110057518Y-123242715D01*
X110323775Y-123389092D01*
X110323780Y-123389094D01*
X110323782Y-123389095D01*
X110323783Y-123389096D01*
X110606274Y-123500942D01*
X110606277Y-123500943D01*
X110704376Y-123526129D01*
X110900573Y-123576504D01*
X111048178Y-123595151D01*
X111202007Y-123614585D01*
X111202013Y-123614585D01*
X111202017Y-123614586D01*
X111202019Y-123614586D01*
X111505855Y-123614586D01*
X111505857Y-123614586D01*
X111505862Y-123614585D01*
X111505866Y-123614585D01*
X111585892Y-123604474D01*
X111807301Y-123576504D01*
X112101596Y-123500943D01*
X112101599Y-123500942D01*
X112384090Y-123389096D01*
X112384091Y-123389095D01*
X112384089Y-123389095D01*
X112384099Y-123389092D01*
X112650356Y-123242715D01*
X112896168Y-123064123D01*
X113082438Y-122889204D01*
X113117652Y-122856136D01*
X113117653Y-122856134D01*
X113117658Y-122856130D01*
X113253724Y-122691654D01*
X118211437Y-122691654D01*
X118217948Y-122752202D01*
X118217948Y-122752204D01*
X118248062Y-122832940D01*
X118269048Y-122889204D01*
X118356676Y-123006261D01*
X118473733Y-123093889D01*
X118528843Y-123114444D01*
X118600349Y-123141115D01*
X118610736Y-123144989D01*
X118637987Y-123147918D01*
X118671282Y-123151499D01*
X118671299Y-123151500D01*
X120468575Y-123151500D01*
X120468591Y-123151499D01*
X120495629Y-123148591D01*
X120529138Y-123144989D01*
X120539525Y-123141115D01*
X120543705Y-123139555D01*
X120666141Y-123093889D01*
X120783198Y-123006261D01*
X120870826Y-122889204D01*
X120916075Y-122767887D01*
X120957946Y-122711956D01*
X121023411Y-122687539D01*
X121091683Y-122702391D01*
X121123482Y-122727236D01*
X121186697Y-122795906D01*
X121364361Y-122934189D01*
X121364362Y-122934189D01*
X121364364Y-122934191D01*
X121380191Y-122942756D01*
X121562363Y-123041342D01*
X121775302Y-123114444D01*
X121997368Y-123151500D01*
X122222506Y-123151500D01*
X122444572Y-123114444D01*
X122657511Y-123041342D01*
X122855513Y-122934189D01*
X123033177Y-122795906D01*
X123185659Y-122630268D01*
X123276130Y-122491790D01*
X123329275Y-122446437D01*
X123398506Y-122437013D01*
X123461842Y-122466515D01*
X123483741Y-122491787D01*
X123574215Y-122630268D01*
X123574220Y-122630273D01*
X123574221Y-122630276D01*
X123700905Y-122767889D01*
X123726697Y-122795906D01*
X123904361Y-122934189D01*
X123904362Y-122934189D01*
X123904364Y-122934191D01*
X123920191Y-122942756D01*
X124102363Y-123041342D01*
X124315302Y-123114444D01*
X124537368Y-123151500D01*
X124762506Y-123151500D01*
X124984572Y-123114444D01*
X125197511Y-123041342D01*
X125395513Y-122934189D01*
X125573177Y-122795906D01*
X125725659Y-122630268D01*
X125816130Y-122491790D01*
X125869275Y-122446437D01*
X125938506Y-122437013D01*
X126001842Y-122466515D01*
X126023741Y-122491787D01*
X126114215Y-122630268D01*
X126114220Y-122630273D01*
X126114221Y-122630276D01*
X126240905Y-122767889D01*
X126266697Y-122795906D01*
X126444361Y-122934189D01*
X126444362Y-122934189D01*
X126444364Y-122934191D01*
X126460191Y-122942756D01*
X126642363Y-123041342D01*
X126855302Y-123114444D01*
X127077368Y-123151500D01*
X127302506Y-123151500D01*
X127524572Y-123114444D01*
X127737511Y-123041342D01*
X127935513Y-122934189D01*
X128113177Y-122795906D01*
X128265659Y-122630268D01*
X128356130Y-122491791D01*
X128409273Y-122446437D01*
X128478504Y-122437013D01*
X128541840Y-122466515D01*
X128563744Y-122491793D01*
X128654213Y-122630265D01*
X128654221Y-122630276D01*
X128780905Y-122767889D01*
X128806697Y-122795906D01*
X128984361Y-122934189D01*
X128984362Y-122934189D01*
X128984364Y-122934191D01*
X129000191Y-122942756D01*
X129182363Y-123041342D01*
X129395302Y-123114444D01*
X129617368Y-123151500D01*
X129842506Y-123151500D01*
X130064572Y-123114444D01*
X130277511Y-123041342D01*
X130475513Y-122934189D01*
X130653177Y-122795906D01*
X130805659Y-122630268D01*
X130896130Y-122491790D01*
X130949275Y-122446437D01*
X131018506Y-122437013D01*
X131081842Y-122466515D01*
X131103741Y-122491787D01*
X131194215Y-122630268D01*
X131194220Y-122630273D01*
X131194221Y-122630276D01*
X131320905Y-122767889D01*
X131346697Y-122795906D01*
X131524361Y-122934189D01*
X131524362Y-122934189D01*
X131524364Y-122934191D01*
X131540191Y-122942756D01*
X131722363Y-123041342D01*
X131935302Y-123114444D01*
X132157368Y-123151500D01*
X132382506Y-123151500D01*
X132604572Y-123114444D01*
X132817511Y-123041342D01*
X133015513Y-122934189D01*
X133193177Y-122795906D01*
X133345659Y-122630268D01*
X133468797Y-122441791D01*
X133559233Y-122235616D01*
X133614501Y-122017368D01*
X133614502Y-122017359D01*
X133633093Y-121793005D01*
X133633093Y-121792994D01*
X133614502Y-121568640D01*
X133614500Y-121568628D01*
X133597910Y-121503115D01*
X133559233Y-121350384D01*
X133493221Y-121199891D01*
X166934463Y-121199891D01*
X166953539Y-121503115D01*
X166953540Y-121503122D01*
X166982008Y-121652355D01*
X167008838Y-121793005D01*
X167010476Y-121801589D01*
X167104367Y-122090555D01*
X167104369Y-122090560D01*
X167233733Y-122365472D01*
X167233737Y-122365478D01*
X167396537Y-122622012D01*
X167396540Y-122622016D01*
X167396541Y-122622017D01*
X167470945Y-122711956D01*
X167590221Y-122856136D01*
X167811704Y-123064121D01*
X167811714Y-123064129D01*
X168057506Y-123242707D01*
X168057511Y-123242709D01*
X168057518Y-123242715D01*
X168323775Y-123389092D01*
X168323780Y-123389094D01*
X168323782Y-123389095D01*
X168323783Y-123389096D01*
X168606274Y-123500942D01*
X168606277Y-123500943D01*
X168704376Y-123526129D01*
X168900573Y-123576504D01*
X169048178Y-123595151D01*
X169202007Y-123614585D01*
X169202013Y-123614585D01*
X169202017Y-123614586D01*
X169202019Y-123614586D01*
X169505855Y-123614586D01*
X169505857Y-123614586D01*
X169505862Y-123614585D01*
X169505866Y-123614585D01*
X169585892Y-123604474D01*
X169807301Y-123576504D01*
X170101596Y-123500943D01*
X170101599Y-123500942D01*
X170384090Y-123389096D01*
X170384091Y-123389095D01*
X170384089Y-123389095D01*
X170384099Y-123389092D01*
X170650356Y-123242715D01*
X170896168Y-123064123D01*
X171082438Y-122889204D01*
X171117652Y-122856136D01*
X171117653Y-122856134D01*
X171117658Y-122856130D01*
X171311333Y-122622017D01*
X171474138Y-122365476D01*
X171603507Y-122090554D01*
X171697399Y-121801585D01*
X171754333Y-121503126D01*
X171766077Y-121316466D01*
X171773411Y-121199891D01*
X171773411Y-121199880D01*
X171754334Y-120896656D01*
X171754333Y-120896649D01*
X171754333Y-120896646D01*
X171697399Y-120598187D01*
X171603507Y-120309218D01*
X171603504Y-120309211D01*
X171474140Y-120034299D01*
X171474136Y-120034293D01*
X171311336Y-119777759D01*
X171244493Y-119696960D01*
X171117658Y-119543642D01*
X171117657Y-119543641D01*
X171117652Y-119543635D01*
X170896169Y-119335650D01*
X170896159Y-119335642D01*
X170650367Y-119157064D01*
X170650360Y-119157059D01*
X170650356Y-119157057D01*
X170384099Y-119010680D01*
X170384096Y-119010678D01*
X170384091Y-119010676D01*
X170384090Y-119010675D01*
X170101599Y-118898829D01*
X170101596Y-118898828D01*
X169807298Y-118823267D01*
X169505866Y-118785186D01*
X169505857Y-118785186D01*
X169202017Y-118785186D01*
X169202007Y-118785186D01*
X168900575Y-118823267D01*
X168606277Y-118898828D01*
X168606274Y-118898829D01*
X168323783Y-119010675D01*
X168323782Y-119010676D01*
X168057518Y-119157057D01*
X168057506Y-119157064D01*
X167811714Y-119335642D01*
X167811704Y-119335650D01*
X167590221Y-119543635D01*
X167396537Y-119777759D01*
X167233737Y-120034293D01*
X167233733Y-120034299D01*
X167104369Y-120309211D01*
X167104367Y-120309216D01*
X167010476Y-120598182D01*
X166953540Y-120896649D01*
X166953539Y-120896656D01*
X166934463Y-121199880D01*
X166934463Y-121199891D01*
X133493221Y-121199891D01*
X133468797Y-121144209D01*
X133452643Y-121119484D01*
X133345660Y-120955734D01*
X133345652Y-120955723D01*
X133193180Y-120790097D01*
X133193175Y-120790092D01*
X133015514Y-120651812D01*
X133015509Y-120651808D01*
X132817517Y-120544661D01*
X132817514Y-120544659D01*
X132817511Y-120544658D01*
X132817508Y-120544657D01*
X132817506Y-120544656D01*
X132604574Y-120471556D01*
X132382506Y-120434500D01*
X132157368Y-120434500D01*
X131935299Y-120471556D01*
X131722367Y-120544656D01*
X131722356Y-120544661D01*
X131524364Y-120651808D01*
X131524359Y-120651812D01*
X131346698Y-120790092D01*
X131346693Y-120790097D01*
X131194221Y-120955723D01*
X131194213Y-120955734D01*
X131103745Y-121094206D01*
X131050599Y-121139562D01*
X130981368Y-121148986D01*
X130918032Y-121119484D01*
X130896129Y-121094206D01*
X130805660Y-120955734D01*
X130805652Y-120955723D01*
X130653180Y-120790097D01*
X130653175Y-120790092D01*
X130475514Y-120651812D01*
X130475509Y-120651808D01*
X130277517Y-120544661D01*
X130277514Y-120544659D01*
X130277511Y-120544658D01*
X130277508Y-120544657D01*
X130277506Y-120544656D01*
X130064574Y-120471556D01*
X129842506Y-120434500D01*
X129617368Y-120434500D01*
X129395299Y-120471556D01*
X129182367Y-120544656D01*
X129182356Y-120544661D01*
X128984364Y-120651808D01*
X128984359Y-120651812D01*
X128806698Y-120790092D01*
X128806693Y-120790097D01*
X128654221Y-120955723D01*
X128654213Y-120955734D01*
X128563744Y-121094206D01*
X128510597Y-121139563D01*
X128441366Y-121148986D01*
X128378030Y-121119483D01*
X128356128Y-121094206D01*
X128265659Y-120955732D01*
X128265654Y-120955727D01*
X128265652Y-120955723D01*
X128113180Y-120790097D01*
X128113175Y-120790092D01*
X127935514Y-120651812D01*
X127935509Y-120651808D01*
X127737517Y-120544661D01*
X127737514Y-120544659D01*
X127737511Y-120544658D01*
X127737508Y-120544657D01*
X127737506Y-120544656D01*
X127524574Y-120471556D01*
X127302506Y-120434500D01*
X127077368Y-120434500D01*
X126855299Y-120471556D01*
X126642367Y-120544656D01*
X126642356Y-120544661D01*
X126444364Y-120651808D01*
X126444359Y-120651812D01*
X126266698Y-120790092D01*
X126266693Y-120790097D01*
X126114221Y-120955723D01*
X126114213Y-120955734D01*
X126023745Y-121094206D01*
X125970599Y-121139562D01*
X125901368Y-121148986D01*
X125838032Y-121119484D01*
X125816129Y-121094206D01*
X125725660Y-120955734D01*
X125725652Y-120955723D01*
X125573180Y-120790097D01*
X125573175Y-120790092D01*
X125395514Y-120651812D01*
X125395509Y-120651808D01*
X125197517Y-120544661D01*
X125197514Y-120544659D01*
X125197511Y-120544658D01*
X125197508Y-120544657D01*
X125197506Y-120544656D01*
X124984574Y-120471556D01*
X124762506Y-120434500D01*
X124537368Y-120434500D01*
X124315299Y-120471556D01*
X124102367Y-120544656D01*
X124102356Y-120544661D01*
X123904364Y-120651808D01*
X123904359Y-120651812D01*
X123726698Y-120790092D01*
X123726693Y-120790097D01*
X123574221Y-120955723D01*
X123574213Y-120955734D01*
X123483745Y-121094206D01*
X123430599Y-121139562D01*
X123361368Y-121148986D01*
X123298032Y-121119484D01*
X123276129Y-121094206D01*
X123185660Y-120955734D01*
X123185652Y-120955723D01*
X123033180Y-120790097D01*
X123033175Y-120790092D01*
X122855514Y-120651812D01*
X122855509Y-120651808D01*
X122657517Y-120544661D01*
X122657514Y-120544659D01*
X122657511Y-120544658D01*
X122657508Y-120544657D01*
X122657506Y-120544656D01*
X122444574Y-120471556D01*
X122222506Y-120434500D01*
X121997368Y-120434500D01*
X121775299Y-120471556D01*
X121562367Y-120544656D01*
X121562356Y-120544661D01*
X121364364Y-120651808D01*
X121364359Y-120651812D01*
X121186698Y-120790092D01*
X121123485Y-120858760D01*
X121063598Y-120894750D01*
X120993760Y-120892649D01*
X120936144Y-120853124D01*
X120916075Y-120818110D01*
X120870826Y-120696796D01*
X120837151Y-120651812D01*
X120783198Y-120579739D01*
X120666141Y-120492111D01*
X120666141Y-120492110D01*
X120529140Y-120441011D01*
X120468591Y-120434500D01*
X120468575Y-120434500D01*
X118671299Y-120434500D01*
X118671282Y-120434500D01*
X118610734Y-120441011D01*
X118610732Y-120441011D01*
X118473732Y-120492111D01*
X118356676Y-120579739D01*
X118269048Y-120696795D01*
X118217948Y-120833795D01*
X118217948Y-120833797D01*
X118211437Y-120894345D01*
X118211437Y-122691654D01*
X113253724Y-122691654D01*
X113311333Y-122622017D01*
X113474138Y-122365476D01*
X113603507Y-122090554D01*
X113697399Y-121801585D01*
X113754333Y-121503126D01*
X113766077Y-121316466D01*
X113773411Y-121199891D01*
X113773411Y-121199880D01*
X113754334Y-120896656D01*
X113754333Y-120896649D01*
X113754333Y-120896646D01*
X113697399Y-120598187D01*
X113603507Y-120309218D01*
X113603504Y-120309211D01*
X113474140Y-120034299D01*
X113474136Y-120034293D01*
X113311336Y-119777759D01*
X113244493Y-119696960D01*
X113117658Y-119543642D01*
X113117657Y-119543641D01*
X113117652Y-119543635D01*
X112896169Y-119335650D01*
X112896159Y-119335642D01*
X112650367Y-119157064D01*
X112650360Y-119157059D01*
X112650356Y-119157057D01*
X112384099Y-119010680D01*
X112384096Y-119010678D01*
X112384091Y-119010676D01*
X112384090Y-119010675D01*
X112101599Y-118898829D01*
X112101596Y-118898828D01*
X111807298Y-118823267D01*
X111505866Y-118785186D01*
X111505857Y-118785186D01*
X111202017Y-118785186D01*
X111202007Y-118785186D01*
X110900575Y-118823267D01*
X110606277Y-118898828D01*
X110606274Y-118898829D01*
X110323783Y-119010675D01*
X110323782Y-119010676D01*
X110057518Y-119157057D01*
X110057506Y-119157064D01*
X109811714Y-119335642D01*
X109811704Y-119335650D01*
X109590221Y-119543635D01*
X109396537Y-119777759D01*
X109233737Y-120034293D01*
X109233733Y-120034299D01*
X109104369Y-120309211D01*
X109104367Y-120309216D01*
X109010476Y-120598182D01*
X108953540Y-120896649D01*
X108953539Y-120896656D01*
X108934463Y-121199880D01*
X108934463Y-121199891D01*
X96424127Y-121199891D01*
X96424127Y-114935000D01*
X97440622Y-114935000D01*
X97459868Y-115302241D01*
X97517396Y-115665459D01*
X97590325Y-115937634D01*
X97612578Y-116020681D01*
X97744365Y-116363997D01*
X97911319Y-116691662D01*
X98111603Y-117000073D01*
X98175006Y-117078369D01*
X98343035Y-117285867D01*
X98603070Y-117545902D01*
X98603074Y-117545905D01*
X98888863Y-117777333D01*
X99197274Y-117977617D01*
X99197279Y-117977620D01*
X99524943Y-118144573D01*
X99868263Y-118276361D01*
X100223478Y-118371541D01*
X100586696Y-118429069D01*
X100933625Y-118447250D01*
X100953936Y-118448315D01*
X100953937Y-118448315D01*
X100953938Y-118448315D01*
X100973183Y-118447306D01*
X101321178Y-118429069D01*
X101684396Y-118371541D01*
X102039611Y-118276361D01*
X102382931Y-118144573D01*
X102710595Y-117977620D01*
X103019012Y-117777332D01*
X103304804Y-117545902D01*
X103564839Y-117285867D01*
X103796269Y-117000075D01*
X103996557Y-116691658D01*
X104163510Y-116363994D01*
X104295298Y-116020674D01*
X104390478Y-115665459D01*
X104448006Y-115302241D01*
X104467252Y-114935000D01*
X134090622Y-114935000D01*
X134109868Y-115302241D01*
X134167396Y-115665459D01*
X134240325Y-115937634D01*
X134262578Y-116020681D01*
X134394365Y-116363997D01*
X134561319Y-116691662D01*
X134761603Y-117000073D01*
X134825006Y-117078369D01*
X134993035Y-117285867D01*
X135253070Y-117545902D01*
X135253074Y-117545905D01*
X135538863Y-117777333D01*
X135847274Y-117977617D01*
X135847279Y-117977620D01*
X136174943Y-118144573D01*
X136518263Y-118276361D01*
X136873478Y-118371541D01*
X137236696Y-118429069D01*
X137583625Y-118447250D01*
X137603936Y-118448315D01*
X137603937Y-118448315D01*
X137603938Y-118448315D01*
X137623183Y-118447306D01*
X137971178Y-118429069D01*
X138334396Y-118371541D01*
X138689611Y-118276361D01*
X138792150Y-118237000D01*
X158698386Y-118237000D01*
X158718558Y-118493323D01*
X158778581Y-118743340D01*
X158876976Y-118980887D01*
X159011319Y-119200113D01*
X159011322Y-119200118D01*
X159087015Y-119288742D01*
X159178306Y-119395631D01*
X159303455Y-119502518D01*
X159373818Y-119562614D01*
X159373823Y-119562617D01*
X159593049Y-119696960D01*
X159830596Y-119795355D01*
X159893100Y-119810360D01*
X160080611Y-119855378D01*
X160336937Y-119875551D01*
X160593263Y-119855378D01*
X160843277Y-119795355D01*
X161080824Y-119696960D01*
X161300053Y-119562616D01*
X161495568Y-119395631D01*
X161662553Y-119200116D01*
X161796897Y-118980887D01*
X161895292Y-118743340D01*
X161955315Y-118493326D01*
X161975488Y-118237000D01*
X163778386Y-118237000D01*
X163798558Y-118493323D01*
X163858581Y-118743340D01*
X163956976Y-118980887D01*
X164091319Y-119200113D01*
X164091322Y-119200118D01*
X164167015Y-119288742D01*
X164258306Y-119395631D01*
X164383455Y-119502518D01*
X164453818Y-119562614D01*
X164453823Y-119562617D01*
X164673049Y-119696960D01*
X164910596Y-119795355D01*
X164973100Y-119810360D01*
X165160611Y-119855378D01*
X165416937Y-119875551D01*
X165673263Y-119855378D01*
X165923277Y-119795355D01*
X166160824Y-119696960D01*
X166380053Y-119562616D01*
X166575568Y-119395631D01*
X166742553Y-119200116D01*
X166876897Y-118980887D01*
X166975292Y-118743340D01*
X167035315Y-118493326D01*
X167055488Y-118237000D01*
X167035315Y-117980674D01*
X166975292Y-117730660D01*
X166898765Y-117545905D01*
X166876897Y-117493112D01*
X166742554Y-117273886D01*
X166742551Y-117273881D01*
X166682455Y-117203518D01*
X166575568Y-117078369D01*
X166415275Y-116941466D01*
X166380055Y-116911385D01*
X166380050Y-116911382D01*
X166160824Y-116777039D01*
X165923277Y-116678644D01*
X165673259Y-116618621D01*
X165673260Y-116618621D01*
X165416937Y-116598449D01*
X165160613Y-116618621D01*
X164910596Y-116678644D01*
X164673049Y-116777039D01*
X164453823Y-116911382D01*
X164453818Y-116911385D01*
X164258306Y-117078369D01*
X164091322Y-117273881D01*
X164091319Y-117273886D01*
X163956976Y-117493112D01*
X163858581Y-117730659D01*
X163798558Y-117980676D01*
X163778386Y-118237000D01*
X161975488Y-118237000D01*
X161955315Y-117980674D01*
X161895292Y-117730660D01*
X161818765Y-117545905D01*
X161796897Y-117493112D01*
X161662554Y-117273886D01*
X161662551Y-117273881D01*
X161602455Y-117203518D01*
X161495568Y-117078369D01*
X161335275Y-116941466D01*
X161300055Y-116911385D01*
X161300050Y-116911382D01*
X161080824Y-116777039D01*
X160843277Y-116678644D01*
X160593259Y-116618621D01*
X160593260Y-116618621D01*
X160360877Y-116600333D01*
X160336937Y-116598449D01*
X160336936Y-116598449D01*
X160080613Y-116618621D01*
X159830596Y-116678644D01*
X159593049Y-116777039D01*
X159373823Y-116911382D01*
X159373818Y-116911385D01*
X159178306Y-117078369D01*
X159011322Y-117273881D01*
X159011319Y-117273886D01*
X158876976Y-117493112D01*
X158778581Y-117730659D01*
X158718558Y-117980676D01*
X158698386Y-118237000D01*
X138792150Y-118237000D01*
X139032931Y-118144573D01*
X139360595Y-117977620D01*
X139669012Y-117777332D01*
X139954804Y-117545902D01*
X140214839Y-117285867D01*
X140446269Y-117000075D01*
X140646557Y-116691658D01*
X140813510Y-116363994D01*
X140945298Y-116020674D01*
X141032027Y-115697000D01*
X161338695Y-115697000D01*
X161357632Y-115937631D01*
X161413981Y-116172343D01*
X161506352Y-116395347D01*
X161632469Y-116601150D01*
X161632470Y-116601152D01*
X161632471Y-116601154D01*
X161632473Y-116601156D01*
X161789236Y-116784701D01*
X161972781Y-116941464D01*
X161972783Y-116941465D01*
X161972784Y-116941466D01*
X161972786Y-116941467D01*
X162178589Y-117067584D01*
X162401593Y-117159955D01*
X162460271Y-117174042D01*
X162636303Y-117216304D01*
X162876937Y-117235242D01*
X163117571Y-117216304D01*
X163352280Y-117159955D01*
X163575284Y-117067584D01*
X163781093Y-116941464D01*
X163964638Y-116784701D01*
X164121401Y-116601156D01*
X164247521Y-116395347D01*
X164339892Y-116172343D01*
X164396241Y-115937634D01*
X164415179Y-115697000D01*
X164396241Y-115456366D01*
X164339892Y-115221657D01*
X164247521Y-114998653D01*
X164247521Y-114998652D01*
X164121404Y-114792849D01*
X164121403Y-114792847D01*
X164121402Y-114792846D01*
X164121401Y-114792844D01*
X163964638Y-114609299D01*
X163781093Y-114452536D01*
X163781091Y-114452534D01*
X163781089Y-114452533D01*
X163781087Y-114452532D01*
X163575284Y-114326415D01*
X163352280Y-114234044D01*
X163117567Y-114177695D01*
X163117568Y-114177695D01*
X162876937Y-114158758D01*
X162636305Y-114177695D01*
X162401593Y-114234044D01*
X162178589Y-114326415D01*
X161972786Y-114452532D01*
X161972784Y-114452533D01*
X161789236Y-114609299D01*
X161632470Y-114792847D01*
X161632469Y-114792849D01*
X161506352Y-114998652D01*
X161413981Y-115221656D01*
X161357632Y-115456368D01*
X161338695Y-115697000D01*
X141032027Y-115697000D01*
X141040478Y-115665459D01*
X141098006Y-115302241D01*
X141117252Y-114935000D01*
X141098006Y-114567759D01*
X141040478Y-114204541D01*
X140945298Y-113849326D01*
X140813510Y-113506006D01*
X140646557Y-113178343D01*
X140632696Y-113156999D01*
X158698386Y-113156999D01*
X158718558Y-113413323D01*
X158778581Y-113663340D01*
X158876976Y-113900887D01*
X159011319Y-114120113D01*
X159011322Y-114120118D01*
X159083429Y-114204544D01*
X159178306Y-114315631D01*
X159303455Y-114422518D01*
X159373818Y-114482614D01*
X159373823Y-114482617D01*
X159593049Y-114616960D01*
X159830596Y-114715355D01*
X159893100Y-114730360D01*
X160080611Y-114775378D01*
X160336937Y-114795551D01*
X160593263Y-114775378D01*
X160843277Y-114715355D01*
X161080824Y-114616960D01*
X161300053Y-114482616D01*
X161495568Y-114315631D01*
X161662553Y-114120116D01*
X161796897Y-113900887D01*
X161895292Y-113663340D01*
X161955315Y-113413326D01*
X161975488Y-113157000D01*
X161975488Y-113156999D01*
X163778386Y-113156999D01*
X163798558Y-113413323D01*
X163858581Y-113663340D01*
X163956976Y-113900887D01*
X164091319Y-114120113D01*
X164091322Y-114120118D01*
X164163429Y-114204544D01*
X164258306Y-114315631D01*
X164383455Y-114422518D01*
X164453818Y-114482614D01*
X164453823Y-114482617D01*
X164673049Y-114616960D01*
X164910596Y-114715355D01*
X164973100Y-114730360D01*
X165160611Y-114775378D01*
X165416937Y-114795551D01*
X165673263Y-114775378D01*
X165923277Y-114715355D01*
X166160824Y-114616960D01*
X166380053Y-114482616D01*
X166575568Y-114315631D01*
X166742553Y-114120116D01*
X166876897Y-113900887D01*
X166975292Y-113663340D01*
X167035315Y-113413326D01*
X167055488Y-113157000D01*
X167035315Y-112900674D01*
X166975292Y-112650660D01*
X166947738Y-112584137D01*
X166876897Y-112413112D01*
X166742554Y-112193886D01*
X166742551Y-112193881D01*
X166682455Y-112123518D01*
X166575568Y-111998369D01*
X166451473Y-111892382D01*
X166380055Y-111831385D01*
X166380050Y-111831382D01*
X166160824Y-111697039D01*
X165923277Y-111598644D01*
X165673259Y-111538621D01*
X165673260Y-111538621D01*
X165416937Y-111518449D01*
X165160613Y-111538621D01*
X164910596Y-111598644D01*
X164673049Y-111697039D01*
X164453823Y-111831382D01*
X164453818Y-111831385D01*
X164258306Y-111998369D01*
X164091322Y-112193881D01*
X164091319Y-112193886D01*
X163956976Y-112413112D01*
X163858581Y-112650659D01*
X163798558Y-112900676D01*
X163778386Y-113156999D01*
X161975488Y-113156999D01*
X161955315Y-112900674D01*
X161895292Y-112650660D01*
X161867738Y-112584137D01*
X161796897Y-112413112D01*
X161662554Y-112193886D01*
X161662551Y-112193881D01*
X161602455Y-112123518D01*
X161495568Y-111998369D01*
X161371473Y-111892382D01*
X161300055Y-111831385D01*
X161300050Y-111831382D01*
X161080824Y-111697039D01*
X160843277Y-111598644D01*
X160593259Y-111538621D01*
X160593260Y-111538621D01*
X160360877Y-111520333D01*
X160336937Y-111518449D01*
X160336936Y-111518449D01*
X160080613Y-111538621D01*
X159830596Y-111598644D01*
X159593049Y-111697039D01*
X159373823Y-111831382D01*
X159373818Y-111831385D01*
X159178306Y-111998369D01*
X159011322Y-112193881D01*
X159011319Y-112193886D01*
X158876976Y-112413112D01*
X158778581Y-112650659D01*
X158718558Y-112900676D01*
X158698386Y-113156999D01*
X140632696Y-113156999D01*
X140446269Y-112869925D01*
X140214839Y-112584133D01*
X139954804Y-112324098D01*
X139669012Y-112092668D01*
X139669010Y-112092666D01*
X139360599Y-111892382D01*
X139032934Y-111725428D01*
X138689618Y-111593641D01*
X138689611Y-111593639D01*
X138334396Y-111498459D01*
X138334392Y-111498458D01*
X138334391Y-111498458D01*
X137971179Y-111440931D01*
X137603938Y-111421685D01*
X137603936Y-111421685D01*
X137236694Y-111440931D01*
X136873483Y-111498458D01*
X136873481Y-111498458D01*
X136518255Y-111593641D01*
X136174939Y-111725428D01*
X135847275Y-111892382D01*
X135538863Y-112092666D01*
X135253074Y-112324094D01*
X135253066Y-112324101D01*
X134993038Y-112584129D01*
X134993031Y-112584137D01*
X134761603Y-112869926D01*
X134561319Y-113178338D01*
X134394365Y-113506002D01*
X134262578Y-113849318D01*
X134167395Y-114204544D01*
X134167395Y-114204546D01*
X134109868Y-114567757D01*
X134102133Y-114715355D01*
X134090622Y-114935000D01*
X104467252Y-114935000D01*
X104448006Y-114567759D01*
X104390478Y-114204541D01*
X104295298Y-113849326D01*
X104163510Y-113506006D01*
X103996557Y-113178343D01*
X103796269Y-112869925D01*
X103564839Y-112584133D01*
X103304804Y-112324098D01*
X103019012Y-112092668D01*
X103019010Y-112092666D01*
X102710599Y-111892382D01*
X102382934Y-111725428D01*
X102039618Y-111593641D01*
X102039611Y-111593639D01*
X101684396Y-111498459D01*
X101684392Y-111498458D01*
X101684391Y-111498458D01*
X101321179Y-111440931D01*
X100953938Y-111421685D01*
X100953936Y-111421685D01*
X100586694Y-111440931D01*
X100223483Y-111498458D01*
X100223481Y-111498458D01*
X99868255Y-111593641D01*
X99524939Y-111725428D01*
X99197275Y-111892382D01*
X98888863Y-112092666D01*
X98603074Y-112324094D01*
X98603066Y-112324101D01*
X98343038Y-112584129D01*
X98343031Y-112584137D01*
X98111603Y-112869926D01*
X97911319Y-113178338D01*
X97744365Y-113506002D01*
X97612578Y-113849318D01*
X97517395Y-114204544D01*
X97517395Y-114204546D01*
X97459868Y-114567757D01*
X97452133Y-114715355D01*
X97440622Y-114935000D01*
X96424127Y-114935000D01*
X96424127Y-108557236D01*
X142699222Y-108557236D01*
X142718596Y-108778691D01*
X142718597Y-108778699D01*
X142776133Y-108993425D01*
X142776134Y-108993427D01*
X142776135Y-108993430D01*
X142823111Y-109094170D01*
X142870086Y-109194910D01*
X142870087Y-109194911D01*
X142997598Y-109377015D01*
X143154794Y-109534211D01*
X143336898Y-109661722D01*
X143538379Y-109755674D01*
X143753112Y-109813212D01*
X143911299Y-109827051D01*
X143974573Y-109832587D01*
X143974575Y-109832587D01*
X143974577Y-109832587D01*
X144029940Y-109827743D01*
X144196038Y-109813212D01*
X144410771Y-109755674D01*
X144612252Y-109661722D01*
X144794356Y-109534211D01*
X144951552Y-109377015D01*
X145079063Y-109194911D01*
X145173015Y-108993430D01*
X145230553Y-108778697D01*
X145249928Y-108557234D01*
X145230553Y-108335771D01*
X145173015Y-108121038D01*
X145079063Y-107919558D01*
X145079061Y-107919555D01*
X145079060Y-107919553D01*
X144951553Y-107737454D01*
X144951550Y-107737451D01*
X144794356Y-107580257D01*
X144612252Y-107452746D01*
X144498313Y-107399615D01*
X144445874Y-107353444D01*
X144426722Y-107286251D01*
X144446938Y-107219369D01*
X144498314Y-107174852D01*
X144612252Y-107121722D01*
X144794356Y-106994211D01*
X144951552Y-106837015D01*
X144990936Y-106780769D01*
X164809946Y-106780769D01*
X164829320Y-107002224D01*
X164829321Y-107002232D01*
X164886857Y-107216958D01*
X164886858Y-107216960D01*
X164886859Y-107216963D01*
X164933834Y-107317703D01*
X164980810Y-107418443D01*
X164980811Y-107418444D01*
X165108322Y-107600548D01*
X165265518Y-107757744D01*
X165447622Y-107885255D01*
X165649103Y-107979207D01*
X165863836Y-108036745D01*
X166022023Y-108050584D01*
X166085297Y-108056120D01*
X166085299Y-108056120D01*
X166085301Y-108056120D01*
X166140664Y-108051276D01*
X166306762Y-108036745D01*
X166521495Y-107979207D01*
X166722976Y-107885255D01*
X166905080Y-107757744D01*
X167062276Y-107600548D01*
X167189787Y-107418444D01*
X167283739Y-107216963D01*
X167341277Y-107002230D01*
X167360652Y-106780767D01*
X167341277Y-106559304D01*
X167283739Y-106344571D01*
X167189787Y-106143091D01*
X167189785Y-106143088D01*
X167189784Y-106143086D01*
X167062277Y-105960987D01*
X167062274Y-105960984D01*
X166905080Y-105803790D01*
X166722976Y-105676279D01*
X166722977Y-105676279D01*
X166722975Y-105676278D01*
X166622235Y-105629302D01*
X166521495Y-105582327D01*
X166521492Y-105582326D01*
X166521490Y-105582325D01*
X166306764Y-105524789D01*
X166306756Y-105524788D01*
X166085301Y-105505414D01*
X166085297Y-105505414D01*
X165863841Y-105524788D01*
X165863834Y-105524789D01*
X165649099Y-105582328D01*
X165447622Y-105676279D01*
X165447618Y-105676281D01*
X165265516Y-105803790D01*
X165108322Y-105960984D01*
X164980813Y-106143086D01*
X164980811Y-106143090D01*
X164886860Y-106344567D01*
X164829321Y-106559302D01*
X164829320Y-106559309D01*
X164809946Y-106780764D01*
X164809946Y-106780769D01*
X144990936Y-106780769D01*
X145079063Y-106654911D01*
X145173015Y-106453430D01*
X145230553Y-106238697D01*
X145249928Y-106017234D01*
X145230553Y-105795771D01*
X145173015Y-105581038D01*
X145079063Y-105379558D01*
X145079061Y-105379555D01*
X145079060Y-105379553D01*
X144951553Y-105197454D01*
X144951550Y-105197451D01*
X144794356Y-105040257D01*
X144612252Y-104912746D01*
X144498313Y-104859615D01*
X144445874Y-104813444D01*
X144426722Y-104746251D01*
X144446938Y-104679369D01*
X144498314Y-104634852D01*
X144612252Y-104581722D01*
X144794356Y-104454211D01*
X144951552Y-104297015D01*
X145079063Y-104114911D01*
X145173015Y-103913430D01*
X145230553Y-103698697D01*
X145249928Y-103477234D01*
X145230553Y-103255771D01*
X145173015Y-103041038D01*
X145079063Y-102839558D01*
X145079061Y-102839555D01*
X145079060Y-102839553D01*
X144951553Y-102657454D01*
X144951550Y-102657451D01*
X144794356Y-102500257D01*
X144612252Y-102372746D01*
X144498313Y-102319615D01*
X144445874Y-102273444D01*
X144426722Y-102206251D01*
X144446938Y-102139369D01*
X144498314Y-102094852D01*
X144612252Y-102041722D01*
X144794356Y-101914211D01*
X144951552Y-101757015D01*
X145079063Y-101574911D01*
X145173015Y-101373430D01*
X145230553Y-101158697D01*
X145249928Y-100937234D01*
X145230553Y-100715771D01*
X145173015Y-100501038D01*
X145079063Y-100299558D01*
X145079061Y-100299555D01*
X145079060Y-100299553D01*
X144951553Y-100117454D01*
X144951550Y-100117451D01*
X144794356Y-99960257D01*
X144612252Y-99832746D01*
X144498313Y-99779615D01*
X144445874Y-99733444D01*
X144426722Y-99666251D01*
X144446938Y-99599369D01*
X144498314Y-99554852D01*
X144500023Y-99554055D01*
X144612252Y-99501722D01*
X144794356Y-99374211D01*
X144951552Y-99217015D01*
X145079063Y-99034911D01*
X145173015Y-98833430D01*
X145230553Y-98618697D01*
X145245349Y-98449569D01*
X168086546Y-98449569D01*
X168105920Y-98671024D01*
X168105921Y-98671032D01*
X168163457Y-98885758D01*
X168163458Y-98885760D01*
X168163459Y-98885763D01*
X168210434Y-98986503D01*
X168257410Y-99087243D01*
X168257411Y-99087244D01*
X168384922Y-99269348D01*
X168542118Y-99426544D01*
X168724222Y-99554055D01*
X168925703Y-99648007D01*
X169140436Y-99705545D01*
X169298623Y-99719384D01*
X169361897Y-99724920D01*
X169361899Y-99724920D01*
X169361901Y-99724920D01*
X169417264Y-99720076D01*
X169583362Y-99705545D01*
X169798095Y-99648007D01*
X169999576Y-99554055D01*
X170181680Y-99426544D01*
X170338876Y-99269348D01*
X170466387Y-99087244D01*
X170560339Y-98885763D01*
X170617877Y-98671030D01*
X170637252Y-98449567D01*
X170617877Y-98228104D01*
X170560339Y-98013371D01*
X170466387Y-97811891D01*
X170466385Y-97811888D01*
X170466384Y-97811886D01*
X170338877Y-97629787D01*
X170286541Y-97577451D01*
X170181680Y-97472590D01*
X169999576Y-97345079D01*
X169885637Y-97291948D01*
X169833198Y-97245777D01*
X169814046Y-97178584D01*
X169834262Y-97111702D01*
X169885638Y-97067185D01*
X169999576Y-97014055D01*
X170181680Y-96886544D01*
X170338876Y-96729348D01*
X170466387Y-96547244D01*
X170560339Y-96345763D01*
X170617877Y-96131030D01*
X170637252Y-95909567D01*
X170617877Y-95688104D01*
X170560339Y-95473371D01*
X170466387Y-95271891D01*
X170466385Y-95271888D01*
X170466384Y-95271886D01*
X170338877Y-95089787D01*
X170286541Y-95037451D01*
X170181680Y-94932590D01*
X169999576Y-94805079D01*
X169885637Y-94751948D01*
X169833198Y-94705777D01*
X169814046Y-94638584D01*
X169834262Y-94571702D01*
X169885638Y-94527185D01*
X169999576Y-94474055D01*
X170181680Y-94346544D01*
X170338876Y-94189348D01*
X170466387Y-94007244D01*
X170560339Y-93805763D01*
X170617877Y-93591030D01*
X170637252Y-93369567D01*
X170617877Y-93148104D01*
X170560339Y-92933371D01*
X170466387Y-92731891D01*
X170466385Y-92731888D01*
X170466384Y-92731886D01*
X170338877Y-92549787D01*
X170286541Y-92497451D01*
X170181680Y-92392590D01*
X169999576Y-92265079D01*
X169885637Y-92211948D01*
X169833198Y-92165777D01*
X169814046Y-92098584D01*
X169834262Y-92031702D01*
X169885638Y-91987185D01*
X169999576Y-91934055D01*
X170181680Y-91806544D01*
X170338876Y-91649348D01*
X170466387Y-91467244D01*
X170560339Y-91265763D01*
X170617877Y-91051030D01*
X170637252Y-90829567D01*
X170636263Y-90818268D01*
X170620374Y-90636644D01*
X170617877Y-90608104D01*
X170560339Y-90393371D01*
X170466387Y-90191891D01*
X170466385Y-90191888D01*
X170466384Y-90191886D01*
X170338877Y-90009787D01*
X170286541Y-89957451D01*
X170181680Y-89852590D01*
X169999576Y-89725079D01*
X169885637Y-89671948D01*
X169833198Y-89625777D01*
X169814046Y-89558584D01*
X169834262Y-89491702D01*
X169885638Y-89447185D01*
X169912457Y-89434679D01*
X169999576Y-89394055D01*
X170181680Y-89266544D01*
X170338876Y-89109348D01*
X170466387Y-88927244D01*
X170560339Y-88725763D01*
X170617877Y-88511030D01*
X170637252Y-88289567D01*
X170632673Y-88237233D01*
X170617877Y-88068109D01*
X170617877Y-88068104D01*
X170560339Y-87853371D01*
X170466387Y-87651891D01*
X170466385Y-87651888D01*
X170466384Y-87651886D01*
X170338877Y-87469787D01*
X170338874Y-87469784D01*
X170181680Y-87312590D01*
X170000166Y-87185492D01*
X169999575Y-87185078D01*
X169898835Y-87138103D01*
X169798095Y-87091127D01*
X169798092Y-87091126D01*
X169798090Y-87091125D01*
X169583364Y-87033589D01*
X169583356Y-87033588D01*
X169361901Y-87014214D01*
X169361897Y-87014214D01*
X169140441Y-87033588D01*
X169140434Y-87033589D01*
X168925699Y-87091128D01*
X168724222Y-87185079D01*
X168724218Y-87185081D01*
X168542116Y-87312590D01*
X168384922Y-87469784D01*
X168257413Y-87651886D01*
X168257411Y-87651890D01*
X168163460Y-87853367D01*
X168105921Y-88068102D01*
X168105920Y-88068109D01*
X168086546Y-88289564D01*
X168086546Y-88289569D01*
X168105920Y-88511024D01*
X168105921Y-88511032D01*
X168163457Y-88725758D01*
X168163458Y-88725760D01*
X168163459Y-88725763D01*
X168210434Y-88826503D01*
X168257410Y-88927243D01*
X168282913Y-88963664D01*
X168384922Y-89109348D01*
X168542118Y-89266544D01*
X168718661Y-89390161D01*
X168724222Y-89394055D01*
X168838160Y-89447185D01*
X168890599Y-89493357D01*
X168909751Y-89560551D01*
X168889535Y-89627432D01*
X168838160Y-89671949D01*
X168724222Y-89725079D01*
X168724218Y-89725081D01*
X168542116Y-89852590D01*
X168384922Y-90009784D01*
X168257413Y-90191886D01*
X168257411Y-90191890D01*
X168163460Y-90393367D01*
X168105921Y-90608102D01*
X168105920Y-90608109D01*
X168086546Y-90829564D01*
X168086546Y-90829569D01*
X168105920Y-91051024D01*
X168105921Y-91051032D01*
X168163457Y-91265758D01*
X168163458Y-91265760D01*
X168163459Y-91265763D01*
X168210434Y-91366503D01*
X168257410Y-91467243D01*
X168257411Y-91467244D01*
X168384922Y-91649348D01*
X168542118Y-91806544D01*
X168724222Y-91934055D01*
X168824947Y-91981024D01*
X168838160Y-91987185D01*
X168890599Y-92033357D01*
X168909751Y-92100551D01*
X168889535Y-92167432D01*
X168838160Y-92211949D01*
X168724222Y-92265079D01*
X168724218Y-92265081D01*
X168542116Y-92392590D01*
X168384922Y-92549784D01*
X168257413Y-92731886D01*
X168257411Y-92731890D01*
X168163460Y-92933367D01*
X168105921Y-93148102D01*
X168105920Y-93148109D01*
X168086546Y-93369564D01*
X168086546Y-93369569D01*
X168105920Y-93591024D01*
X168105921Y-93591032D01*
X168163457Y-93805758D01*
X168163458Y-93805760D01*
X168163459Y-93805763D01*
X168210434Y-93906503D01*
X168257410Y-94007243D01*
X168257411Y-94007244D01*
X168384922Y-94189348D01*
X168542118Y-94346544D01*
X168724222Y-94474055D01*
X168824947Y-94521024D01*
X168838160Y-94527185D01*
X168890599Y-94573357D01*
X168909751Y-94640551D01*
X168889535Y-94707432D01*
X168838160Y-94751949D01*
X168724222Y-94805079D01*
X168724218Y-94805081D01*
X168542116Y-94932590D01*
X168384922Y-95089784D01*
X168257413Y-95271886D01*
X168257411Y-95271890D01*
X168163460Y-95473367D01*
X168105921Y-95688102D01*
X168105920Y-95688109D01*
X168086546Y-95909564D01*
X168086546Y-95909569D01*
X168105920Y-96131024D01*
X168105921Y-96131032D01*
X168163457Y-96345758D01*
X168163458Y-96345760D01*
X168163459Y-96345763D01*
X168210434Y-96446503D01*
X168257410Y-96547243D01*
X168257411Y-96547244D01*
X168384922Y-96729348D01*
X168542118Y-96886544D01*
X168724222Y-97014055D01*
X168824947Y-97061024D01*
X168838160Y-97067185D01*
X168890599Y-97113357D01*
X168909751Y-97180551D01*
X168889535Y-97247432D01*
X168838160Y-97291949D01*
X168724222Y-97345079D01*
X168724218Y-97345081D01*
X168542116Y-97472590D01*
X168384922Y-97629784D01*
X168257413Y-97811886D01*
X168257411Y-97811890D01*
X168163460Y-98013367D01*
X168105921Y-98228102D01*
X168105920Y-98228109D01*
X168086546Y-98449564D01*
X168086546Y-98449569D01*
X145245349Y-98449569D01*
X145249928Y-98397234D01*
X145230553Y-98175771D01*
X145173015Y-97961038D01*
X145079063Y-97759558D01*
X145079061Y-97759555D01*
X145079060Y-97759553D01*
X144951553Y-97577454D01*
X144951550Y-97577451D01*
X144794356Y-97420257D01*
X144612252Y-97292746D01*
X144498313Y-97239615D01*
X144445874Y-97193444D01*
X144426722Y-97126251D01*
X144446938Y-97059369D01*
X144498314Y-97014852D01*
X144500023Y-97014055D01*
X144612252Y-96961722D01*
X144794356Y-96834211D01*
X144951552Y-96677015D01*
X145079063Y-96494911D01*
X145173015Y-96293430D01*
X145230553Y-96078697D01*
X145249928Y-95857234D01*
X145230553Y-95635771D01*
X145173015Y-95421038D01*
X145079063Y-95219558D01*
X145079061Y-95219555D01*
X145079060Y-95219553D01*
X144951553Y-95037454D01*
X144951550Y-95037451D01*
X144794356Y-94880257D01*
X144612252Y-94752746D01*
X144498313Y-94699615D01*
X144445874Y-94653444D01*
X144426722Y-94586251D01*
X144446938Y-94519369D01*
X144498314Y-94474852D01*
X144500023Y-94474055D01*
X144612252Y-94421722D01*
X144794356Y-94294211D01*
X144951552Y-94137015D01*
X145079063Y-93954911D01*
X145173015Y-93753430D01*
X145230553Y-93538697D01*
X145249928Y-93317234D01*
X145230553Y-93095771D01*
X145173015Y-92881038D01*
X145079063Y-92679558D01*
X145079061Y-92679555D01*
X145079060Y-92679553D01*
X144951553Y-92497454D01*
X144951550Y-92497451D01*
X144794356Y-92340257D01*
X144612252Y-92212746D01*
X144498313Y-92159615D01*
X144445874Y-92113444D01*
X144426722Y-92046251D01*
X144446938Y-91979369D01*
X144498314Y-91934852D01*
X144537241Y-91916700D01*
X144612252Y-91881722D01*
X144794356Y-91754211D01*
X144951552Y-91597015D01*
X145079063Y-91414911D01*
X145173015Y-91213430D01*
X145230553Y-90998697D01*
X145249928Y-90777234D01*
X145230553Y-90555771D01*
X145173015Y-90341038D01*
X145079063Y-90139558D01*
X145079061Y-90139555D01*
X145079060Y-90139553D01*
X144951553Y-89957454D01*
X144951550Y-89957451D01*
X144794356Y-89800257D01*
X144612252Y-89672746D01*
X144612253Y-89672746D01*
X144612251Y-89672745D01*
X144488257Y-89614926D01*
X144435818Y-89568753D01*
X144416666Y-89501560D01*
X144436882Y-89434679D01*
X144488259Y-89390161D01*
X144607988Y-89334331D01*
X144607995Y-89334327D01*
X144672761Y-89288976D01*
X144672762Y-89288974D01*
X144002023Y-88618234D01*
X144006144Y-88618234D01*
X144099996Y-88602573D01*
X144211826Y-88542054D01*
X144297946Y-88448503D01*
X144349023Y-88332057D01*
X144354680Y-88263786D01*
X145026315Y-88935421D01*
X145026317Y-88935420D01*
X145071668Y-88870654D01*
X145071675Y-88870642D01*
X145164994Y-88670518D01*
X145164999Y-88670504D01*
X145222148Y-88457220D01*
X145222150Y-88457210D01*
X145241396Y-88237234D01*
X145241396Y-88237233D01*
X145222150Y-88017257D01*
X145222148Y-88017247D01*
X145164999Y-87803963D01*
X145164995Y-87803954D01*
X145071673Y-87603824D01*
X145026315Y-87539045D01*
X144359478Y-88205882D01*
X144359524Y-88205336D01*
X144328309Y-88082072D01*
X144258762Y-87975622D01*
X144158418Y-87897521D01*
X144038153Y-87856234D01*
X144002022Y-87856234D01*
X144672762Y-87185492D01*
X144607984Y-87140134D01*
X144607982Y-87140133D01*
X144407859Y-87046814D01*
X144407845Y-87046809D01*
X144194561Y-86989660D01*
X144194551Y-86989658D01*
X143974576Y-86970413D01*
X143974574Y-86970413D01*
X143754598Y-86989658D01*
X143754588Y-86989660D01*
X143541304Y-87046809D01*
X143541295Y-87046813D01*
X143341161Y-87140137D01*
X143276387Y-87185491D01*
X143276386Y-87185492D01*
X143947129Y-87856234D01*
X143943006Y-87856234D01*
X143849154Y-87871895D01*
X143737324Y-87932414D01*
X143651204Y-88025965D01*
X143600127Y-88142411D01*
X143594469Y-88210681D01*
X142922833Y-87539045D01*
X142922832Y-87539046D01*
X142877478Y-87603820D01*
X142784154Y-87803954D01*
X142784150Y-87803963D01*
X142727001Y-88017247D01*
X142726999Y-88017257D01*
X142707754Y-88237233D01*
X142707754Y-88237234D01*
X142726999Y-88457210D01*
X142727001Y-88457220D01*
X142784150Y-88670504D01*
X142784155Y-88670518D01*
X142877474Y-88870641D01*
X142877475Y-88870643D01*
X142922833Y-88935421D01*
X143589671Y-88268583D01*
X143589626Y-88269132D01*
X143620841Y-88392396D01*
X143690388Y-88498846D01*
X143790732Y-88576947D01*
X143910997Y-88618234D01*
X143947128Y-88618234D01*
X143276386Y-89288975D01*
X143341157Y-89334328D01*
X143341167Y-89334334D01*
X143460891Y-89390162D01*
X143513331Y-89436334D01*
X143532483Y-89503527D01*
X143512268Y-89570408D01*
X143460893Y-89614926D01*
X143336895Y-89672748D01*
X143336894Y-89672748D01*
X143154792Y-89800257D01*
X142997598Y-89957451D01*
X142870089Y-90139553D01*
X142870087Y-90139557D01*
X142776136Y-90341034D01*
X142718597Y-90555769D01*
X142718596Y-90555776D01*
X142699222Y-90777231D01*
X142699222Y-90777236D01*
X142718596Y-90998691D01*
X142718597Y-90998699D01*
X142776133Y-91213425D01*
X142776134Y-91213427D01*
X142776135Y-91213430D01*
X142800539Y-91265764D01*
X142870086Y-91414910D01*
X142870087Y-91414911D01*
X142997598Y-91597015D01*
X143154794Y-91754211D01*
X143330146Y-91876994D01*
X143336898Y-91881722D01*
X143450836Y-91934852D01*
X143503275Y-91981024D01*
X143522427Y-92048218D01*
X143502211Y-92115099D01*
X143450836Y-92159616D01*
X143336898Y-92212746D01*
X143336894Y-92212748D01*
X143154792Y-92340257D01*
X142997598Y-92497451D01*
X142870089Y-92679553D01*
X142870087Y-92679557D01*
X142776136Y-92881034D01*
X142718597Y-93095769D01*
X142718596Y-93095776D01*
X142699222Y-93317231D01*
X142699222Y-93317236D01*
X142718596Y-93538691D01*
X142718597Y-93538699D01*
X142776133Y-93753425D01*
X142776134Y-93753427D01*
X142776135Y-93753430D01*
X142800539Y-93805764D01*
X142870086Y-93954910D01*
X142870087Y-93954911D01*
X142997598Y-94137015D01*
X143154794Y-94294211D01*
X143336897Y-94421722D01*
X143336898Y-94421722D01*
X143450836Y-94474852D01*
X143503275Y-94521024D01*
X143522427Y-94588218D01*
X143502211Y-94655099D01*
X143450836Y-94699616D01*
X143336898Y-94752746D01*
X143336894Y-94752748D01*
X143154792Y-94880257D01*
X142997598Y-95037451D01*
X142870089Y-95219553D01*
X142870087Y-95219557D01*
X142776136Y-95421034D01*
X142718597Y-95635769D01*
X142718596Y-95635776D01*
X142699222Y-95857231D01*
X142699222Y-95857236D01*
X142718596Y-96078691D01*
X142718597Y-96078699D01*
X142776133Y-96293425D01*
X142776134Y-96293427D01*
X142776135Y-96293430D01*
X142800539Y-96345764D01*
X142870086Y-96494910D01*
X142870087Y-96494911D01*
X142997598Y-96677015D01*
X143154794Y-96834211D01*
X143336898Y-96961722D01*
X143450836Y-97014852D01*
X143503275Y-97061024D01*
X143522427Y-97128218D01*
X143502211Y-97195099D01*
X143450836Y-97239616D01*
X143336898Y-97292746D01*
X143336894Y-97292748D01*
X143154792Y-97420257D01*
X142997598Y-97577451D01*
X142870089Y-97759553D01*
X142870087Y-97759557D01*
X142776136Y-97961034D01*
X142718597Y-98175769D01*
X142718596Y-98175776D01*
X142699222Y-98397231D01*
X142699222Y-98397236D01*
X142718596Y-98618691D01*
X142718597Y-98618699D01*
X142776133Y-98833425D01*
X142776134Y-98833427D01*
X142776135Y-98833430D01*
X142800539Y-98885764D01*
X142870086Y-99034910D01*
X142870087Y-99034911D01*
X142997598Y-99217015D01*
X143154794Y-99374211D01*
X143336897Y-99501721D01*
X143336898Y-99501722D01*
X143450836Y-99554852D01*
X143503275Y-99601024D01*
X143522427Y-99668218D01*
X143502211Y-99735099D01*
X143450836Y-99779616D01*
X143336898Y-99832746D01*
X143336894Y-99832748D01*
X143154792Y-99960257D01*
X142997598Y-100117451D01*
X142870089Y-100299553D01*
X142870087Y-100299557D01*
X142776136Y-100501034D01*
X142718597Y-100715769D01*
X142718596Y-100715776D01*
X142699222Y-100937231D01*
X142699222Y-100937236D01*
X142718596Y-101158691D01*
X142718597Y-101158699D01*
X142776133Y-101373425D01*
X142776134Y-101373427D01*
X142776135Y-101373430D01*
X142823111Y-101474170D01*
X142870086Y-101574910D01*
X142870087Y-101574911D01*
X142997598Y-101757015D01*
X143154794Y-101914211D01*
X143336897Y-102041721D01*
X143336898Y-102041722D01*
X143450836Y-102094852D01*
X143503275Y-102141024D01*
X143522427Y-102208218D01*
X143502211Y-102275099D01*
X143450836Y-102319616D01*
X143336898Y-102372746D01*
X143336894Y-102372748D01*
X143154792Y-102500257D01*
X142997598Y-102657451D01*
X142870089Y-102839553D01*
X142870087Y-102839557D01*
X142776136Y-103041034D01*
X142718597Y-103255769D01*
X142718596Y-103255776D01*
X142699222Y-103477231D01*
X142699222Y-103477236D01*
X142718596Y-103698691D01*
X142718597Y-103698699D01*
X142776133Y-103913425D01*
X142776134Y-103913427D01*
X142776135Y-103913430D01*
X142823111Y-104014170D01*
X142870086Y-104114910D01*
X142870087Y-104114911D01*
X142997598Y-104297015D01*
X143154794Y-104454211D01*
X143336898Y-104581722D01*
X143450836Y-104634852D01*
X143503275Y-104681024D01*
X143522427Y-104748218D01*
X143502211Y-104815099D01*
X143450836Y-104859616D01*
X143336898Y-104912746D01*
X143336894Y-104912748D01*
X143154792Y-105040257D01*
X142997598Y-105197451D01*
X142870089Y-105379553D01*
X142870087Y-105379557D01*
X142776136Y-105581034D01*
X142718597Y-105795769D01*
X142718596Y-105795776D01*
X142699222Y-106017231D01*
X142699222Y-106017236D01*
X142718596Y-106238691D01*
X142718597Y-106238699D01*
X142776133Y-106453425D01*
X142776134Y-106453427D01*
X142776135Y-106453430D01*
X142823111Y-106554170D01*
X142870086Y-106654910D01*
X142870087Y-106654911D01*
X142997598Y-106837015D01*
X143154794Y-106994211D01*
X143336897Y-107121721D01*
X143336898Y-107121722D01*
X143450836Y-107174852D01*
X143503275Y-107221024D01*
X143522427Y-107288218D01*
X143502211Y-107355099D01*
X143450836Y-107399616D01*
X143336898Y-107452746D01*
X143336894Y-107452748D01*
X143154792Y-107580257D01*
X142997598Y-107737451D01*
X142870089Y-107919553D01*
X142870087Y-107919557D01*
X142776136Y-108121034D01*
X142718597Y-108335769D01*
X142718596Y-108335776D01*
X142699222Y-108557231D01*
X142699222Y-108557236D01*
X96424127Y-108557236D01*
X96424127Y-91008200D01*
X135903033Y-91008200D01*
X135922995Y-91198128D01*
X135922996Y-91198131D01*
X135982007Y-91379749D01*
X135982010Y-91379756D01*
X136077497Y-91545144D01*
X136205284Y-91687066D01*
X136359785Y-91799318D01*
X136534249Y-91876994D01*
X136721050Y-91916700D01*
X136912024Y-91916700D01*
X137098825Y-91876994D01*
X137273289Y-91799318D01*
X137427790Y-91687066D01*
X137555577Y-91545144D01*
X137651064Y-91379756D01*
X137710079Y-91198128D01*
X137730041Y-91008200D01*
X137710079Y-90818272D01*
X137651064Y-90636644D01*
X137555577Y-90471256D01*
X137427790Y-90329334D01*
X137273289Y-90217082D01*
X137098825Y-90139406D01*
X137098823Y-90139405D01*
X136912024Y-90099700D01*
X136721050Y-90099700D01*
X136534251Y-90139405D01*
X136447016Y-90178244D01*
X136416368Y-90191890D01*
X136359783Y-90217083D01*
X136205282Y-90329335D01*
X136077496Y-90471257D01*
X135982010Y-90636643D01*
X135982007Y-90636650D01*
X135922996Y-90818268D01*
X135922995Y-90818272D01*
X135903033Y-91008200D01*
X96424127Y-91008200D01*
X96424127Y-85813900D01*
X139217733Y-85813900D01*
X139237695Y-86003828D01*
X139237696Y-86003831D01*
X139296707Y-86185449D01*
X139296710Y-86185456D01*
X139392197Y-86350844D01*
X139519984Y-86492766D01*
X139674485Y-86605018D01*
X139848949Y-86682694D01*
X140035750Y-86722400D01*
X140226724Y-86722400D01*
X140413525Y-86682694D01*
X140587989Y-86605018D01*
X140742490Y-86492766D01*
X140870277Y-86350844D01*
X140959191Y-86196840D01*
X160854117Y-86196840D01*
X160874079Y-86386768D01*
X160874080Y-86386771D01*
X160933091Y-86568389D01*
X160933094Y-86568396D01*
X161028581Y-86733784D01*
X161156368Y-86875706D01*
X161310869Y-86987958D01*
X161485333Y-87065634D01*
X161672134Y-87105340D01*
X161863108Y-87105340D01*
X162049909Y-87065634D01*
X162224373Y-86987958D01*
X162378874Y-86875706D01*
X162506661Y-86733784D01*
X162602148Y-86568396D01*
X162661163Y-86386768D01*
X162681125Y-86196840D01*
X162661163Y-86006912D01*
X162602148Y-85825284D01*
X162506661Y-85659896D01*
X162506660Y-85659894D01*
X162503893Y-85656087D01*
X162480410Y-85590282D01*
X162496231Y-85522227D01*
X162521244Y-85491038D01*
X162522982Y-85489471D01*
X162522990Y-85489466D01*
X162650777Y-85347544D01*
X162746264Y-85182156D01*
X162805279Y-85000528D01*
X162817232Y-84886800D01*
X163233433Y-84886800D01*
X163253395Y-85076728D01*
X163253396Y-85076731D01*
X163312407Y-85258349D01*
X163312410Y-85258356D01*
X163407897Y-85423744D01*
X163535684Y-85565666D01*
X163690185Y-85677918D01*
X163864649Y-85755594D01*
X164051450Y-85795300D01*
X164242424Y-85795300D01*
X164429225Y-85755594D01*
X164603689Y-85677918D01*
X164758190Y-85565666D01*
X164885977Y-85423744D01*
X164981464Y-85258356D01*
X165040479Y-85076728D01*
X165060441Y-84886800D01*
X165040479Y-84696872D01*
X164981464Y-84515244D01*
X164885977Y-84349856D01*
X164758190Y-84207934D01*
X164603689Y-84095682D01*
X164429225Y-84018006D01*
X164429223Y-84018005D01*
X164242424Y-83978300D01*
X164051450Y-83978300D01*
X163864651Y-84018005D01*
X163690183Y-84095683D01*
X163535682Y-84207935D01*
X163407896Y-84349857D01*
X163312410Y-84515243D01*
X163312407Y-84515250D01*
X163253396Y-84696868D01*
X163253395Y-84696872D01*
X163233433Y-84886800D01*
X162817232Y-84886800D01*
X162825241Y-84810600D01*
X162805279Y-84620672D01*
X162746264Y-84439044D01*
X162650777Y-84273656D01*
X162522990Y-84131734D01*
X162368489Y-84019482D01*
X162194025Y-83941806D01*
X162194023Y-83941805D01*
X162007224Y-83902100D01*
X161816250Y-83902100D01*
X161629451Y-83941805D01*
X161629448Y-83941806D01*
X161629449Y-83941806D01*
X161458303Y-84018005D01*
X161454983Y-84019483D01*
X161300482Y-84131735D01*
X161172696Y-84273657D01*
X161077210Y-84439043D01*
X161077207Y-84439050D01*
X161018196Y-84620668D01*
X161018195Y-84620672D01*
X160998233Y-84810600D01*
X161018195Y-85000528D01*
X161018196Y-85000531D01*
X161077207Y-85182149D01*
X161077210Y-85182156D01*
X161172697Y-85347544D01*
X161175469Y-85351360D01*
X161198948Y-85417167D01*
X161183122Y-85485220D01*
X161158128Y-85516389D01*
X161156368Y-85517973D01*
X161028580Y-85659897D01*
X160933094Y-85825283D01*
X160933091Y-85825290D01*
X160901571Y-85922300D01*
X160874079Y-86006912D01*
X160854117Y-86196840D01*
X140959191Y-86196840D01*
X140965764Y-86185456D01*
X141024779Y-86003828D01*
X141044741Y-85813900D01*
X141024779Y-85623972D01*
X140965764Y-85442344D01*
X140870277Y-85276956D01*
X140742490Y-85135034D01*
X140587989Y-85022782D01*
X140567815Y-85013800D01*
X151752633Y-85013800D01*
X151772595Y-85203728D01*
X151772596Y-85203731D01*
X151831607Y-85385349D01*
X151831610Y-85385356D01*
X151927097Y-85550744D01*
X152054884Y-85692666D01*
X152209385Y-85804918D01*
X152383849Y-85882594D01*
X152570650Y-85922300D01*
X152761624Y-85922300D01*
X152948425Y-85882594D01*
X153122889Y-85804918D01*
X153277390Y-85692666D01*
X153405177Y-85550744D01*
X153500664Y-85385356D01*
X153559679Y-85203728D01*
X153579641Y-85013800D01*
X153559679Y-84823872D01*
X153500664Y-84642244D01*
X153405177Y-84476856D01*
X153277390Y-84334934D01*
X153122889Y-84222682D01*
X152948425Y-84145006D01*
X152948423Y-84145005D01*
X152761624Y-84105300D01*
X152570650Y-84105300D01*
X152383851Y-84145005D01*
X152383848Y-84145006D01*
X152383849Y-84145006D01*
X152242508Y-84207935D01*
X152209383Y-84222683D01*
X152054882Y-84334935D01*
X151927096Y-84476857D01*
X151831610Y-84642243D01*
X151831607Y-84642250D01*
X151776907Y-84810600D01*
X151772595Y-84823872D01*
X151752633Y-85013800D01*
X140567815Y-85013800D01*
X140413525Y-84945106D01*
X140413523Y-84945105D01*
X140226724Y-84905400D01*
X140035750Y-84905400D01*
X139848951Y-84945105D01*
X139674483Y-85022783D01*
X139519982Y-85135035D01*
X139392196Y-85276957D01*
X139296710Y-85442343D01*
X139296707Y-85442350D01*
X139237696Y-85623968D01*
X139237695Y-85623972D01*
X139217733Y-85813900D01*
X96424127Y-85813900D01*
X96424127Y-83190790D01*
X153245443Y-83190790D01*
X153265405Y-83380718D01*
X153265406Y-83380721D01*
X153324417Y-83562339D01*
X153324420Y-83562346D01*
X153419907Y-83727734D01*
X153547694Y-83869656D01*
X153702195Y-83981908D01*
X153876659Y-84059584D01*
X154063460Y-84099290D01*
X154254434Y-84099290D01*
X154441235Y-84059584D01*
X154615699Y-83981908D01*
X154770200Y-83869656D01*
X154897987Y-83727734D01*
X154993474Y-83562346D01*
X155052489Y-83380718D01*
X155072451Y-83190790D01*
X155052489Y-83000862D01*
X154993474Y-82819234D01*
X154897987Y-82653846D01*
X154770200Y-82511924D01*
X154615699Y-82399672D01*
X154441235Y-82321996D01*
X154441233Y-82321995D01*
X154254434Y-82282290D01*
X154063460Y-82282290D01*
X153876661Y-82321995D01*
X153702193Y-82399673D01*
X153547692Y-82511925D01*
X153419906Y-82653847D01*
X153324420Y-82819233D01*
X153324417Y-82819240D01*
X153265406Y-83000858D01*
X153265405Y-83000862D01*
X153245443Y-83190790D01*
X96424127Y-83190790D01*
X96424127Y-78835000D01*
X97340622Y-78835000D01*
X97359868Y-79202242D01*
X97417395Y-79565453D01*
X97417395Y-79565455D01*
X97512578Y-79920681D01*
X97644365Y-80263997D01*
X97811319Y-80591662D01*
X98011603Y-80900073D01*
X98011605Y-80900075D01*
X98243035Y-81185867D01*
X98503070Y-81445902D01*
X98503074Y-81445905D01*
X98788863Y-81677333D01*
X99097274Y-81877617D01*
X99097279Y-81877620D01*
X99424943Y-82044573D01*
X99768263Y-82176361D01*
X100123478Y-82271541D01*
X100486696Y-82329069D01*
X100833625Y-82347250D01*
X100853936Y-82348315D01*
X100853937Y-82348315D01*
X100853938Y-82348315D01*
X100873183Y-82347306D01*
X101221178Y-82329069D01*
X101584396Y-82271541D01*
X101939611Y-82176361D01*
X102282931Y-82044573D01*
X102610595Y-81877620D01*
X102919012Y-81677332D01*
X103204804Y-81445902D01*
X103464839Y-81185867D01*
X103696269Y-80900075D01*
X103896557Y-80591658D01*
X104063510Y-80263994D01*
X104195298Y-79920674D01*
X104290478Y-79565459D01*
X104348006Y-79202241D01*
X104367252Y-78835000D01*
X133990622Y-78835000D01*
X134009868Y-79202242D01*
X134067395Y-79565453D01*
X134067395Y-79565455D01*
X134162578Y-79920681D01*
X134294365Y-80263997D01*
X134461319Y-80591662D01*
X134661603Y-80900073D01*
X134661605Y-80900075D01*
X134893035Y-81185867D01*
X135153070Y-81445902D01*
X135153074Y-81445905D01*
X135438863Y-81677333D01*
X135747274Y-81877617D01*
X135747279Y-81877620D01*
X136074943Y-82044573D01*
X136418263Y-82176361D01*
X136773478Y-82271541D01*
X137136696Y-82329069D01*
X137483625Y-82347250D01*
X137503936Y-82348315D01*
X137503937Y-82348315D01*
X137503938Y-82348315D01*
X137523184Y-82347306D01*
X137871178Y-82329069D01*
X138234396Y-82271541D01*
X138589611Y-82176361D01*
X138932931Y-82044573D01*
X139260595Y-81877620D01*
X139569012Y-81677332D01*
X139854804Y-81445902D01*
X140114839Y-81185867D01*
X140346269Y-80900075D01*
X140546557Y-80591658D01*
X140713510Y-80263994D01*
X140845298Y-79920674D01*
X140940478Y-79565459D01*
X140942483Y-79552800D01*
X148018833Y-79552800D01*
X148038795Y-79742728D01*
X148038796Y-79742731D01*
X148097807Y-79924349D01*
X148097810Y-79924356D01*
X148193297Y-80089744D01*
X148321084Y-80231666D01*
X148475585Y-80343918D01*
X148650049Y-80421594D01*
X148836850Y-80461300D01*
X149027824Y-80461300D01*
X149214625Y-80421594D01*
X149389089Y-80343918D01*
X149543590Y-80231666D01*
X149671377Y-80089744D01*
X149766864Y-79924356D01*
X149825879Y-79742728D01*
X149841628Y-79592888D01*
X166768584Y-79592888D01*
X166787958Y-79814343D01*
X166787959Y-79814351D01*
X166845495Y-80029077D01*
X166845496Y-80029079D01*
X166845497Y-80029082D01*
X166861866Y-80064185D01*
X166939448Y-80230562D01*
X166939449Y-80230563D01*
X167066960Y-80412667D01*
X167224156Y-80569863D01*
X167406260Y-80697374D01*
X167607741Y-80791326D01*
X167822474Y-80848864D01*
X167980661Y-80862703D01*
X168043935Y-80868239D01*
X168043937Y-80868239D01*
X168043939Y-80868239D01*
X168099302Y-80863395D01*
X168265400Y-80848864D01*
X168480133Y-80791326D01*
X168681614Y-80697374D01*
X168863718Y-80569863D01*
X169020914Y-80412667D01*
X169148425Y-80230563D01*
X169201555Y-80116624D01*
X169247727Y-80064185D01*
X169314920Y-80045033D01*
X169381802Y-80065249D01*
X169426318Y-80116624D01*
X169479449Y-80230563D01*
X169606960Y-80412667D01*
X169764156Y-80569863D01*
X169946260Y-80697374D01*
X170147741Y-80791326D01*
X170362474Y-80848864D01*
X170520661Y-80862703D01*
X170583935Y-80868239D01*
X170583937Y-80868239D01*
X170583939Y-80868239D01*
X170639302Y-80863395D01*
X170805400Y-80848864D01*
X171020133Y-80791326D01*
X171221614Y-80697374D01*
X171403718Y-80569863D01*
X171560914Y-80412667D01*
X171688425Y-80230563D01*
X171782377Y-80029082D01*
X171839915Y-79814349D01*
X171859290Y-79592886D01*
X171839915Y-79371423D01*
X171782377Y-79156690D01*
X171688425Y-78955210D01*
X171688423Y-78955207D01*
X171688422Y-78955205D01*
X171560915Y-78773106D01*
X171549491Y-78761682D01*
X171403718Y-78615909D01*
X171221614Y-78488398D01*
X171177353Y-78467759D01*
X171107676Y-78435268D01*
X171055236Y-78389096D01*
X171036084Y-78321903D01*
X171056300Y-78255021D01*
X171107676Y-78210504D01*
X171221614Y-78157374D01*
X171403718Y-78029863D01*
X171560914Y-77872667D01*
X171688425Y-77690563D01*
X171782377Y-77489082D01*
X171839915Y-77274349D01*
X171859290Y-77052886D01*
X171858330Y-77041918D01*
X171839915Y-76831428D01*
X171839915Y-76831423D01*
X171782377Y-76616690D01*
X171688425Y-76415210D01*
X171688423Y-76415207D01*
X171688422Y-76415205D01*
X171560915Y-76233106D01*
X171537252Y-76209443D01*
X171403718Y-76075909D01*
X171221614Y-75948398D01*
X171221615Y-75948398D01*
X171221613Y-75948397D01*
X171073325Y-75879250D01*
X171020133Y-75854446D01*
X171020130Y-75854445D01*
X171020128Y-75854444D01*
X170805402Y-75796908D01*
X170805394Y-75796907D01*
X170583939Y-75777533D01*
X170583935Y-75777533D01*
X170362479Y-75796907D01*
X170362472Y-75796908D01*
X170147737Y-75854447D01*
X169946260Y-75948398D01*
X169946256Y-75948400D01*
X169764154Y-76075909D01*
X169606960Y-76233103D01*
X169479451Y-76415205D01*
X169479449Y-76415209D01*
X169426319Y-76529147D01*
X169380146Y-76581586D01*
X169312953Y-76600738D01*
X169246072Y-76580522D01*
X169201555Y-76529147D01*
X169180564Y-76484133D01*
X169148425Y-76415210D01*
X169148423Y-76415207D01*
X169148422Y-76415205D01*
X169020915Y-76233106D01*
X168997252Y-76209443D01*
X168863718Y-76075909D01*
X168681614Y-75948398D01*
X168681615Y-75948398D01*
X168681613Y-75948397D01*
X168533325Y-75879250D01*
X168480133Y-75854446D01*
X168480130Y-75854445D01*
X168480128Y-75854444D01*
X168265402Y-75796908D01*
X168265394Y-75796907D01*
X168043939Y-75777533D01*
X168043935Y-75777533D01*
X167822479Y-75796907D01*
X167822472Y-75796908D01*
X167607737Y-75854447D01*
X167406260Y-75948398D01*
X167406256Y-75948400D01*
X167224154Y-76075909D01*
X167066960Y-76233103D01*
X166939451Y-76415205D01*
X166939449Y-76415209D01*
X166845498Y-76616686D01*
X166787959Y-76831421D01*
X166787958Y-76831428D01*
X166768584Y-77052883D01*
X166768584Y-77052888D01*
X166787958Y-77274343D01*
X166787959Y-77274351D01*
X166845495Y-77489077D01*
X166845496Y-77489079D01*
X166845497Y-77489082D01*
X166861866Y-77524185D01*
X166939448Y-77690562D01*
X166939449Y-77690563D01*
X167066960Y-77872667D01*
X167224156Y-78029863D01*
X167406259Y-78157374D01*
X167406260Y-78157374D01*
X167520198Y-78210504D01*
X167572637Y-78256676D01*
X167591789Y-78323870D01*
X167571573Y-78390751D01*
X167520198Y-78435268D01*
X167406260Y-78488398D01*
X167406256Y-78488400D01*
X167224154Y-78615909D01*
X167066960Y-78773103D01*
X166939451Y-78955205D01*
X166939449Y-78955209D01*
X166845498Y-79156686D01*
X166787959Y-79371421D01*
X166787958Y-79371428D01*
X166768584Y-79592883D01*
X166768584Y-79592888D01*
X149841628Y-79592888D01*
X149845841Y-79552800D01*
X149825879Y-79362872D01*
X149766864Y-79181244D01*
X149671377Y-79015856D01*
X149543590Y-78873934D01*
X149389089Y-78761682D01*
X149214625Y-78684006D01*
X149214623Y-78684005D01*
X149027824Y-78644300D01*
X148836850Y-78644300D01*
X148650051Y-78684005D01*
X148475583Y-78761683D01*
X148321082Y-78873935D01*
X148193296Y-79015857D01*
X148097810Y-79181243D01*
X148097807Y-79181250D01*
X148038796Y-79362868D01*
X148038795Y-79362872D01*
X148018833Y-79552800D01*
X140942483Y-79552800D01*
X140998006Y-79202241D01*
X141017252Y-78835000D01*
X140998006Y-78467759D01*
X140940478Y-78104541D01*
X140845298Y-77749326D01*
X140713510Y-77406006D01*
X140546557Y-77078343D01*
X140546554Y-77078338D01*
X140346270Y-76769926D01*
X140192893Y-76580522D01*
X140114839Y-76484133D01*
X139881506Y-76250800D01*
X141745033Y-76250800D01*
X141764995Y-76440728D01*
X141764996Y-76440731D01*
X141824007Y-76622349D01*
X141824010Y-76622356D01*
X141919497Y-76787744D01*
X142047284Y-76929666D01*
X142201785Y-77041918D01*
X142376249Y-77119594D01*
X142563050Y-77159300D01*
X142754024Y-77159300D01*
X142940825Y-77119594D01*
X143115289Y-77041918D01*
X143269790Y-76929666D01*
X143397577Y-76787744D01*
X143493064Y-76622356D01*
X143506501Y-76581000D01*
X159948308Y-76581000D01*
X159968270Y-76770928D01*
X159968271Y-76770931D01*
X160027282Y-76952549D01*
X160027285Y-76952556D01*
X160122772Y-77117944D01*
X160250559Y-77259866D01*
X160405060Y-77372118D01*
X160579524Y-77449794D01*
X160766325Y-77489500D01*
X160957299Y-77489500D01*
X161144100Y-77449794D01*
X161318564Y-77372118D01*
X161473065Y-77259866D01*
X161600852Y-77117944D01*
X161696339Y-76952556D01*
X161755354Y-76770928D01*
X161775316Y-76581000D01*
X161767307Y-76504800D01*
X162496833Y-76504800D01*
X162516795Y-76694728D01*
X162516796Y-76694731D01*
X162575807Y-76876349D01*
X162575810Y-76876356D01*
X162671297Y-77041744D01*
X162799084Y-77183666D01*
X162953585Y-77295918D01*
X163128049Y-77373594D01*
X163314850Y-77413300D01*
X163505824Y-77413300D01*
X163692625Y-77373594D01*
X163867089Y-77295918D01*
X164021590Y-77183666D01*
X164149377Y-77041744D01*
X164244864Y-76876356D01*
X164303879Y-76694728D01*
X164323841Y-76504800D01*
X164303879Y-76314872D01*
X164244864Y-76133244D01*
X164149377Y-75967856D01*
X164021590Y-75825934D01*
X163867089Y-75713682D01*
X163692625Y-75636006D01*
X163692623Y-75636005D01*
X163505824Y-75596300D01*
X163314850Y-75596300D01*
X163128051Y-75636005D01*
X163128048Y-75636006D01*
X163128049Y-75636006D01*
X162956903Y-75712205D01*
X162953583Y-75713683D01*
X162799082Y-75825935D01*
X162671296Y-75967857D01*
X162575810Y-76133243D01*
X162575807Y-76133250D01*
X162537613Y-76250800D01*
X162516795Y-76314872D01*
X162496833Y-76504800D01*
X161767307Y-76504800D01*
X161755354Y-76391072D01*
X161696339Y-76209444D01*
X161600852Y-76044056D01*
X161473065Y-75902134D01*
X161318564Y-75789882D01*
X161144100Y-75712206D01*
X161144098Y-75712205D01*
X160957299Y-75672500D01*
X160766325Y-75672500D01*
X160579526Y-75712205D01*
X160575818Y-75713856D01*
X160428689Y-75779362D01*
X160405058Y-75789883D01*
X160250557Y-75902135D01*
X160122771Y-76044057D01*
X160027285Y-76209443D01*
X160027282Y-76209450D01*
X159968271Y-76391068D01*
X159968270Y-76391072D01*
X159948308Y-76581000D01*
X143506501Y-76581000D01*
X143552079Y-76440728D01*
X143572041Y-76250800D01*
X143552079Y-76060872D01*
X143493064Y-75879244D01*
X143397577Y-75713856D01*
X143269790Y-75571934D01*
X143115289Y-75459682D01*
X142940825Y-75382006D01*
X142940823Y-75382005D01*
X142754024Y-75342300D01*
X142563050Y-75342300D01*
X142376251Y-75382005D01*
X142201783Y-75459683D01*
X142047282Y-75571935D01*
X141919496Y-75713857D01*
X141824010Y-75879243D01*
X141824007Y-75879250D01*
X141764996Y-76060868D01*
X141764995Y-76060872D01*
X141745033Y-76250800D01*
X139881506Y-76250800D01*
X139854804Y-76224098D01*
X139569012Y-75992668D01*
X139569010Y-75992666D01*
X139260599Y-75792382D01*
X138932934Y-75625428D01*
X138589618Y-75493641D01*
X138589611Y-75493639D01*
X138234396Y-75398459D01*
X138234392Y-75398458D01*
X138234391Y-75398458D01*
X137871179Y-75340931D01*
X137503938Y-75321685D01*
X137503936Y-75321685D01*
X137136694Y-75340931D01*
X136773483Y-75398458D01*
X136773481Y-75398458D01*
X136418255Y-75493641D01*
X136074939Y-75625428D01*
X135747275Y-75792382D01*
X135438863Y-75992666D01*
X135153074Y-76224094D01*
X135153066Y-76224101D01*
X134893038Y-76484129D01*
X134893031Y-76484137D01*
X134661603Y-76769926D01*
X134461319Y-77078338D01*
X134294365Y-77406002D01*
X134162578Y-77749318D01*
X134067395Y-78104544D01*
X134067395Y-78104546D01*
X134009868Y-78467757D01*
X133990622Y-78834999D01*
X133990622Y-78835000D01*
X104367252Y-78835000D01*
X104348006Y-78467759D01*
X104290478Y-78104541D01*
X104195298Y-77749326D01*
X104063510Y-77406006D01*
X103896557Y-77078343D01*
X103896554Y-77078338D01*
X103696270Y-76769926D01*
X103542893Y-76580522D01*
X103464839Y-76484133D01*
X103204804Y-76224098D01*
X102919012Y-75992668D01*
X102919010Y-75992666D01*
X102811215Y-75922664D01*
X102765712Y-75869643D01*
X102756097Y-75800438D01*
X102785424Y-75737021D01*
X102828313Y-75705391D01*
X102907089Y-75670318D01*
X103061590Y-75558066D01*
X103189377Y-75416144D01*
X103284864Y-75250756D01*
X103343879Y-75069128D01*
X103363841Y-74879200D01*
X103343879Y-74689272D01*
X103284864Y-74507644D01*
X103189377Y-74342256D01*
X103061590Y-74200334D01*
X102907089Y-74088082D01*
X102732625Y-74010406D01*
X102732623Y-74010405D01*
X102545824Y-73970700D01*
X102354850Y-73970700D01*
X102168051Y-74010405D01*
X101993583Y-74088083D01*
X101839082Y-74200335D01*
X101711296Y-74342257D01*
X101615810Y-74507643D01*
X101615807Y-74507650D01*
X101563600Y-74668327D01*
X101556795Y-74689272D01*
X101536833Y-74879200D01*
X101556795Y-75069128D01*
X101556796Y-75069131D01*
X101605580Y-75219272D01*
X101607575Y-75289113D01*
X101571495Y-75348946D01*
X101508794Y-75379774D01*
X101468251Y-75380063D01*
X101221179Y-75340931D01*
X100853938Y-75321685D01*
X100853936Y-75321685D01*
X100486694Y-75340931D01*
X100123483Y-75398458D01*
X100123481Y-75398458D01*
X99768255Y-75493641D01*
X99424939Y-75625428D01*
X99097275Y-75792382D01*
X98788863Y-75992666D01*
X98503074Y-76224094D01*
X98503066Y-76224101D01*
X98243038Y-76484129D01*
X98243031Y-76484137D01*
X98011603Y-76769926D01*
X97811319Y-77078338D01*
X97644365Y-77406002D01*
X97512578Y-77749318D01*
X97417395Y-78104544D01*
X97417395Y-78104546D01*
X97359868Y-78467757D01*
X97340622Y-78834999D01*
X97340622Y-78835000D01*
X96424127Y-78835000D01*
X96424127Y-72295563D01*
X96424197Y-72292617D01*
X96428649Y-72199891D01*
X108934463Y-72199891D01*
X108953539Y-72503115D01*
X108953540Y-72503122D01*
X108953541Y-72503126D01*
X109009511Y-72796534D01*
X109010476Y-72801589D01*
X109104367Y-73090555D01*
X109104369Y-73090560D01*
X109233733Y-73365472D01*
X109233737Y-73365478D01*
X109396537Y-73622012D01*
X109396540Y-73622016D01*
X109396541Y-73622017D01*
X109453897Y-73691349D01*
X109590221Y-73856136D01*
X109811704Y-74064121D01*
X109811714Y-74064129D01*
X110057506Y-74242707D01*
X110057511Y-74242709D01*
X110057518Y-74242715D01*
X110323775Y-74389092D01*
X110323780Y-74389094D01*
X110323782Y-74389095D01*
X110323783Y-74389096D01*
X110606274Y-74500942D01*
X110606277Y-74500943D01*
X110632400Y-74507650D01*
X110900573Y-74576504D01*
X111048137Y-74595146D01*
X111202007Y-74614585D01*
X111202013Y-74614585D01*
X111202017Y-74614586D01*
X111202019Y-74614586D01*
X111505855Y-74614586D01*
X111505857Y-74614586D01*
X111505862Y-74614585D01*
X111505866Y-74614585D01*
X111585892Y-74604474D01*
X111807301Y-74576504D01*
X112101596Y-74500943D01*
X112101599Y-74500942D01*
X112384090Y-74389096D01*
X112384091Y-74389095D01*
X112384089Y-74389095D01*
X112384099Y-74389092D01*
X112581553Y-74280540D01*
X114953437Y-74280540D01*
X114959948Y-74341088D01*
X114959948Y-74341090D01*
X114999399Y-74446858D01*
X115011048Y-74478090D01*
X115098676Y-74595147D01*
X115215733Y-74682775D01*
X115352736Y-74733875D01*
X115379987Y-74736804D01*
X115413282Y-74740385D01*
X115413299Y-74740386D01*
X117034575Y-74740386D01*
X117034591Y-74740385D01*
X117061629Y-74737477D01*
X117095138Y-74733875D01*
X117232141Y-74682775D01*
X117349198Y-74595147D01*
X117436826Y-74478090D01*
X117487926Y-74341087D01*
X117493454Y-74289671D01*
X117494436Y-74280540D01*
X117494437Y-74280523D01*
X117494437Y-74265178D01*
X117514122Y-74198139D01*
X117566926Y-74152384D01*
X117636084Y-74142440D01*
X117699640Y-74171465D01*
X117720006Y-74194048D01*
X117786960Y-74289667D01*
X117944156Y-74446863D01*
X118126260Y-74574374D01*
X118327741Y-74668326D01*
X118542474Y-74725864D01*
X118700661Y-74739703D01*
X118763935Y-74745239D01*
X118763937Y-74745239D01*
X118763939Y-74745239D01*
X118819420Y-74740385D01*
X118985400Y-74725864D01*
X119200133Y-74668326D01*
X119401614Y-74574374D01*
X119583718Y-74446863D01*
X119740914Y-74289667D01*
X119868425Y-74107563D01*
X119921555Y-73993624D01*
X119967727Y-73941185D01*
X120034920Y-73922033D01*
X120101802Y-73942249D01*
X120146318Y-73993624D01*
X120199449Y-74107563D01*
X120326960Y-74289667D01*
X120484156Y-74446863D01*
X120666260Y-74574374D01*
X120867741Y-74668326D01*
X121082474Y-74725864D01*
X121240661Y-74739703D01*
X121303935Y-74745239D01*
X121303937Y-74745239D01*
X121303939Y-74745239D01*
X121359420Y-74740385D01*
X121525400Y-74725864D01*
X121740133Y-74668326D01*
X121941614Y-74574374D01*
X122123718Y-74446863D01*
X122280914Y-74289667D01*
X122408425Y-74107563D01*
X122461555Y-73993624D01*
X122507727Y-73941185D01*
X122574920Y-73922033D01*
X122641802Y-73942249D01*
X122686318Y-73993624D01*
X122739449Y-74107563D01*
X122866960Y-74289667D01*
X123024156Y-74446863D01*
X123206260Y-74574374D01*
X123407741Y-74668326D01*
X123622474Y-74725864D01*
X123780661Y-74739703D01*
X123843935Y-74745239D01*
X123843937Y-74745239D01*
X123843939Y-74745239D01*
X123899420Y-74740385D01*
X124065400Y-74725864D01*
X124280133Y-74668326D01*
X124481614Y-74574374D01*
X124663718Y-74446863D01*
X124820914Y-74289667D01*
X124948425Y-74107563D01*
X125001555Y-73993624D01*
X125047727Y-73941185D01*
X125114920Y-73922033D01*
X125181802Y-73942249D01*
X125226318Y-73993624D01*
X125279449Y-74107563D01*
X125406960Y-74289667D01*
X125564156Y-74446863D01*
X125746260Y-74574374D01*
X125947741Y-74668326D01*
X126162474Y-74725864D01*
X126320661Y-74739703D01*
X126383935Y-74745239D01*
X126383937Y-74745239D01*
X126383939Y-74745239D01*
X126439420Y-74740385D01*
X126605400Y-74725864D01*
X126820133Y-74668326D01*
X127021614Y-74574374D01*
X127203718Y-74446863D01*
X127360914Y-74289667D01*
X127488425Y-74107563D01*
X127541555Y-73993624D01*
X127587727Y-73941185D01*
X127654920Y-73922033D01*
X127721802Y-73942249D01*
X127766318Y-73993624D01*
X127819449Y-74107563D01*
X127946960Y-74289667D01*
X128104156Y-74446863D01*
X128286260Y-74574374D01*
X128487741Y-74668326D01*
X128702474Y-74725864D01*
X128860661Y-74739703D01*
X128923935Y-74745239D01*
X128923937Y-74745239D01*
X128923939Y-74745239D01*
X128979420Y-74740385D01*
X129145400Y-74725864D01*
X129360133Y-74668326D01*
X129561614Y-74574374D01*
X129743718Y-74446863D01*
X129900914Y-74289667D01*
X130028425Y-74107563D01*
X130081555Y-73993624D01*
X130127727Y-73941185D01*
X130194920Y-73922033D01*
X130261802Y-73942249D01*
X130306318Y-73993624D01*
X130359449Y-74107563D01*
X130486960Y-74289667D01*
X130644156Y-74446863D01*
X130826260Y-74574374D01*
X131027741Y-74668326D01*
X131242474Y-74725864D01*
X131400661Y-74739703D01*
X131463935Y-74745239D01*
X131463937Y-74745239D01*
X131463939Y-74745239D01*
X131519420Y-74740385D01*
X131685400Y-74725864D01*
X131900133Y-74668326D01*
X132101614Y-74574374D01*
X132283718Y-74446863D01*
X132440914Y-74289667D01*
X132568425Y-74107563D01*
X132621555Y-73993624D01*
X132667727Y-73941185D01*
X132734920Y-73922033D01*
X132801802Y-73942249D01*
X132846318Y-73993624D01*
X132899449Y-74107563D01*
X133026960Y-74289667D01*
X133184156Y-74446863D01*
X133366260Y-74574374D01*
X133567741Y-74668326D01*
X133782474Y-74725864D01*
X133940661Y-74739703D01*
X134003935Y-74745239D01*
X134003937Y-74745239D01*
X134003939Y-74745239D01*
X134059420Y-74740385D01*
X134225400Y-74725864D01*
X134440133Y-74668326D01*
X134641614Y-74574374D01*
X134823718Y-74446863D01*
X134980914Y-74289667D01*
X135108425Y-74107563D01*
X135161555Y-73993624D01*
X135207727Y-73941185D01*
X135274920Y-73922033D01*
X135341802Y-73942249D01*
X135386318Y-73993624D01*
X135439449Y-74107563D01*
X135566960Y-74289667D01*
X135724156Y-74446863D01*
X135906260Y-74574374D01*
X136107741Y-74668326D01*
X136322474Y-74725864D01*
X136480661Y-74739703D01*
X136543935Y-74745239D01*
X136543937Y-74745239D01*
X136543939Y-74745239D01*
X136599420Y-74740385D01*
X136765400Y-74725864D01*
X136980133Y-74668326D01*
X137181614Y-74574374D01*
X137363718Y-74446863D01*
X137520914Y-74289667D01*
X137648425Y-74107563D01*
X137701555Y-73993624D01*
X137747727Y-73941185D01*
X137814920Y-73922033D01*
X137881802Y-73942249D01*
X137926318Y-73993624D01*
X137979449Y-74107563D01*
X138106960Y-74289667D01*
X138264156Y-74446863D01*
X138446260Y-74574374D01*
X138647741Y-74668326D01*
X138862474Y-74725864D01*
X139020661Y-74739703D01*
X139083935Y-74745239D01*
X139083937Y-74745239D01*
X139083939Y-74745239D01*
X139139420Y-74740385D01*
X139305400Y-74725864D01*
X139520133Y-74668326D01*
X139721614Y-74574374D01*
X139903718Y-74446863D01*
X140060914Y-74289667D01*
X140188425Y-74107563D01*
X140241555Y-73993624D01*
X140287727Y-73941185D01*
X140354920Y-73922033D01*
X140421802Y-73942249D01*
X140466318Y-73993624D01*
X140519449Y-74107563D01*
X140646960Y-74289667D01*
X140804156Y-74446863D01*
X140986260Y-74574374D01*
X141187741Y-74668326D01*
X141402474Y-74725864D01*
X141560661Y-74739703D01*
X141623935Y-74745239D01*
X141623937Y-74745239D01*
X141623939Y-74745239D01*
X141679420Y-74740385D01*
X141845400Y-74725864D01*
X142060133Y-74668326D01*
X142261614Y-74574374D01*
X142443718Y-74446863D01*
X142600914Y-74289667D01*
X142728425Y-74107563D01*
X142781555Y-73993624D01*
X142827727Y-73941185D01*
X142894920Y-73922033D01*
X142961802Y-73942249D01*
X143006318Y-73993624D01*
X143059449Y-74107563D01*
X143186960Y-74289667D01*
X143344156Y-74446863D01*
X143526260Y-74574374D01*
X143727741Y-74668326D01*
X143942474Y-74725864D01*
X144100661Y-74739703D01*
X144163935Y-74745239D01*
X144163937Y-74745239D01*
X144163939Y-74745239D01*
X144219420Y-74740385D01*
X144385400Y-74725864D01*
X144600133Y-74668326D01*
X144801614Y-74574374D01*
X144983718Y-74446863D01*
X145140914Y-74289667D01*
X145268425Y-74107563D01*
X145321555Y-73993624D01*
X145367727Y-73941185D01*
X145434920Y-73922033D01*
X145501802Y-73942249D01*
X145546318Y-73993624D01*
X145599449Y-74107563D01*
X145726960Y-74289667D01*
X145884156Y-74446863D01*
X146066260Y-74574374D01*
X146267741Y-74668326D01*
X146482474Y-74725864D01*
X146640661Y-74739703D01*
X146703935Y-74745239D01*
X146703937Y-74745239D01*
X146703939Y-74745239D01*
X146759420Y-74740385D01*
X146925400Y-74725864D01*
X147140133Y-74668326D01*
X147341614Y-74574374D01*
X147523718Y-74446863D01*
X147680914Y-74289667D01*
X147808425Y-74107563D01*
X147861555Y-73993624D01*
X147907727Y-73941185D01*
X147974920Y-73922033D01*
X148041802Y-73942249D01*
X148086318Y-73993624D01*
X148139449Y-74107563D01*
X148266960Y-74289667D01*
X148424156Y-74446863D01*
X148606260Y-74574374D01*
X148807741Y-74668326D01*
X149022474Y-74725864D01*
X149180661Y-74739703D01*
X149243935Y-74745239D01*
X149243937Y-74745239D01*
X149243939Y-74745239D01*
X149299420Y-74740385D01*
X149465400Y-74725864D01*
X149680133Y-74668326D01*
X149881614Y-74574374D01*
X150063718Y-74446863D01*
X150220914Y-74289667D01*
X150348425Y-74107563D01*
X150401555Y-73993624D01*
X150447727Y-73941185D01*
X150514920Y-73922033D01*
X150581802Y-73942249D01*
X150626318Y-73993624D01*
X150679449Y-74107563D01*
X150806960Y-74289667D01*
X150964156Y-74446863D01*
X151146260Y-74574374D01*
X151347741Y-74668326D01*
X151562474Y-74725864D01*
X151720661Y-74739703D01*
X151783935Y-74745239D01*
X151783937Y-74745239D01*
X151783939Y-74745239D01*
X151839420Y-74740385D01*
X152005400Y-74725864D01*
X152220133Y-74668326D01*
X152421614Y-74574374D01*
X152603718Y-74446863D01*
X152760914Y-74289667D01*
X152888425Y-74107563D01*
X152941555Y-73993624D01*
X152987727Y-73941185D01*
X153054920Y-73922033D01*
X153121802Y-73942249D01*
X153166318Y-73993624D01*
X153219449Y-74107563D01*
X153346960Y-74289667D01*
X153504156Y-74446863D01*
X153686260Y-74574374D01*
X153887741Y-74668326D01*
X154102474Y-74725864D01*
X154260661Y-74739703D01*
X154323935Y-74745239D01*
X154323937Y-74745239D01*
X154323939Y-74745239D01*
X154379420Y-74740385D01*
X154545400Y-74725864D01*
X154760133Y-74668326D01*
X154961614Y-74574374D01*
X155143718Y-74446863D01*
X155300914Y-74289667D01*
X155428425Y-74107563D01*
X155481555Y-73993624D01*
X155527727Y-73941185D01*
X155594920Y-73922033D01*
X155661802Y-73942249D01*
X155706318Y-73993624D01*
X155759449Y-74107563D01*
X155886960Y-74289667D01*
X156044156Y-74446863D01*
X156226260Y-74574374D01*
X156427741Y-74668326D01*
X156642474Y-74725864D01*
X156800661Y-74739703D01*
X156863935Y-74745239D01*
X156863937Y-74745239D01*
X156863939Y-74745239D01*
X156919420Y-74740385D01*
X157085400Y-74725864D01*
X157300133Y-74668326D01*
X157501614Y-74574374D01*
X157683718Y-74446863D01*
X157840914Y-74289667D01*
X157968425Y-74107563D01*
X158021555Y-73993624D01*
X158067727Y-73941185D01*
X158134920Y-73922033D01*
X158201802Y-73942249D01*
X158246318Y-73993624D01*
X158299449Y-74107563D01*
X158426960Y-74289667D01*
X158584156Y-74446863D01*
X158766260Y-74574374D01*
X158967741Y-74668326D01*
X159182474Y-74725864D01*
X159340661Y-74739703D01*
X159403935Y-74745239D01*
X159403937Y-74745239D01*
X159403939Y-74745239D01*
X159459420Y-74740385D01*
X159625400Y-74725864D01*
X159840133Y-74668326D01*
X160041614Y-74574374D01*
X160223718Y-74446863D01*
X160380914Y-74289667D01*
X160508425Y-74107563D01*
X160561555Y-73993624D01*
X160607727Y-73941185D01*
X160674920Y-73922033D01*
X160741802Y-73942249D01*
X160786318Y-73993624D01*
X160839449Y-74107563D01*
X160966960Y-74289667D01*
X161124156Y-74446863D01*
X161306260Y-74574374D01*
X161507741Y-74668326D01*
X161722474Y-74725864D01*
X161880661Y-74739703D01*
X161943935Y-74745239D01*
X161943937Y-74745239D01*
X161943939Y-74745239D01*
X161999420Y-74740385D01*
X162165400Y-74725864D01*
X162380133Y-74668326D01*
X162581614Y-74574374D01*
X162763718Y-74446863D01*
X162920914Y-74289667D01*
X163048425Y-74107563D01*
X163101555Y-73993624D01*
X163147727Y-73941185D01*
X163214920Y-73922033D01*
X163281802Y-73942249D01*
X163326318Y-73993624D01*
X163379449Y-74107563D01*
X163506960Y-74289667D01*
X163664156Y-74446863D01*
X163846260Y-74574374D01*
X164047741Y-74668326D01*
X164262474Y-74725864D01*
X164420661Y-74739703D01*
X164483935Y-74745239D01*
X164483937Y-74745239D01*
X164483939Y-74745239D01*
X164539420Y-74740385D01*
X164705400Y-74725864D01*
X164920133Y-74668326D01*
X165121614Y-74574374D01*
X165303718Y-74446863D01*
X165460914Y-74289667D01*
X165588425Y-74107563D01*
X165682377Y-73906082D01*
X165739915Y-73691349D01*
X165759290Y-73469886D01*
X165739915Y-73248423D01*
X165682377Y-73033690D01*
X165588425Y-72832210D01*
X165588423Y-72832207D01*
X165588422Y-72832205D01*
X165460915Y-72650106D01*
X165409490Y-72598681D01*
X165303718Y-72492909D01*
X165121614Y-72365398D01*
X165007675Y-72312267D01*
X164955236Y-72266096D01*
X164936084Y-72198903D01*
X164956300Y-72132021D01*
X165007676Y-72087504D01*
X165017736Y-72082813D01*
X165121614Y-72034374D01*
X165303718Y-71906863D01*
X165460914Y-71749667D01*
X165588425Y-71567563D01*
X165682377Y-71366082D01*
X165739915Y-71151349D01*
X165759290Y-70929886D01*
X165739915Y-70708423D01*
X165682377Y-70493690D01*
X165588425Y-70292210D01*
X165588422Y-70292206D01*
X165588422Y-70292205D01*
X165581136Y-70281800D01*
X165951233Y-70281800D01*
X165971195Y-70471728D01*
X165971196Y-70471731D01*
X166030207Y-70653349D01*
X166030210Y-70653356D01*
X166125697Y-70818744D01*
X166253484Y-70960666D01*
X166407985Y-71072918D01*
X166582449Y-71150594D01*
X166769250Y-71190300D01*
X166966723Y-71190300D01*
X166966723Y-71191678D01*
X167028292Y-71202933D01*
X167079319Y-71250661D01*
X167096442Y-71318400D01*
X167090463Y-71352007D01*
X167010476Y-71598182D01*
X166953540Y-71896649D01*
X166953539Y-71896656D01*
X166934463Y-72199880D01*
X166934463Y-72199891D01*
X166953539Y-72503115D01*
X166953540Y-72503122D01*
X166953541Y-72503126D01*
X167009511Y-72796534D01*
X167010476Y-72801589D01*
X167104367Y-73090555D01*
X167104369Y-73090560D01*
X167233733Y-73365472D01*
X167233737Y-73365478D01*
X167396537Y-73622012D01*
X167396540Y-73622016D01*
X167396541Y-73622017D01*
X167453897Y-73691349D01*
X167590221Y-73856136D01*
X167811704Y-74064121D01*
X167811714Y-74064129D01*
X168057506Y-74242707D01*
X168057511Y-74242709D01*
X168057518Y-74242715D01*
X168323775Y-74389092D01*
X168323780Y-74389094D01*
X168323782Y-74389095D01*
X168323783Y-74389096D01*
X168606274Y-74500942D01*
X168606277Y-74500943D01*
X168632400Y-74507650D01*
X168900573Y-74576504D01*
X169048137Y-74595146D01*
X169202007Y-74614585D01*
X169202013Y-74614585D01*
X169202017Y-74614586D01*
X169202019Y-74614586D01*
X169505855Y-74614586D01*
X169505857Y-74614586D01*
X169505862Y-74614585D01*
X169505866Y-74614585D01*
X169585892Y-74604474D01*
X169807301Y-74576504D01*
X170101596Y-74500943D01*
X170101599Y-74500942D01*
X170384090Y-74389096D01*
X170384091Y-74389095D01*
X170384089Y-74389095D01*
X170384099Y-74389092D01*
X170650356Y-74242715D01*
X170896168Y-74064123D01*
X171117658Y-73856130D01*
X171311333Y-73622017D01*
X171474138Y-73365476D01*
X171603507Y-73090554D01*
X171697399Y-72801585D01*
X171754333Y-72503126D01*
X171754976Y-72492909D01*
X171773411Y-72199891D01*
X171773411Y-72199880D01*
X171754334Y-71896656D01*
X171754333Y-71896649D01*
X171754333Y-71896646D01*
X171697399Y-71598187D01*
X171603507Y-71309218D01*
X171603504Y-71309211D01*
X171474140Y-71034299D01*
X171474136Y-71034293D01*
X171311336Y-70777759D01*
X171260811Y-70716685D01*
X171117658Y-70543642D01*
X171117657Y-70543641D01*
X171117652Y-70543635D01*
X170896169Y-70335650D01*
X170896159Y-70335642D01*
X170650367Y-70157064D01*
X170650360Y-70157059D01*
X170650356Y-70157057D01*
X170384099Y-70010680D01*
X170384096Y-70010678D01*
X170384091Y-70010676D01*
X170384090Y-70010675D01*
X170101599Y-69898829D01*
X170101596Y-69898828D01*
X169807298Y-69823267D01*
X169505866Y-69785186D01*
X169505857Y-69785186D01*
X169202017Y-69785186D01*
X169202007Y-69785186D01*
X168900575Y-69823267D01*
X168606277Y-69898828D01*
X168606274Y-69898829D01*
X168323783Y-70010675D01*
X168323782Y-70010676D01*
X168057518Y-70157057D01*
X168057516Y-70157057D01*
X167959628Y-70228177D01*
X167893821Y-70251656D01*
X167825767Y-70235830D01*
X167777073Y-70185724D01*
X167763424Y-70140824D01*
X167758279Y-70091872D01*
X167699264Y-69910244D01*
X167603777Y-69744856D01*
X167475990Y-69602934D01*
X167321489Y-69490682D01*
X167147025Y-69413006D01*
X167147023Y-69413005D01*
X166960224Y-69373300D01*
X166769250Y-69373300D01*
X166582451Y-69413005D01*
X166407983Y-69490683D01*
X166253482Y-69602935D01*
X166125696Y-69744857D01*
X166030210Y-69910243D01*
X166030207Y-69910250D01*
X165971196Y-70091868D01*
X165971195Y-70091872D01*
X165951233Y-70281800D01*
X165581136Y-70281800D01*
X165460915Y-70110106D01*
X165411733Y-70060924D01*
X165303718Y-69952909D01*
X165163614Y-69854807D01*
X165121613Y-69825397D01*
X165020873Y-69778422D01*
X164920133Y-69731446D01*
X164920130Y-69731445D01*
X164920128Y-69731444D01*
X164705402Y-69673908D01*
X164705394Y-69673907D01*
X164483939Y-69654533D01*
X164483935Y-69654533D01*
X164262479Y-69673907D01*
X164262472Y-69673908D01*
X164047737Y-69731447D01*
X163846260Y-69825398D01*
X163846256Y-69825400D01*
X163664154Y-69952909D01*
X163506960Y-70110103D01*
X163379451Y-70292205D01*
X163379449Y-70292209D01*
X163326319Y-70406147D01*
X163280146Y-70458586D01*
X163212953Y-70477738D01*
X163146072Y-70457522D01*
X163101555Y-70406147D01*
X163068681Y-70335649D01*
X163048425Y-70292210D01*
X163048422Y-70292206D01*
X163048422Y-70292205D01*
X162920915Y-70110106D01*
X162871733Y-70060924D01*
X162763718Y-69952909D01*
X162623614Y-69854807D01*
X162581613Y-69825397D01*
X162480873Y-69778422D01*
X162380133Y-69731446D01*
X162380130Y-69731445D01*
X162380128Y-69731444D01*
X162165402Y-69673908D01*
X162165394Y-69673907D01*
X161943939Y-69654533D01*
X161943935Y-69654533D01*
X161722479Y-69673907D01*
X161722472Y-69673908D01*
X161507737Y-69731447D01*
X161306260Y-69825398D01*
X161306256Y-69825400D01*
X161124154Y-69952909D01*
X160966960Y-70110103D01*
X160839451Y-70292205D01*
X160839449Y-70292209D01*
X160786319Y-70406147D01*
X160740146Y-70458586D01*
X160672953Y-70477738D01*
X160606072Y-70457522D01*
X160561555Y-70406147D01*
X160528681Y-70335649D01*
X160508425Y-70292210D01*
X160508422Y-70292206D01*
X160508422Y-70292205D01*
X160380915Y-70110106D01*
X160331733Y-70060924D01*
X160223718Y-69952909D01*
X160083614Y-69854807D01*
X160041613Y-69825397D01*
X159940873Y-69778422D01*
X159840133Y-69731446D01*
X159840130Y-69731445D01*
X159840128Y-69731444D01*
X159625402Y-69673908D01*
X159625394Y-69673907D01*
X159403939Y-69654533D01*
X159403935Y-69654533D01*
X159182479Y-69673907D01*
X159182472Y-69673908D01*
X158967737Y-69731447D01*
X158766260Y-69825398D01*
X158766256Y-69825400D01*
X158584154Y-69952909D01*
X158426960Y-70110103D01*
X158299451Y-70292205D01*
X158299449Y-70292209D01*
X158246319Y-70406147D01*
X158200146Y-70458586D01*
X158132953Y-70477738D01*
X158066072Y-70457522D01*
X158021555Y-70406147D01*
X157988681Y-70335649D01*
X157968425Y-70292210D01*
X157968422Y-70292206D01*
X157968422Y-70292205D01*
X157840915Y-70110106D01*
X157791733Y-70060924D01*
X157683718Y-69952909D01*
X157543614Y-69854807D01*
X157501613Y-69825397D01*
X157400873Y-69778422D01*
X157300133Y-69731446D01*
X157300130Y-69731445D01*
X157300128Y-69731444D01*
X157085402Y-69673908D01*
X157085394Y-69673907D01*
X156863939Y-69654533D01*
X156863935Y-69654533D01*
X156642479Y-69673907D01*
X156642472Y-69673908D01*
X156427737Y-69731447D01*
X156226260Y-69825398D01*
X156226256Y-69825400D01*
X156044154Y-69952909D01*
X155886960Y-70110103D01*
X155759451Y-70292205D01*
X155759449Y-70292209D01*
X155706319Y-70406147D01*
X155660146Y-70458586D01*
X155592953Y-70477738D01*
X155526072Y-70457522D01*
X155481555Y-70406147D01*
X155448681Y-70335649D01*
X155428425Y-70292210D01*
X155428422Y-70292206D01*
X155428422Y-70292205D01*
X155300915Y-70110106D01*
X155251733Y-70060924D01*
X155143718Y-69952909D01*
X155003614Y-69854807D01*
X154961613Y-69825397D01*
X154860873Y-69778422D01*
X154760133Y-69731446D01*
X154760130Y-69731445D01*
X154760128Y-69731444D01*
X154545402Y-69673908D01*
X154545394Y-69673907D01*
X154323939Y-69654533D01*
X154323935Y-69654533D01*
X154102479Y-69673907D01*
X154102472Y-69673908D01*
X153887737Y-69731447D01*
X153686260Y-69825398D01*
X153686256Y-69825400D01*
X153504154Y-69952909D01*
X153346960Y-70110103D01*
X153219451Y-70292205D01*
X153219449Y-70292209D01*
X153166319Y-70406147D01*
X153120146Y-70458586D01*
X153052953Y-70477738D01*
X152986072Y-70457522D01*
X152941555Y-70406147D01*
X152908681Y-70335649D01*
X152888425Y-70292210D01*
X152888422Y-70292206D01*
X152888422Y-70292205D01*
X152760915Y-70110106D01*
X152711733Y-70060924D01*
X152603718Y-69952909D01*
X152463614Y-69854807D01*
X152421613Y-69825397D01*
X152320873Y-69778422D01*
X152220133Y-69731446D01*
X152220130Y-69731445D01*
X152220128Y-69731444D01*
X152005402Y-69673908D01*
X152005394Y-69673907D01*
X151783939Y-69654533D01*
X151783935Y-69654533D01*
X151562479Y-69673907D01*
X151562472Y-69673908D01*
X151347737Y-69731447D01*
X151146260Y-69825398D01*
X151146256Y-69825400D01*
X150964154Y-69952909D01*
X150806960Y-70110103D01*
X150679451Y-70292205D01*
X150679449Y-70292209D01*
X150626319Y-70406147D01*
X150580146Y-70458586D01*
X150512953Y-70477738D01*
X150446072Y-70457522D01*
X150401555Y-70406147D01*
X150368681Y-70335649D01*
X150348425Y-70292210D01*
X150348422Y-70292206D01*
X150348422Y-70292205D01*
X150220915Y-70110106D01*
X150171733Y-70060924D01*
X150063718Y-69952909D01*
X149923614Y-69854807D01*
X149881613Y-69825397D01*
X149780873Y-69778422D01*
X149680133Y-69731446D01*
X149680130Y-69731445D01*
X149680128Y-69731444D01*
X149465402Y-69673908D01*
X149465394Y-69673907D01*
X149243939Y-69654533D01*
X149243935Y-69654533D01*
X149022479Y-69673907D01*
X149022472Y-69673908D01*
X148807737Y-69731447D01*
X148606260Y-69825398D01*
X148606256Y-69825400D01*
X148424154Y-69952909D01*
X148266960Y-70110103D01*
X148139451Y-70292205D01*
X148139449Y-70292209D01*
X148086319Y-70406147D01*
X148040146Y-70458586D01*
X147972953Y-70477738D01*
X147906072Y-70457522D01*
X147861555Y-70406147D01*
X147828681Y-70335649D01*
X147808425Y-70292210D01*
X147808422Y-70292206D01*
X147808422Y-70292205D01*
X147680915Y-70110106D01*
X147631733Y-70060924D01*
X147523718Y-69952909D01*
X147383614Y-69854807D01*
X147341613Y-69825397D01*
X147240873Y-69778422D01*
X147140133Y-69731446D01*
X147140130Y-69731445D01*
X147140128Y-69731444D01*
X146925402Y-69673908D01*
X146925394Y-69673907D01*
X146703939Y-69654533D01*
X146703935Y-69654533D01*
X146482479Y-69673907D01*
X146482472Y-69673908D01*
X146267737Y-69731447D01*
X146066260Y-69825398D01*
X146066256Y-69825400D01*
X145884154Y-69952909D01*
X145726960Y-70110103D01*
X145599451Y-70292205D01*
X145599449Y-70292209D01*
X145546319Y-70406147D01*
X145500146Y-70458586D01*
X145432953Y-70477738D01*
X145366072Y-70457522D01*
X145321555Y-70406147D01*
X145288681Y-70335649D01*
X145268425Y-70292210D01*
X145268422Y-70292206D01*
X145268422Y-70292205D01*
X145140915Y-70110106D01*
X145091733Y-70060924D01*
X144983718Y-69952909D01*
X144843614Y-69854807D01*
X144801613Y-69825397D01*
X144700873Y-69778422D01*
X144600133Y-69731446D01*
X144600130Y-69731445D01*
X144600128Y-69731444D01*
X144385402Y-69673908D01*
X144385394Y-69673907D01*
X144163939Y-69654533D01*
X144163935Y-69654533D01*
X143942479Y-69673907D01*
X143942472Y-69673908D01*
X143727737Y-69731447D01*
X143526260Y-69825398D01*
X143526256Y-69825400D01*
X143344154Y-69952909D01*
X143186960Y-70110103D01*
X143059451Y-70292205D01*
X143059449Y-70292209D01*
X143006319Y-70406147D01*
X142960146Y-70458586D01*
X142892953Y-70477738D01*
X142826072Y-70457522D01*
X142781555Y-70406147D01*
X142748681Y-70335649D01*
X142728425Y-70292210D01*
X142728422Y-70292206D01*
X142728422Y-70292205D01*
X142600915Y-70110106D01*
X142551733Y-70060924D01*
X142443718Y-69952909D01*
X142303614Y-69854807D01*
X142261613Y-69825397D01*
X142160873Y-69778422D01*
X142060133Y-69731446D01*
X142060130Y-69731445D01*
X142060128Y-69731444D01*
X141845402Y-69673908D01*
X141845394Y-69673907D01*
X141623939Y-69654533D01*
X141623935Y-69654533D01*
X141402479Y-69673907D01*
X141402472Y-69673908D01*
X141187737Y-69731447D01*
X140986260Y-69825398D01*
X140986256Y-69825400D01*
X140804154Y-69952909D01*
X140646960Y-70110103D01*
X140519451Y-70292205D01*
X140519449Y-70292209D01*
X140466319Y-70406147D01*
X140420146Y-70458586D01*
X140352953Y-70477738D01*
X140286072Y-70457522D01*
X140241555Y-70406147D01*
X140208681Y-70335649D01*
X140188425Y-70292210D01*
X140188422Y-70292206D01*
X140188422Y-70292205D01*
X140060915Y-70110106D01*
X140011733Y-70060924D01*
X139903718Y-69952909D01*
X139763614Y-69854807D01*
X139721613Y-69825397D01*
X139620873Y-69778422D01*
X139520133Y-69731446D01*
X139520130Y-69731445D01*
X139520128Y-69731444D01*
X139305402Y-69673908D01*
X139305394Y-69673907D01*
X139083939Y-69654533D01*
X139083935Y-69654533D01*
X138862479Y-69673907D01*
X138862472Y-69673908D01*
X138647737Y-69731447D01*
X138446260Y-69825398D01*
X138446256Y-69825400D01*
X138264154Y-69952909D01*
X138106960Y-70110103D01*
X137979451Y-70292205D01*
X137979449Y-70292209D01*
X137926319Y-70406147D01*
X137880146Y-70458586D01*
X137812953Y-70477738D01*
X137746072Y-70457522D01*
X137701555Y-70406147D01*
X137668681Y-70335649D01*
X137648425Y-70292210D01*
X137648422Y-70292206D01*
X137648422Y-70292205D01*
X137520915Y-70110106D01*
X137471733Y-70060924D01*
X137363718Y-69952909D01*
X137223614Y-69854807D01*
X137181613Y-69825397D01*
X137080873Y-69778422D01*
X136980133Y-69731446D01*
X136980130Y-69731445D01*
X136980128Y-69731444D01*
X136765402Y-69673908D01*
X136765394Y-69673907D01*
X136543939Y-69654533D01*
X136543935Y-69654533D01*
X136322479Y-69673907D01*
X136322472Y-69673908D01*
X136107737Y-69731447D01*
X135906260Y-69825398D01*
X135906256Y-69825400D01*
X135724154Y-69952909D01*
X135566960Y-70110103D01*
X135439451Y-70292205D01*
X135439449Y-70292209D01*
X135386319Y-70406147D01*
X135340146Y-70458586D01*
X135272953Y-70477738D01*
X135206072Y-70457522D01*
X135161555Y-70406147D01*
X135128681Y-70335649D01*
X135108425Y-70292210D01*
X135108422Y-70292206D01*
X135108422Y-70292205D01*
X134980915Y-70110106D01*
X134931733Y-70060924D01*
X134823718Y-69952909D01*
X134683614Y-69854807D01*
X134641613Y-69825397D01*
X134540873Y-69778422D01*
X134440133Y-69731446D01*
X134440130Y-69731445D01*
X134440128Y-69731444D01*
X134225402Y-69673908D01*
X134225394Y-69673907D01*
X134003939Y-69654533D01*
X134003935Y-69654533D01*
X133782479Y-69673907D01*
X133782472Y-69673908D01*
X133567737Y-69731447D01*
X133366260Y-69825398D01*
X133366256Y-69825400D01*
X133184154Y-69952909D01*
X133026960Y-70110103D01*
X132899451Y-70292205D01*
X132899449Y-70292209D01*
X132846319Y-70406147D01*
X132800146Y-70458586D01*
X132732953Y-70477738D01*
X132666072Y-70457522D01*
X132621555Y-70406147D01*
X132588681Y-70335649D01*
X132568425Y-70292210D01*
X132568422Y-70292206D01*
X132568422Y-70292205D01*
X132440915Y-70110106D01*
X132391733Y-70060924D01*
X132283718Y-69952909D01*
X132143614Y-69854807D01*
X132101613Y-69825397D01*
X132000873Y-69778421D01*
X131900133Y-69731446D01*
X131900130Y-69731445D01*
X131900128Y-69731444D01*
X131685402Y-69673908D01*
X131685394Y-69673907D01*
X131463939Y-69654533D01*
X131463935Y-69654533D01*
X131242479Y-69673907D01*
X131242472Y-69673908D01*
X131027737Y-69731447D01*
X130826260Y-69825398D01*
X130826256Y-69825400D01*
X130644154Y-69952909D01*
X130486960Y-70110103D01*
X130359451Y-70292205D01*
X130359449Y-70292209D01*
X130306319Y-70406147D01*
X130260146Y-70458586D01*
X130192953Y-70477738D01*
X130126072Y-70457522D01*
X130081555Y-70406147D01*
X130048681Y-70335649D01*
X130028425Y-70292210D01*
X130028422Y-70292206D01*
X130028422Y-70292205D01*
X129900915Y-70110106D01*
X129851733Y-70060924D01*
X129743718Y-69952909D01*
X129603614Y-69854807D01*
X129561613Y-69825397D01*
X129460873Y-69778421D01*
X129360133Y-69731446D01*
X129360130Y-69731445D01*
X129360128Y-69731444D01*
X129145402Y-69673908D01*
X129145394Y-69673907D01*
X128923939Y-69654533D01*
X128923935Y-69654533D01*
X128702479Y-69673907D01*
X128702472Y-69673908D01*
X128487737Y-69731447D01*
X128286260Y-69825398D01*
X128286256Y-69825400D01*
X128104154Y-69952909D01*
X127946960Y-70110103D01*
X127819451Y-70292205D01*
X127819449Y-70292209D01*
X127766319Y-70406147D01*
X127720146Y-70458586D01*
X127652953Y-70477738D01*
X127586072Y-70457522D01*
X127541555Y-70406147D01*
X127508681Y-70335649D01*
X127488425Y-70292210D01*
X127488422Y-70292206D01*
X127488422Y-70292205D01*
X127360915Y-70110106D01*
X127311733Y-70060924D01*
X127203718Y-69952909D01*
X127063614Y-69854807D01*
X127021613Y-69825397D01*
X126920873Y-69778421D01*
X126820133Y-69731446D01*
X126820130Y-69731445D01*
X126820128Y-69731444D01*
X126605402Y-69673908D01*
X126605394Y-69673907D01*
X126383939Y-69654533D01*
X126383935Y-69654533D01*
X126162479Y-69673907D01*
X126162472Y-69673908D01*
X125947737Y-69731447D01*
X125746260Y-69825398D01*
X125746256Y-69825400D01*
X125564154Y-69952909D01*
X125406960Y-70110103D01*
X125279451Y-70292205D01*
X125279449Y-70292209D01*
X125226319Y-70406147D01*
X125180146Y-70458586D01*
X125112953Y-70477738D01*
X125046072Y-70457522D01*
X125001555Y-70406147D01*
X124968681Y-70335649D01*
X124948425Y-70292210D01*
X124948422Y-70292206D01*
X124948422Y-70292205D01*
X124820915Y-70110106D01*
X124771733Y-70060924D01*
X124663718Y-69952909D01*
X124523614Y-69854807D01*
X124481613Y-69825397D01*
X124380873Y-69778421D01*
X124280133Y-69731446D01*
X124280130Y-69731445D01*
X124280128Y-69731444D01*
X124065402Y-69673908D01*
X124065394Y-69673907D01*
X123843939Y-69654533D01*
X123843935Y-69654533D01*
X123622479Y-69673907D01*
X123622472Y-69673908D01*
X123407737Y-69731447D01*
X123206260Y-69825398D01*
X123206256Y-69825400D01*
X123024154Y-69952909D01*
X122866960Y-70110103D01*
X122739451Y-70292205D01*
X122739449Y-70292209D01*
X122686319Y-70406147D01*
X122640146Y-70458586D01*
X122572953Y-70477738D01*
X122506072Y-70457522D01*
X122461555Y-70406147D01*
X122428681Y-70335649D01*
X122408425Y-70292210D01*
X122408422Y-70292206D01*
X122408422Y-70292205D01*
X122280915Y-70110106D01*
X122231733Y-70060924D01*
X122123718Y-69952909D01*
X121983614Y-69854807D01*
X121941613Y-69825397D01*
X121840873Y-69778421D01*
X121740133Y-69731446D01*
X121740130Y-69731445D01*
X121740128Y-69731444D01*
X121525402Y-69673908D01*
X121525394Y-69673907D01*
X121303939Y-69654533D01*
X121303935Y-69654533D01*
X121082479Y-69673907D01*
X121082472Y-69673908D01*
X120867737Y-69731447D01*
X120666260Y-69825398D01*
X120666256Y-69825400D01*
X120484154Y-69952909D01*
X120326960Y-70110103D01*
X120199451Y-70292205D01*
X120199451Y-70292206D01*
X120141629Y-70416204D01*
X120095456Y-70468643D01*
X120028262Y-70487794D01*
X119961381Y-70467578D01*
X119916865Y-70416202D01*
X119861037Y-70296479D01*
X119861036Y-70296477D01*
X119815677Y-70231697D01*
X119253458Y-70793915D01*
X119230782Y-70716685D01*
X119151806Y-70593796D01*
X119041407Y-70498134D01*
X118908529Y-70437451D01*
X118903536Y-70436733D01*
X119462124Y-69878144D01*
X119397346Y-69832786D01*
X119397344Y-69832785D01*
X119197221Y-69739466D01*
X119197207Y-69739461D01*
X118983923Y-69682312D01*
X118983913Y-69682310D01*
X118763938Y-69663065D01*
X118763936Y-69663065D01*
X118543960Y-69682310D01*
X118543950Y-69682312D01*
X118330666Y-69739461D01*
X118330657Y-69739465D01*
X118130523Y-69832789D01*
X118065749Y-69878143D01*
X118065748Y-69878144D01*
X118624337Y-70436733D01*
X118619345Y-70437451D01*
X118486467Y-70498134D01*
X118376068Y-70593796D01*
X118297092Y-70716685D01*
X118274414Y-70793916D01*
X117712195Y-70231697D01*
X117712194Y-70231698D01*
X117666840Y-70296472D01*
X117606319Y-70426259D01*
X117560146Y-70478698D01*
X117492953Y-70497850D01*
X117426072Y-70477634D01*
X117381555Y-70426259D01*
X117321036Y-70296476D01*
X117275677Y-70231697D01*
X116713458Y-70793915D01*
X116690782Y-70716685D01*
X116611806Y-70593796D01*
X116501407Y-70498134D01*
X116368529Y-70437451D01*
X116363536Y-70436733D01*
X116922124Y-69878144D01*
X116857346Y-69832786D01*
X116857344Y-69832785D01*
X116657221Y-69739466D01*
X116657207Y-69739461D01*
X116443923Y-69682312D01*
X116443913Y-69682310D01*
X116223938Y-69663065D01*
X116223936Y-69663065D01*
X116003960Y-69682310D01*
X116003950Y-69682312D01*
X115790666Y-69739461D01*
X115790657Y-69739465D01*
X115590523Y-69832789D01*
X115525749Y-69878143D01*
X115525748Y-69878144D01*
X116084337Y-70436733D01*
X116079345Y-70437451D01*
X115946467Y-70498134D01*
X115836068Y-70593796D01*
X115757092Y-70716685D01*
X115734414Y-70793916D01*
X115172195Y-70231697D01*
X115172194Y-70231698D01*
X115126840Y-70296472D01*
X115033516Y-70496606D01*
X115033512Y-70496615D01*
X114976363Y-70709899D01*
X114976361Y-70709909D01*
X114957116Y-70929885D01*
X114957116Y-70929886D01*
X114976361Y-71149862D01*
X114976363Y-71149872D01*
X115033512Y-71363156D01*
X115033517Y-71363170D01*
X115126836Y-71563293D01*
X115126837Y-71563295D01*
X115172195Y-71628073D01*
X115734414Y-71065854D01*
X115757092Y-71143087D01*
X115836068Y-71265976D01*
X115946467Y-71361638D01*
X116079345Y-71422321D01*
X116084337Y-71423038D01*
X115525748Y-71981627D01*
X115526352Y-71988531D01*
X115558212Y-72028389D01*
X115565404Y-72097887D01*
X115533881Y-72160242D01*
X115473651Y-72195655D01*
X115443463Y-72199386D01*
X115413282Y-72199386D01*
X115352734Y-72205897D01*
X115352732Y-72205897D01*
X115215732Y-72256997D01*
X115098676Y-72344625D01*
X115011048Y-72461681D01*
X114959948Y-72598681D01*
X114959948Y-72598683D01*
X114953437Y-72659231D01*
X114953437Y-74280540D01*
X112581553Y-74280540D01*
X112650356Y-74242715D01*
X112896168Y-74064123D01*
X113117658Y-73856130D01*
X113311333Y-73622017D01*
X113474138Y-73365476D01*
X113603507Y-73090554D01*
X113697399Y-72801585D01*
X113754333Y-72503126D01*
X113754976Y-72492909D01*
X113773411Y-72199891D01*
X113773411Y-72199880D01*
X113754334Y-71896656D01*
X113754333Y-71896649D01*
X113754333Y-71896646D01*
X113697399Y-71598187D01*
X113603507Y-71309218D01*
X113603504Y-71309211D01*
X113474140Y-71034299D01*
X113474136Y-71034293D01*
X113311336Y-70777759D01*
X113260811Y-70716685D01*
X113117658Y-70543642D01*
X113117657Y-70543641D01*
X113117652Y-70543635D01*
X112896169Y-70335650D01*
X112896159Y-70335642D01*
X112650367Y-70157064D01*
X112650360Y-70157059D01*
X112650356Y-70157057D01*
X112384099Y-70010680D01*
X112384096Y-70010678D01*
X112384091Y-70010676D01*
X112384090Y-70010675D01*
X112101599Y-69898829D01*
X112101596Y-69898828D01*
X111807298Y-69823267D01*
X111505866Y-69785186D01*
X111505857Y-69785186D01*
X111202017Y-69785186D01*
X111202007Y-69785186D01*
X110900575Y-69823267D01*
X110606277Y-69898828D01*
X110606274Y-69898829D01*
X110323783Y-70010675D01*
X110323782Y-70010676D01*
X110057518Y-70157057D01*
X110057506Y-70157064D01*
X109811714Y-70335642D01*
X109811704Y-70335650D01*
X109590221Y-70543635D01*
X109396537Y-70777759D01*
X109233737Y-71034293D01*
X109233733Y-71034299D01*
X109104369Y-71309211D01*
X109104367Y-71309216D01*
X109010476Y-71598182D01*
X108953540Y-71896649D01*
X108953539Y-71896656D01*
X108934463Y-72199880D01*
X108934463Y-72199891D01*
X96428649Y-72199891D01*
X96431691Y-72136531D01*
X96432185Y-72126897D01*
X96441402Y-71946814D01*
X96441954Y-71941166D01*
X96466934Y-71768801D01*
X96493842Y-71594905D01*
X96494883Y-71589676D01*
X96536869Y-71418007D01*
X96580846Y-71249893D01*
X96582273Y-71245208D01*
X96640881Y-71077293D01*
X96656978Y-71034293D01*
X96701549Y-70915228D01*
X96703285Y-70911063D01*
X96777982Y-70748942D01*
X96854784Y-70594136D01*
X96856706Y-70590568D01*
X96946842Y-70435916D01*
X97038979Y-70289891D01*
X97041067Y-70286794D01*
X97145789Y-70141230D01*
X97252421Y-70005306D01*
X97254521Y-70002774D01*
X97371958Y-69868765D01*
X97373866Y-69866691D01*
X97492968Y-69743262D01*
X97495000Y-69741253D01*
X97624729Y-69619116D01*
X97627174Y-69616936D01*
X97759207Y-69505522D01*
X97900968Y-69395655D01*
X97903962Y-69393477D01*
X98046610Y-69296187D01*
X98197963Y-69200582D01*
X98201470Y-69198529D01*
X98353408Y-69116269D01*
X98512786Y-69035823D01*
X98516846Y-69033958D01*
X98676684Y-68967530D01*
X98842383Y-68902977D01*
X98847014Y-68901384D01*
X99013497Y-68851424D01*
X99183533Y-68803347D01*
X99188662Y-68802134D01*
X99361569Y-68769024D01*
X99532889Y-68737919D01*
X99538533Y-68737163D01*
X99725463Y-68720885D01*
X99882567Y-68707712D01*
X99887663Y-68707496D01*
X169352395Y-68644387D01*
X169355450Y-68644460D01*
G37*
%TD.AperFunction*%
%TD*%
M02*
