%TF.GenerationSoftware,KiCad,Pcbnew,7.0.6-0*%
%TF.CreationDate,2024-03-05T22:32:29-08:00*%
%TF.ProjectId,New Groundstation,4e657720-4772-46f7-956e-647374617469,rev?*%
%TF.SameCoordinates,Original*%
%TF.FileFunction,Copper,L1,Top*%
%TF.FilePolarity,Positive*%
%FSLAX46Y46*%
G04 Gerber Fmt 4.6, Leading zero omitted, Abs format (unit mm)*
G04 Created by KiCad (PCBNEW 7.0.6-0) date 2024-03-05 22:32:29*
%MOMM*%
%LPD*%
G01*
G04 APERTURE LIST*
G04 Aperture macros list*
%AMRoundRect*
0 Rectangle with rounded corners*
0 $1 Rounding radius*
0 $2 $3 $4 $5 $6 $7 $8 $9 X,Y pos of 4 corners*
0 Add a 4 corners polygon primitive as box body*
4,1,4,$2,$3,$4,$5,$6,$7,$8,$9,$2,$3,0*
0 Add four circle primitives for the rounded corners*
1,1,$1+$1,$2,$3*
1,1,$1+$1,$4,$5*
1,1,$1+$1,$6,$7*
1,1,$1+$1,$8,$9*
0 Add four rect primitives between the rounded corners*
20,1,$1+$1,$2,$3,$4,$5,0*
20,1,$1+$1,$4,$5,$6,$7,0*
20,1,$1+$1,$6,$7,$8,$9,0*
20,1,$1+$1,$8,$9,$2,$3,0*%
G04 Aperture macros list end*
%TA.AperFunction,SMDPad,CuDef*%
%ADD10RoundRect,0.225000X-0.225000X-0.250000X0.225000X-0.250000X0.225000X0.250000X-0.225000X0.250000X0*%
%TD*%
%TA.AperFunction,SMDPad,CuDef*%
%ADD11RoundRect,0.042000X-0.258000X0.573000X-0.258000X-0.573000X0.258000X-0.573000X0.258000X0.573000X0*%
%TD*%
%TA.AperFunction,SMDPad,CuDef*%
%ADD12RoundRect,0.200000X0.275000X-0.200000X0.275000X0.200000X-0.275000X0.200000X-0.275000X-0.200000X0*%
%TD*%
%TA.AperFunction,ComponentPad*%
%ADD13R,1.524000X1.524000*%
%TD*%
%TA.AperFunction,ComponentPad*%
%ADD14C,1.524000*%
%TD*%
%TA.AperFunction,ComponentPad*%
%ADD15C,3.812400*%
%TD*%
%TA.AperFunction,SMDPad,CuDef*%
%ADD16RoundRect,0.200000X-0.275000X0.200000X-0.275000X-0.200000X0.275000X-0.200000X0.275000X0.200000X0*%
%TD*%
%TA.AperFunction,ComponentPad*%
%ADD17C,6.000000*%
%TD*%
%TA.AperFunction,ComponentPad*%
%ADD18C,2.050000*%
%TD*%
%TA.AperFunction,ComponentPad*%
%ADD19C,2.250000*%
%TD*%
%TA.AperFunction,SMDPad,CuDef*%
%ADD20RoundRect,0.225000X0.225000X0.250000X-0.225000X0.250000X-0.225000X-0.250000X0.225000X-0.250000X0*%
%TD*%
%TA.AperFunction,SMDPad,CuDef*%
%ADD21RoundRect,0.042000X-0.573000X-0.258000X0.573000X-0.258000X0.573000X0.258000X-0.573000X0.258000X0*%
%TD*%
%TA.AperFunction,ComponentPad*%
%ADD22R,1.700000X1.700000*%
%TD*%
%TA.AperFunction,ComponentPad*%
%ADD23O,1.700000X1.700000*%
%TD*%
%TA.AperFunction,SMDPad,CuDef*%
%ADD24RoundRect,0.168300X0.596700X-0.936700X0.596700X0.936700X-0.596700X0.936700X-0.596700X-0.936700X0*%
%TD*%
%TA.AperFunction,ViaPad*%
%ADD25C,0.800000*%
%TD*%
%TA.AperFunction,Conductor*%
%ADD26C,0.349250*%
%TD*%
G04 APERTURE END LIST*
D10*
%TO.P,C3,1,1*%
%TO.N,+5V*%
X142543937Y-84582000D03*
%TO.P,C3,2,2*%
%TO.N,GND*%
X144093937Y-84582000D03*
%TD*%
D11*
%TO.P,Q1,1*%
%TO.N,Net-(Q1-Pad1)*%
X145792937Y-76283000D03*
%TO.P,Q1,2*%
%TO.N,GND*%
X143892937Y-76283000D03*
%TO.P,Q1,3*%
%TO.N,PA_PTT*%
X144842937Y-78403000D03*
%TD*%
D12*
%TO.P,R2,1,1*%
%TO.N,GND*%
X157669937Y-83375000D03*
%TO.P,R2,2,2*%
%TO.N,RX_CTRL*%
X157669937Y-81725000D03*
%TD*%
D13*
%TO.P,U2,1,3V3*%
%TO.N,unconnected-(U2-3V3-Pad1)*%
X116223937Y-73469886D03*
D14*
%TO.P,U2,2,5V*%
%TO.N,+5V*%
X116223937Y-70929886D03*
%TO.P,U2,3,GPIO2/SDA1*%
%TO.N,unconnected-(U2-GPIO2{slash}SDA1-Pad3)*%
X118763937Y-73469886D03*
%TO.P,U2,4,5V*%
%TO.N,+5V*%
X118763937Y-70929886D03*
%TO.P,U2,5,GPIO3/SCL1*%
%TO.N,unconnected-(U2-GPIO3{slash}SCL1-Pad5)*%
X121303937Y-73469886D03*
%TO.P,U2,6,GND*%
%TO.N,GND*%
X121303937Y-70929886D03*
%TO.P,U2,7,GPIO4/GPIO_GCKL*%
%TO.N,unconnected-(U2-GPIO4{slash}GPIO_GCKL-Pad7)*%
X123843937Y-73469886D03*
%TO.P,U2,8,GPIO14/TXD0*%
%TO.N,unconnected-(U2-GPIO14{slash}TXD0-Pad8)*%
X123843937Y-70929886D03*
%TO.P,U2,9,GND*%
%TO.N,GND*%
X126383937Y-73469886D03*
%TO.P,U2,10,GPIO15/RXD0*%
%TO.N,unconnected-(U2-GPIO15{slash}RXD0-Pad10)*%
X126383937Y-70929886D03*
%TO.P,U2,11,GPIO17/GPIO_GEN0*%
%TO.N,/DIO0*%
X128923937Y-73469886D03*
%TO.P,U2,12,GPIO18/GPIO_GEN1*%
%TO.N,/DIO5*%
X128923937Y-70929886D03*
%TO.P,U2,13,GPIO27/GPIO_GEN2*%
%TO.N,/PTT_OUT*%
X131463937Y-73469886D03*
%TO.P,U2,14,GND*%
%TO.N,GND*%
X131463937Y-70929886D03*
%TO.P,U2,15,GPIO22/GPIO_GEN3*%
%TO.N,TX_CTRL*%
X134003937Y-73469886D03*
%TO.P,U2,16,GPIO23/GPIO_GEN4*%
%TO.N,unconnected-(U2-GPIO23{slash}GPIO_GEN4-Pad16)*%
X134003937Y-70929886D03*
%TO.P,U2,17,3V3*%
%TO.N,unconnected-(U2-3V3-Pad1)*%
X136543937Y-73469886D03*
%TO.P,U2,18,GPIO24/GPIO_GEN5*%
%TO.N,unconnected-(U2-GPIO24{slash}GPIO_GEN5-Pad18)*%
X136543937Y-70929886D03*
%TO.P,U2,19,GPIO10/SPI_MOSI*%
%TO.N,/MOSI*%
X139083937Y-73469886D03*
%TO.P,U2,20,GND*%
%TO.N,GND*%
X139083937Y-70929886D03*
%TO.P,U2,21,GPIO9/SPI_MISO*%
%TO.N,/MISO*%
X141623937Y-73469886D03*
%TO.P,U2,22,GPIO25/GPIO_GEN6*%
%TO.N,unconnected-(U2-GPIO25{slash}GPIO_GEN6-Pad22)*%
X141623937Y-70929886D03*
%TO.P,U2,23,GPIO11/SPI_SCLK*%
%TO.N,/SCK*%
X144163937Y-73469886D03*
%TO.P,U2,24,GPIO8/~{SPI_CE0}*%
%TO.N,unconnected-(U2-GPIO8{slash}~{SPI_CE0}-Pad24)*%
X144163937Y-70929886D03*
%TO.P,U2,25,GND*%
%TO.N,GND*%
X146703937Y-73469886D03*
%TO.P,U2,26,GPIO7/~{SPI_CE1}*%
%TO.N,/CS*%
X146703937Y-70929886D03*
%TO.P,U2,27,ID_SD*%
%TO.N,unconnected-(U2-ID_SD-Pad27)*%
X149243937Y-73469886D03*
%TO.P,U2,28,ID_SC*%
%TO.N,/PTT_IN*%
X149243937Y-70929886D03*
%TO.P,U2,29,GPIO5*%
%TO.N,unconnected-(U2-GPIO5-Pad29)*%
X151783937Y-73469886D03*
%TO.P,U2,30,GND*%
%TO.N,GND*%
X151783937Y-70929886D03*
%TO.P,U2,31,GPIO6*%
%TO.N,/RST*%
X154323937Y-73469886D03*
%TO.P,U2,32,GPIO12*%
%TO.N,/DIO1*%
X154323937Y-70929886D03*
%TO.P,U2,33,GPIO13*%
%TO.N,/DIO2*%
X156863937Y-73469886D03*
%TO.P,U2,34,GND*%
%TO.N,GND*%
X156863937Y-70929886D03*
%TO.P,U2,35,GPIO19*%
%TO.N,/DIO4*%
X159403937Y-73469886D03*
%TO.P,U2,36,GPIO16*%
%TO.N,/DIO3*%
X159403937Y-70929886D03*
%TO.P,U2,37,GPIO26*%
%TO.N,RX_CTRL*%
X161943937Y-73469886D03*
%TO.P,U2,38,GPIO20*%
%TO.N,/enable*%
X161943937Y-70929886D03*
%TO.P,U2,39,GND*%
%TO.N,GND*%
X164483937Y-73469886D03*
%TO.P,U2,40,GPIO21*%
%TO.N,unconnected-(U2-GPIO21-Pad40)*%
X164483937Y-70929886D03*
%TO.P,U2,41,TR01*%
%TO.N,unconnected-(U2-TR01-Pad41)*%
X170583937Y-79592886D03*
%TO.P,U2,42,TR00*%
%TO.N,unconnected-(U2-TR00-Pad42)*%
X170583937Y-77052886D03*
%TO.P,U2,43,TR03*%
%TO.N,unconnected-(U2-TR03-Pad43)*%
X168043937Y-79592886D03*
%TO.P,U2,44,TR02*%
%TO.N,unconnected-(U2-TR02-Pad44)*%
X168043937Y-77052886D03*
D15*
%TO.P,U2,S1,SHIELD*%
%TO.N,GND*%
X111353937Y-72199886D03*
%TO.P,U2,S2,SHIELD*%
X169353937Y-72199886D03*
%TO.P,U2,S3,SHIELD*%
X169353937Y-121199886D03*
%TO.P,U2,S4,SHIELD*%
X111353937Y-121199886D03*
%TD*%
D16*
%TO.P,R1,1,1*%
%TO.N,GND*%
X152619937Y-81725000D03*
%TO.P,R1,2,2*%
%TO.N,TX_CTRL*%
X152619937Y-83375000D03*
%TD*%
D17*
%TO.P,U1,4,GND*%
%TO.N,GND*%
X100853937Y-78835000D03*
X100953937Y-114935000D03*
X137503937Y-78835000D03*
X137603937Y-114935000D03*
%TD*%
D14*
%TO.P,RMF96W1,1,Vin*%
%TO.N,+5V*%
X143974575Y-88237234D03*
%TO.P,RMF96W1,2,GND*%
%TO.N,GND*%
X143974575Y-90777234D03*
%TO.P,RMF96W1,3,EN*%
%TO.N,/enable*%
X143974575Y-93317234D03*
%TO.P,RMF96W1,4,DIO0*%
%TO.N,/DIO0*%
X143974575Y-95857234D03*
%TO.P,RMF96W1,5,SCK_5V*%
%TO.N,/SCK_5V*%
X143974575Y-98397234D03*
%TO.P,RMF96W1,6,MISO_3V*%
%TO.N,/MOSI_5V*%
X143974575Y-100937234D03*
%TO.P,RMF96W1,7,MOSI_5V*%
%TO.N,/MISO_3V*%
X143974575Y-103477234D03*
%TO.P,RMF96W1,8,CS_5V*%
%TO.N,/CS_5V*%
X143974575Y-106017234D03*
%TO.P,RMF96W1,9,RST_5V*%
%TO.N,/RST_5V*%
X143974575Y-108557234D03*
%TO.P,RMF96W1,10,DIO1*%
%TO.N,/DIO1*%
X169361899Y-88289567D03*
%TO.P,RMF96W1,11,DIO2*%
%TO.N,/DIO2*%
X169361899Y-90829567D03*
%TO.P,RMF96W1,12,DIO3*%
%TO.N,/DIO3*%
X169361899Y-93369567D03*
%TO.P,RMF96W1,13,DIO4*%
%TO.N,/DIO4*%
X169361899Y-95909567D03*
%TO.P,RMF96W1,14,DIO5*%
%TO.N,/DIO5*%
X169361899Y-98449567D03*
%TO.P,RMF96W1,15,Antenna*%
%TO.N,Net-(J1-In)*%
X166085299Y-106780767D03*
%TD*%
D10*
%TO.P,C1,1,1*%
%TO.N,+5V*%
X99757937Y-73660000D03*
%TO.P,C1,2,2*%
%TO.N,GND*%
X101307937Y-73660000D03*
%TD*%
D18*
%TO.P,J1,1,In*%
%TO.N,Net-(J1-In)*%
X162876937Y-115697000D03*
D19*
%TO.P,J1,2,Ext*%
%TO.N,GND*%
X160336937Y-113157000D03*
X160336937Y-118237000D03*
X165416937Y-113157000D03*
X165416937Y-118237000D03*
%TD*%
D20*
%TO.P,C2,1,1*%
%TO.N,+5V*%
X105117937Y-73660000D03*
%TO.P,C2,2,2*%
%TO.N,GND*%
X103567937Y-73660000D03*
%TD*%
D10*
%TO.P,C4,1,1*%
%TO.N,+5V*%
X142607737Y-82702400D03*
%TO.P,C4,2,2*%
%TO.N,GND*%
X144157737Y-82702400D03*
%TD*%
D21*
%TO.P,Q2,1*%
%TO.N,/PTT_OUT*%
X148955937Y-76291114D03*
%TO.P,Q2,2*%
%TO.N,GND*%
X148955937Y-78191114D03*
%TO.P,Q2,3*%
%TO.N,Net-(Q1-Pad1)*%
X151075937Y-77241114D03*
%TD*%
D16*
%TO.P,R3,1,1*%
%TO.N,Net-(Q1-Pad1)*%
X156653937Y-77026000D03*
%TO.P,R3,2,2*%
%TO.N,+5V*%
X156653937Y-78676000D03*
%TD*%
D22*
%TO.P,J2,1,Pin_1*%
%TO.N,PA_PTT*%
X119569937Y-121793000D03*
D23*
%TO.P,J2,2,Pin_2*%
%TO.N,LNA_PTT*%
X122109937Y-121793000D03*
%TO.P,J2,3,Pin_3*%
%TO.N,/PTT_IN*%
X124649937Y-121793000D03*
%TO.P,J2,4,Pin_4*%
%TO.N,TX_CTRL*%
X127189937Y-121793000D03*
%TO.P,J2,5,Pin_5*%
%TO.N,RX_CTRL*%
X129729937Y-121793000D03*
%TO.P,J2,6,Pin_6*%
%TO.N,GND*%
X132269937Y-121793000D03*
%TD*%
D24*
%TO.P,D2,A*%
%TO.N,/PTT_OUT*%
X163384937Y-78468000D03*
%TO.P,D2,C*%
%TO.N,LNA_PTT*%
X163384937Y-82568000D03*
%TD*%
D25*
%TO.N,GND*%
X148932337Y-79552800D03*
X142658537Y-76250800D03*
X102450337Y-74879200D03*
X154158947Y-83190790D03*
%TO.N,LNA_PTT*%
X164146937Y-84886800D03*
%TO.N,/PTT_IN*%
X140131237Y-85813900D03*
%TO.N,/PTT_OUT*%
X160861812Y-76581000D03*
X163410337Y-76504800D03*
%TO.N,/DIO0*%
X136816537Y-91008200D03*
%TO.N,TX_CTRL*%
X152666137Y-85013800D03*
%TO.N,/DIO2*%
X161911737Y-84810600D03*
%TO.N,/DIO4*%
X161767621Y-86196840D03*
%TO.N,/DIO3*%
X166864737Y-70281800D03*
%TD*%
D26*
%TO.N,GND*%
X144157737Y-82702400D02*
X144157737Y-84518200D01*
X145419200Y-89332609D02*
X143974575Y-90777234D01*
X152619937Y-81725000D02*
X152693157Y-81725000D01*
X142690737Y-76283000D02*
X142658537Y-76250800D01*
X157669937Y-83375000D02*
X154343157Y-83375000D01*
X154343157Y-83375000D02*
X154158947Y-83190790D01*
X143892937Y-76283000D02*
X142690737Y-76283000D01*
X148955937Y-78191114D02*
X148955937Y-79529200D01*
X101307937Y-73736800D02*
X102450337Y-74879200D01*
X152693157Y-81725000D02*
X154158947Y-83190790D01*
X144093937Y-84582000D02*
X145419200Y-85907263D01*
X101307937Y-73660000D02*
X101307937Y-73736800D01*
X145419200Y-85907263D02*
X145419200Y-89332609D01*
X148955937Y-79529200D02*
X148932337Y-79552800D01*
X144157737Y-84518200D02*
X144093937Y-84582000D01*
X103567937Y-73660000D02*
X101307937Y-73660000D01*
%TO.N,LNA_PTT*%
X163384937Y-82568000D02*
X163384937Y-84124800D01*
X163384937Y-84124800D02*
X164146937Y-84886800D01*
%TO.N,/PTT_IN*%
X124649937Y-101295200D02*
X140131237Y-85813900D01*
X124649937Y-121793000D02*
X124649937Y-104724200D01*
X124649937Y-104724200D02*
X124649937Y-101295200D01*
%TO.N,/PTT_OUT*%
X163410337Y-78442600D02*
X163384937Y-78468000D01*
X149103676Y-76143375D02*
X160424187Y-76143375D01*
X133146426Y-75152375D02*
X131463937Y-73469886D01*
X148955937Y-76291114D02*
X149103676Y-76143375D01*
X148955937Y-76291114D02*
X147817198Y-75152375D01*
X163410337Y-76504800D02*
X163410337Y-78442600D01*
X160424187Y-76143375D02*
X160861812Y-76581000D01*
X147817198Y-75152375D02*
X133146426Y-75152375D01*
%TO.N,/DIO0*%
X143974575Y-95857234D02*
X141665571Y-95857234D01*
X141665571Y-95857234D02*
X136816537Y-91008200D01*
%TO.N,/DIO5*%
X122573937Y-74242895D02*
X109003537Y-87813295D01*
X127479312Y-69485261D02*
X123245553Y-69485261D01*
X108794842Y-87813295D02*
X108292337Y-88315800D01*
X128923937Y-70929886D02*
X127479312Y-69485261D01*
X109003537Y-87813295D02*
X108794842Y-87813295D01*
X122573937Y-70156877D02*
X122573937Y-74242895D01*
X110281610Y-123788711D02*
X113349676Y-123788711D01*
X108292337Y-88315800D02*
X108292337Y-121799438D01*
X113812762Y-123325625D02*
X144485841Y-123325625D01*
X144485841Y-123325625D02*
X169361899Y-98449567D01*
X108292337Y-121799438D02*
X110281610Y-123788711D01*
X113349676Y-123788711D02*
X113812762Y-123325625D01*
X123245553Y-69485261D02*
X122573937Y-70156877D01*
%TO.N,TX_CTRL*%
X152666137Y-83421200D02*
X152619937Y-83375000D01*
X152666137Y-85013800D02*
X152666137Y-83421200D01*
%TO.N,/DIO1*%
X156013423Y-69240400D02*
X154323937Y-70929886D01*
X164858137Y-69240400D02*
X156013423Y-69240400D01*
X165294660Y-69676923D02*
X164858137Y-69240400D01*
X169361899Y-88289567D02*
X165928562Y-84856230D01*
X165294660Y-69697600D02*
X165294660Y-69676923D01*
X165928562Y-84856230D02*
X165928562Y-70331502D01*
X165928562Y-70331502D02*
X165294660Y-69697600D01*
%TO.N,/DIO2*%
X167930704Y-90829567D02*
X161911737Y-84810600D01*
X169361899Y-90829567D02*
X167930704Y-90829567D01*
%TO.N,/DIO4*%
X161767621Y-87818298D02*
X161767621Y-86196840D01*
X169361899Y-95412576D02*
X161767621Y-87818298D01*
X169361899Y-95909567D02*
X169361899Y-95412576D01*
%TO.N,/DIO3*%
X166839337Y-80431295D02*
X166839337Y-70307200D01*
X166839337Y-70307200D02*
X166864737Y-70281800D01*
X170806524Y-91924942D02*
X170806524Y-84398482D01*
X170806524Y-84398482D02*
X166839337Y-80431295D01*
X169361899Y-93369567D02*
X170806524Y-91924942D01*
%TO.N,RX_CTRL*%
X132905312Y-118617625D02*
X139129331Y-118617625D01*
X160985137Y-81725000D02*
X161848237Y-82588100D01*
X145419200Y-109155618D02*
X145419200Y-99017137D01*
X157669937Y-81725000D02*
X160985137Y-81725000D01*
X141286562Y-116460394D02*
X141286562Y-113288256D01*
X141286562Y-113288256D02*
X145419200Y-109155618D01*
X161943937Y-82492400D02*
X161943937Y-73469886D01*
X129729937Y-121793000D02*
X132905312Y-118617625D01*
X139129331Y-118617625D02*
X141286562Y-116460394D01*
X145419200Y-99017137D02*
X161848237Y-82588100D01*
X161848237Y-82588100D02*
X161943937Y-82492400D01*
%TO.N,PA_PTT*%
X119569937Y-103981624D02*
X144842937Y-78708624D01*
X144842937Y-78708624D02*
X144842937Y-78403000D01*
X119569937Y-121793000D02*
X119569937Y-103981624D01*
%TO.N,+5V*%
X144239913Y-81026000D02*
X144623538Y-80642375D01*
X142543937Y-84582000D02*
X142543937Y-86806596D01*
X144239913Y-81026000D02*
X143737895Y-81026000D01*
X103999737Y-72085200D02*
X105117937Y-73203400D01*
X142607737Y-82156158D02*
X142607737Y-82702400D01*
X142607737Y-82702400D02*
X142607737Y-84518200D01*
X114905112Y-69611061D02*
X116223937Y-70929886D01*
X142543937Y-86806596D02*
X143974575Y-88237234D01*
X109166876Y-69611061D02*
X114905112Y-69611061D01*
X143737895Y-81026000D02*
X142607737Y-82156158D01*
X100481986Y-72727375D02*
X100481986Y-72478751D01*
X99757937Y-73660000D02*
X99757937Y-73451424D01*
X142607737Y-84518200D02*
X142543937Y-84582000D01*
X144623538Y-80642375D02*
X151979342Y-80642375D01*
X151979342Y-80642375D02*
X153945717Y-78676000D01*
X100481986Y-72478751D02*
X100875537Y-72085200D01*
X156653937Y-78676000D02*
X153945717Y-78676000D01*
X105117937Y-73203400D02*
X105117937Y-73660000D01*
X99757937Y-73451424D02*
X100481986Y-72727375D01*
X105117937Y-73660000D02*
X109166876Y-69611061D01*
X100875537Y-72085200D02*
X103999737Y-72085200D01*
%TO.N,Net-(J1-In)*%
X164757370Y-106780767D02*
X162876937Y-108661200D01*
X162876937Y-108661200D02*
X162876937Y-115697000D01*
X166085299Y-106780767D02*
X164757370Y-106780767D01*
%TO.N,Net-(Q1-Pad1)*%
X147092048Y-76283000D02*
X148050162Y-77241114D01*
X151291051Y-77026000D02*
X151075937Y-77241114D01*
X145792937Y-76283000D02*
X147092048Y-76283000D01*
X156653937Y-77026000D02*
X151291051Y-77026000D01*
X148050162Y-77241114D02*
X151075937Y-77241114D01*
%TD*%
M02*
