%TF.GenerationSoftware,KiCad,Pcbnew,7.0.6-0*%
%TF.CreationDate,2024-03-05T22:32:51-08:00*%
%TF.ProjectId,New Groundstation,4e657720-4772-46f7-956e-647374617469,rev?*%
%TF.SameCoordinates,Original*%
%TF.FileFunction,Drillmap*%
%TF.FilePolarity,Positive*%
%FSLAX45Y45*%
G04 Gerber Fmt 4.5, Leading zero omitted, Abs format (unit mm)*
G04 Created by KiCad (PCBNEW 7.0.6-0) date 2024-03-05 22:32:51*
%MOMM*%
%LPD*%
G01*
G04 APERTURE LIST*
%ADD10C,0.100000*%
%ADD11C,0.200000*%
%ADD12C,0.040000*%
%ADD13C,0.076200*%
%ADD14C,0.101600*%
%ADD15C,0.150000*%
%ADD16C,0.170000*%
%ADD17C,0.275000*%
%ADD18C,0.500000*%
G04 APERTURE END LIST*
D10*
X9643047Y-12131053D02*
G75*
G03*
X9998641Y-12486653I355603J3D01*
G01*
X9642363Y-12131608D02*
X9642363Y-7229408D01*
X16935394Y-6864389D02*
X9988494Y-6870700D01*
X16935394Y-12477794D02*
G75*
G03*
X17290994Y-12122189I-4J355604D01*
G01*
X17290994Y-7219989D02*
X17290994Y-12122189D01*
X9988494Y-6870701D02*
G75*
G03*
X9642363Y-7229408I12806J-358709D01*
G01*
X17290991Y-7219989D02*
G75*
G03*
X16935394Y-6864389I-355601J-1D01*
G01*
X16935394Y-12477789D02*
X9998641Y-12486653D01*
D11*
D12*
X10225034Y-7467920D02*
X10265034Y-7507920D01*
X10265034Y-7467920D02*
X10225034Y-7507920D01*
X13661654Y-9080820D02*
X13701654Y-9120820D01*
X13701654Y-9080820D02*
X13661654Y-9120820D01*
X13993124Y-8561390D02*
X14033124Y-8601390D01*
X14033124Y-8561390D02*
X13993124Y-8601390D01*
X14245854Y-7605080D02*
X14285854Y-7645080D01*
X14285854Y-7605080D02*
X14245854Y-7645080D01*
X14873234Y-7935280D02*
X14913234Y-7975280D01*
X14913234Y-7935280D02*
X14873234Y-7975280D01*
X15246614Y-8481380D02*
X15286614Y-8521380D01*
X15286614Y-8481380D02*
X15246614Y-8521380D01*
X15395895Y-8299079D02*
X15435895Y-8339079D01*
X15435895Y-8299079D02*
X15395895Y-8339079D01*
X16066181Y-7638100D02*
X16106181Y-7678100D01*
X16106181Y-7638100D02*
X16066181Y-7678100D01*
X16156762Y-8599684D02*
X16196762Y-8639684D01*
X16196762Y-8599684D02*
X16156762Y-8639684D01*
X16171174Y-8461060D02*
X16211174Y-8501060D01*
X16211174Y-8461060D02*
X16171174Y-8501060D01*
X16321034Y-7630480D02*
X16361034Y-7670480D01*
X16361034Y-7630480D02*
X16321034Y-7670480D01*
X16394694Y-8468680D02*
X16434694Y-8508680D01*
X16434694Y-8468680D02*
X16394694Y-8508680D01*
X16666474Y-7008180D02*
X16706474Y-7048180D01*
X16706474Y-7008180D02*
X16666474Y-7048180D01*
D13*
X14435557Y-8823723D02*
G75*
G03*
X14435557Y-8823723I-38100J0D01*
G01*
X14435557Y-9077723D02*
G75*
G03*
X14435557Y-9077723I-38100J0D01*
G01*
X14435557Y-9331723D02*
G75*
G03*
X14435557Y-9331723I-38100J0D01*
G01*
X14435557Y-9585723D02*
G75*
G03*
X14435557Y-9585723I-38100J0D01*
G01*
X14435557Y-9839723D02*
G75*
G03*
X14435557Y-9839723I-38100J0D01*
G01*
X14435557Y-10093723D02*
G75*
G03*
X14435557Y-10093723I-38100J0D01*
G01*
X14435557Y-10347723D02*
G75*
G03*
X14435557Y-10347723I-38100J0D01*
G01*
X14435557Y-10601723D02*
G75*
G03*
X14435557Y-10601723I-38100J0D01*
G01*
X14435557Y-10855723D02*
G75*
G03*
X14435557Y-10855723I-38100J0D01*
G01*
X16646630Y-10678077D02*
G75*
G03*
X16646630Y-10678077I-38100J0D01*
G01*
X16974290Y-8828957D02*
G75*
G03*
X16974290Y-8828957I-38100J0D01*
G01*
X16974290Y-9082957D02*
G75*
G03*
X16974290Y-9082957I-38100J0D01*
G01*
X16974290Y-9336957D02*
G75*
G03*
X16974290Y-9336957I-38100J0D01*
G01*
X16974290Y-9590957D02*
G75*
G03*
X16974290Y-9590957I-38100J0D01*
G01*
X16974290Y-9844957D02*
G75*
G03*
X16974290Y-9844957I-38100J0D01*
G01*
D10*
X11956994Y-12129300D02*
X11956994Y-12229300D01*
X11906994Y-12179300D02*
X12006994Y-12179300D01*
X12210994Y-12129300D02*
X12210994Y-12229300D01*
X12160994Y-12179300D02*
X12260994Y-12179300D01*
X12464994Y-12129300D02*
X12464994Y-12229300D01*
X12414994Y-12179300D02*
X12514994Y-12179300D01*
X12718994Y-12129300D02*
X12718994Y-12229300D01*
X12668994Y-12179300D02*
X12768994Y-12179300D01*
X12972994Y-12129300D02*
X12972994Y-12229300D01*
X12922994Y-12179300D02*
X13022994Y-12179300D01*
X13226994Y-12129300D02*
X13226994Y-12229300D01*
X13176994Y-12179300D02*
X13276994Y-12179300D01*
D14*
X11658315Y-7128910D02*
X11658315Y-7057067D01*
X11586472Y-7057067D01*
X11586472Y-7128910D01*
X11658315Y-7128910D01*
X11658315Y-7382910D02*
X11658315Y-7311067D01*
X11586472Y-7311067D01*
X11586472Y-7382910D01*
X11658315Y-7382910D01*
X11912315Y-7128910D02*
X11912315Y-7057067D01*
X11840472Y-7057067D01*
X11840472Y-7128910D01*
X11912315Y-7128910D01*
X11912315Y-7382910D02*
X11912315Y-7311067D01*
X11840472Y-7311067D01*
X11840472Y-7382910D01*
X11912315Y-7382910D01*
X12166315Y-7128910D02*
X12166315Y-7057067D01*
X12094472Y-7057067D01*
X12094472Y-7128910D01*
X12166315Y-7128910D01*
X12166315Y-7382910D02*
X12166315Y-7311067D01*
X12094472Y-7311067D01*
X12094472Y-7382910D01*
X12166315Y-7382910D01*
X12420315Y-7128910D02*
X12420315Y-7057067D01*
X12348472Y-7057067D01*
X12348472Y-7128910D01*
X12420315Y-7128910D01*
X12420315Y-7382910D02*
X12420315Y-7311067D01*
X12348472Y-7311067D01*
X12348472Y-7382910D01*
X12420315Y-7382910D01*
X12674315Y-7128910D02*
X12674315Y-7057067D01*
X12602472Y-7057067D01*
X12602472Y-7128910D01*
X12674315Y-7128910D01*
X12674315Y-7382910D02*
X12674315Y-7311067D01*
X12602472Y-7311067D01*
X12602472Y-7382910D01*
X12674315Y-7382910D01*
X12928315Y-7128910D02*
X12928315Y-7057067D01*
X12856472Y-7057067D01*
X12856472Y-7128910D01*
X12928315Y-7128910D01*
X12928315Y-7382910D02*
X12928315Y-7311067D01*
X12856472Y-7311067D01*
X12856472Y-7382910D01*
X12928315Y-7382910D01*
X13182315Y-7128910D02*
X13182315Y-7057067D01*
X13110472Y-7057067D01*
X13110472Y-7128910D01*
X13182315Y-7128910D01*
X13182315Y-7382910D02*
X13182315Y-7311067D01*
X13110472Y-7311067D01*
X13110472Y-7382910D01*
X13182315Y-7382910D01*
X13436315Y-7128910D02*
X13436315Y-7057067D01*
X13364472Y-7057067D01*
X13364472Y-7128910D01*
X13436315Y-7128910D01*
X13436315Y-7382910D02*
X13436315Y-7311067D01*
X13364472Y-7311067D01*
X13364472Y-7382910D01*
X13436315Y-7382910D01*
X13690315Y-7128910D02*
X13690315Y-7057067D01*
X13618472Y-7057067D01*
X13618472Y-7128910D01*
X13690315Y-7128910D01*
X13690315Y-7382910D02*
X13690315Y-7311067D01*
X13618472Y-7311067D01*
X13618472Y-7382910D01*
X13690315Y-7382910D01*
X13944315Y-7128910D02*
X13944315Y-7057067D01*
X13872472Y-7057067D01*
X13872472Y-7128910D01*
X13944315Y-7128910D01*
X13944315Y-7382910D02*
X13944315Y-7311067D01*
X13872472Y-7311067D01*
X13872472Y-7382910D01*
X13944315Y-7382910D01*
X14198315Y-7128910D02*
X14198315Y-7057067D01*
X14126472Y-7057067D01*
X14126472Y-7128910D01*
X14198315Y-7128910D01*
X14198315Y-7382910D02*
X14198315Y-7311067D01*
X14126472Y-7311067D01*
X14126472Y-7382910D01*
X14198315Y-7382910D01*
X14452315Y-7128910D02*
X14452315Y-7057067D01*
X14380472Y-7057067D01*
X14380472Y-7128910D01*
X14452315Y-7128910D01*
X14452315Y-7382910D02*
X14452315Y-7311067D01*
X14380472Y-7311067D01*
X14380472Y-7382910D01*
X14452315Y-7382910D01*
X14706315Y-7128910D02*
X14706315Y-7057067D01*
X14634472Y-7057067D01*
X14634472Y-7128910D01*
X14706315Y-7128910D01*
X14706315Y-7382910D02*
X14706315Y-7311067D01*
X14634472Y-7311067D01*
X14634472Y-7382910D01*
X14706315Y-7382910D01*
X14960315Y-7128910D02*
X14960315Y-7057067D01*
X14888472Y-7057067D01*
X14888472Y-7128910D01*
X14960315Y-7128910D01*
X14960315Y-7382910D02*
X14960315Y-7311067D01*
X14888472Y-7311067D01*
X14888472Y-7382910D01*
X14960315Y-7382910D01*
X15214315Y-7128910D02*
X15214315Y-7057067D01*
X15142472Y-7057067D01*
X15142472Y-7128910D01*
X15214315Y-7128910D01*
X15214315Y-7382910D02*
X15214315Y-7311067D01*
X15142472Y-7311067D01*
X15142472Y-7382910D01*
X15214315Y-7382910D01*
X15468315Y-7128910D02*
X15468315Y-7057067D01*
X15396472Y-7057067D01*
X15396472Y-7128910D01*
X15468315Y-7128910D01*
X15468315Y-7382910D02*
X15468315Y-7311067D01*
X15396472Y-7311067D01*
X15396472Y-7382910D01*
X15468315Y-7382910D01*
X15722315Y-7128910D02*
X15722315Y-7057067D01*
X15650472Y-7057067D01*
X15650472Y-7128910D01*
X15722315Y-7128910D01*
X15722315Y-7382910D02*
X15722315Y-7311067D01*
X15650472Y-7311067D01*
X15650472Y-7382910D01*
X15722315Y-7382910D01*
X15976315Y-7128910D02*
X15976315Y-7057067D01*
X15904472Y-7057067D01*
X15904472Y-7128910D01*
X15976315Y-7128910D01*
X15976315Y-7382910D02*
X15976315Y-7311067D01*
X15904472Y-7311067D01*
X15904472Y-7382910D01*
X15976315Y-7382910D01*
X16230315Y-7128910D02*
X16230315Y-7057067D01*
X16158472Y-7057067D01*
X16158472Y-7128910D01*
X16230315Y-7128910D01*
X16230315Y-7382910D02*
X16230315Y-7311067D01*
X16158472Y-7311067D01*
X16158472Y-7382910D01*
X16230315Y-7382910D01*
X16484315Y-7128910D02*
X16484315Y-7057067D01*
X16412472Y-7057067D01*
X16412472Y-7128910D01*
X16484315Y-7128910D01*
X16484315Y-7382910D02*
X16484315Y-7311067D01*
X16412472Y-7311067D01*
X16412472Y-7382910D01*
X16484315Y-7382910D01*
X16840315Y-7741210D02*
X16840315Y-7669367D01*
X16768472Y-7669367D01*
X16768472Y-7741210D01*
X16840315Y-7741210D01*
X16840315Y-7995210D02*
X16840315Y-7923367D01*
X16768472Y-7923367D01*
X16768472Y-7995210D01*
X16840315Y-7995210D01*
X17094315Y-7741210D02*
X17094315Y-7669367D01*
X17022472Y-7669367D01*
X17022472Y-7741210D01*
X17094315Y-7741210D01*
X17094315Y-7995210D02*
X17094315Y-7923367D01*
X17022472Y-7923367D01*
X17022472Y-7995210D01*
X17094315Y-7995210D01*
D15*
X16287694Y-11644700D02*
X16362694Y-11569700D01*
X16287694Y-11494700D01*
X16212694Y-11569700D01*
X16287694Y-11644700D01*
D16*
X15948694Y-11230700D02*
X16118694Y-11400700D01*
X16118694Y-11230700D02*
X15948694Y-11400700D01*
X16118694Y-11315700D02*
G75*
G03*
X16118694Y-11315700I-85000J0D01*
G01*
X15948694Y-11738700D02*
X16118694Y-11908700D01*
X16118694Y-11738700D02*
X15948694Y-11908700D01*
X16118694Y-11823700D02*
G75*
G03*
X16118694Y-11823700I-85000J0D01*
G01*
X16456694Y-11230700D02*
X16626694Y-11400700D01*
X16626694Y-11230700D02*
X16456694Y-11400700D01*
X16626694Y-11315700D02*
G75*
G03*
X16626694Y-11315700I-85000J0D01*
G01*
X16456694Y-11738700D02*
X16626694Y-11908700D01*
X16626694Y-11738700D02*
X16456694Y-11908700D01*
X16626694Y-11823700D02*
G75*
G03*
X16626694Y-11823700I-85000J0D01*
G01*
D17*
X10997894Y-7082489D02*
X11272894Y-7357489D01*
X11272894Y-7082489D02*
X10997894Y-7357489D01*
X11135394Y-7082489D02*
X11135394Y-7357489D01*
X10997894Y-7219989D02*
X11272894Y-7219989D01*
X10997894Y-11982489D02*
X11272894Y-12257489D01*
X11272894Y-11982489D02*
X10997894Y-12257489D01*
X11135394Y-11982489D02*
X11135394Y-12257489D01*
X10997894Y-12119989D02*
X11272894Y-12119989D01*
X16797894Y-7082489D02*
X17072894Y-7357489D01*
X17072894Y-7082489D02*
X16797894Y-7357489D01*
X16935394Y-7082489D02*
X16935394Y-7357489D01*
X16797894Y-7219989D02*
X17072894Y-7219989D01*
X16797894Y-11982489D02*
X17072894Y-12257489D01*
X17072894Y-11982489D02*
X16797894Y-12257489D01*
X16935394Y-11982489D02*
X16935394Y-12257489D01*
X16797894Y-12119989D02*
X17072894Y-12119989D01*
D18*
X9835394Y-7633500D02*
X10335394Y-8133500D01*
X10335394Y-7633500D02*
X9835394Y-8133500D01*
X10262172Y-8060278D02*
X10262172Y-7706722D01*
X9908615Y-7706722D01*
X9908615Y-8060278D01*
X10262172Y-8060278D01*
X9845394Y-11243500D02*
X10345394Y-11743500D01*
X10345394Y-11243500D02*
X9845394Y-11743500D01*
X10272172Y-11670278D02*
X10272172Y-11316722D01*
X9918615Y-11316722D01*
X9918615Y-11670278D01*
X10272172Y-11670278D01*
X13500394Y-7633500D02*
X14000394Y-8133500D01*
X14000394Y-7633500D02*
X13500394Y-8133500D01*
X13927172Y-8060278D02*
X13927172Y-7706722D01*
X13573615Y-7706722D01*
X13573615Y-8060278D01*
X13927172Y-8060278D01*
X13510394Y-11243500D02*
X14010394Y-11743500D01*
X14010394Y-11243500D02*
X13510394Y-11743500D01*
X13937172Y-11670278D02*
X13937172Y-11316722D01*
X13583615Y-11316722D01*
X13583615Y-11670278D01*
X13937172Y-11670278D01*
D11*
X9898140Y-12803137D02*
X9898140Y-12603137D01*
X9898140Y-12603137D02*
X9945759Y-12603137D01*
X9945759Y-12603137D02*
X9974330Y-12612660D01*
X9974330Y-12612660D02*
X9993378Y-12631708D01*
X9993378Y-12631708D02*
X10002901Y-12650756D01*
X10002901Y-12650756D02*
X10012425Y-12688851D01*
X10012425Y-12688851D02*
X10012425Y-12717422D01*
X10012425Y-12717422D02*
X10002901Y-12755517D01*
X10002901Y-12755517D02*
X9993378Y-12774565D01*
X9993378Y-12774565D02*
X9974330Y-12793613D01*
X9974330Y-12793613D02*
X9945759Y-12803137D01*
X9945759Y-12803137D02*
X9898140Y-12803137D01*
X10098140Y-12803137D02*
X10098140Y-12669803D01*
X10098140Y-12707898D02*
X10107663Y-12688851D01*
X10107663Y-12688851D02*
X10117187Y-12679327D01*
X10117187Y-12679327D02*
X10136235Y-12669803D01*
X10136235Y-12669803D02*
X10155282Y-12669803D01*
X10221949Y-12803137D02*
X10221949Y-12669803D01*
X10221949Y-12603137D02*
X10212425Y-12612660D01*
X10212425Y-12612660D02*
X10221949Y-12622184D01*
X10221949Y-12622184D02*
X10231473Y-12612660D01*
X10231473Y-12612660D02*
X10221949Y-12603137D01*
X10221949Y-12603137D02*
X10221949Y-12622184D01*
X10345759Y-12803137D02*
X10326711Y-12793613D01*
X10326711Y-12793613D02*
X10317187Y-12774565D01*
X10317187Y-12774565D02*
X10317187Y-12603137D01*
X10450520Y-12803137D02*
X10431473Y-12793613D01*
X10431473Y-12793613D02*
X10421949Y-12774565D01*
X10421949Y-12774565D02*
X10421949Y-12603137D01*
X10679092Y-12803137D02*
X10679092Y-12603137D01*
X10679092Y-12603137D02*
X10745759Y-12745994D01*
X10745759Y-12745994D02*
X10812425Y-12603137D01*
X10812425Y-12603137D02*
X10812425Y-12803137D01*
X10993378Y-12803137D02*
X10993378Y-12698375D01*
X10993378Y-12698375D02*
X10983854Y-12679327D01*
X10983854Y-12679327D02*
X10964806Y-12669803D01*
X10964806Y-12669803D02*
X10926711Y-12669803D01*
X10926711Y-12669803D02*
X10907663Y-12679327D01*
X10993378Y-12793613D02*
X10974330Y-12803137D01*
X10974330Y-12803137D02*
X10926711Y-12803137D01*
X10926711Y-12803137D02*
X10907663Y-12793613D01*
X10907663Y-12793613D02*
X10898140Y-12774565D01*
X10898140Y-12774565D02*
X10898140Y-12755517D01*
X10898140Y-12755517D02*
X10907663Y-12736470D01*
X10907663Y-12736470D02*
X10926711Y-12726946D01*
X10926711Y-12726946D02*
X10974330Y-12726946D01*
X10974330Y-12726946D02*
X10993378Y-12717422D01*
X11088616Y-12669803D02*
X11088616Y-12869803D01*
X11088616Y-12679327D02*
X11107663Y-12669803D01*
X11107663Y-12669803D02*
X11145759Y-12669803D01*
X11145759Y-12669803D02*
X11164806Y-12679327D01*
X11164806Y-12679327D02*
X11174330Y-12688851D01*
X11174330Y-12688851D02*
X11183854Y-12707898D01*
X11183854Y-12707898D02*
X11183854Y-12765041D01*
X11183854Y-12765041D02*
X11174330Y-12784089D01*
X11174330Y-12784089D02*
X11164806Y-12793613D01*
X11164806Y-12793613D02*
X11145759Y-12803137D01*
X11145759Y-12803137D02*
X11107663Y-12803137D01*
X11107663Y-12803137D02*
X11088616Y-12793613D01*
X11269568Y-12784089D02*
X11279092Y-12793613D01*
X11279092Y-12793613D02*
X11269568Y-12803137D01*
X11269568Y-12803137D02*
X11260044Y-12793613D01*
X11260044Y-12793613D02*
X11269568Y-12784089D01*
X11269568Y-12784089D02*
X11269568Y-12803137D01*
X11269568Y-12679327D02*
X11279092Y-12688851D01*
X11279092Y-12688851D02*
X11269568Y-12698375D01*
X11269568Y-12698375D02*
X11260044Y-12688851D01*
X11260044Y-12688851D02*
X11269568Y-12679327D01*
X11269568Y-12679327D02*
X11269568Y-12698375D01*
D12*
X9597363Y-13111653D02*
X9637363Y-13151653D01*
X9637363Y-13111653D02*
X9597363Y-13151653D01*
D11*
X9936235Y-13023137D02*
X9955282Y-13023137D01*
X9955282Y-13023137D02*
X9974330Y-13032660D01*
X9974330Y-13032660D02*
X9983854Y-13042184D01*
X9983854Y-13042184D02*
X9993378Y-13061232D01*
X9993378Y-13061232D02*
X10002901Y-13099327D01*
X10002901Y-13099327D02*
X10002901Y-13146946D01*
X10002901Y-13146946D02*
X9993378Y-13185041D01*
X9993378Y-13185041D02*
X9983854Y-13204089D01*
X9983854Y-13204089D02*
X9974330Y-13213613D01*
X9974330Y-13213613D02*
X9955282Y-13223137D01*
X9955282Y-13223137D02*
X9936235Y-13223137D01*
X9936235Y-13223137D02*
X9917187Y-13213613D01*
X9917187Y-13213613D02*
X9907663Y-13204089D01*
X9907663Y-13204089D02*
X9898140Y-13185041D01*
X9898140Y-13185041D02*
X9888616Y-13146946D01*
X9888616Y-13146946D02*
X9888616Y-13099327D01*
X9888616Y-13099327D02*
X9898140Y-13061232D01*
X9898140Y-13061232D02*
X9907663Y-13042184D01*
X9907663Y-13042184D02*
X9917187Y-13032660D01*
X9917187Y-13032660D02*
X9936235Y-13023137D01*
X10088616Y-13204089D02*
X10098140Y-13213613D01*
X10098140Y-13213613D02*
X10088616Y-13223137D01*
X10088616Y-13223137D02*
X10079092Y-13213613D01*
X10079092Y-13213613D02*
X10088616Y-13204089D01*
X10088616Y-13204089D02*
X10088616Y-13223137D01*
X10269568Y-13089803D02*
X10269568Y-13223137D01*
X10221949Y-13013613D02*
X10174330Y-13156470D01*
X10174330Y-13156470D02*
X10298140Y-13156470D01*
X10412425Y-13023137D02*
X10431473Y-13023137D01*
X10431473Y-13023137D02*
X10450521Y-13032660D01*
X10450521Y-13032660D02*
X10460044Y-13042184D01*
X10460044Y-13042184D02*
X10469568Y-13061232D01*
X10469568Y-13061232D02*
X10479092Y-13099327D01*
X10479092Y-13099327D02*
X10479092Y-13146946D01*
X10479092Y-13146946D02*
X10469568Y-13185041D01*
X10469568Y-13185041D02*
X10460044Y-13204089D01*
X10460044Y-13204089D02*
X10450521Y-13213613D01*
X10450521Y-13213613D02*
X10431473Y-13223137D01*
X10431473Y-13223137D02*
X10412425Y-13223137D01*
X10412425Y-13223137D02*
X10393378Y-13213613D01*
X10393378Y-13213613D02*
X10383854Y-13204089D01*
X10383854Y-13204089D02*
X10374330Y-13185041D01*
X10374330Y-13185041D02*
X10364806Y-13146946D01*
X10364806Y-13146946D02*
X10364806Y-13099327D01*
X10364806Y-13099327D02*
X10374330Y-13061232D01*
X10374330Y-13061232D02*
X10383854Y-13042184D01*
X10383854Y-13042184D02*
X10393378Y-13032660D01*
X10393378Y-13032660D02*
X10412425Y-13023137D01*
X10602901Y-13023137D02*
X10621949Y-13023137D01*
X10621949Y-13023137D02*
X10640997Y-13032660D01*
X10640997Y-13032660D02*
X10650521Y-13042184D01*
X10650521Y-13042184D02*
X10660044Y-13061232D01*
X10660044Y-13061232D02*
X10669568Y-13099327D01*
X10669568Y-13099327D02*
X10669568Y-13146946D01*
X10669568Y-13146946D02*
X10660044Y-13185041D01*
X10660044Y-13185041D02*
X10650521Y-13204089D01*
X10650521Y-13204089D02*
X10640997Y-13213613D01*
X10640997Y-13213613D02*
X10621949Y-13223137D01*
X10621949Y-13223137D02*
X10602901Y-13223137D01*
X10602901Y-13223137D02*
X10583854Y-13213613D01*
X10583854Y-13213613D02*
X10574330Y-13204089D01*
X10574330Y-13204089D02*
X10564806Y-13185041D01*
X10564806Y-13185041D02*
X10555282Y-13146946D01*
X10555282Y-13146946D02*
X10555282Y-13099327D01*
X10555282Y-13099327D02*
X10564806Y-13061232D01*
X10564806Y-13061232D02*
X10574330Y-13042184D01*
X10574330Y-13042184D02*
X10583854Y-13032660D01*
X10583854Y-13032660D02*
X10602901Y-13023137D01*
X10755282Y-13223137D02*
X10755282Y-13089803D01*
X10755282Y-13108851D02*
X10764806Y-13099327D01*
X10764806Y-13099327D02*
X10783854Y-13089803D01*
X10783854Y-13089803D02*
X10812425Y-13089803D01*
X10812425Y-13089803D02*
X10831473Y-13099327D01*
X10831473Y-13099327D02*
X10840997Y-13118375D01*
X10840997Y-13118375D02*
X10840997Y-13223137D01*
X10840997Y-13118375D02*
X10850521Y-13099327D01*
X10850521Y-13099327D02*
X10869568Y-13089803D01*
X10869568Y-13089803D02*
X10898140Y-13089803D01*
X10898140Y-13089803D02*
X10917187Y-13099327D01*
X10917187Y-13099327D02*
X10926711Y-13118375D01*
X10926711Y-13118375D02*
X10926711Y-13223137D01*
X11021949Y-13223137D02*
X11021949Y-13089803D01*
X11021949Y-13108851D02*
X11031473Y-13099327D01*
X11031473Y-13099327D02*
X11050521Y-13089803D01*
X11050521Y-13089803D02*
X11079092Y-13089803D01*
X11079092Y-13089803D02*
X11098140Y-13099327D01*
X11098140Y-13099327D02*
X11107663Y-13118375D01*
X11107663Y-13118375D02*
X11107663Y-13223137D01*
X11107663Y-13118375D02*
X11117187Y-13099327D01*
X11117187Y-13099327D02*
X11136235Y-13089803D01*
X11136235Y-13089803D02*
X11164806Y-13089803D01*
X11164806Y-13089803D02*
X11183854Y-13099327D01*
X11183854Y-13099327D02*
X11193378Y-13118375D01*
X11193378Y-13118375D02*
X11193378Y-13223137D01*
X11583854Y-13013613D02*
X11412425Y-13270756D01*
X11840997Y-13023137D02*
X11860044Y-13023137D01*
X11860044Y-13023137D02*
X11879092Y-13032660D01*
X11879092Y-13032660D02*
X11888616Y-13042184D01*
X11888616Y-13042184D02*
X11898140Y-13061232D01*
X11898140Y-13061232D02*
X11907663Y-13099327D01*
X11907663Y-13099327D02*
X11907663Y-13146946D01*
X11907663Y-13146946D02*
X11898140Y-13185041D01*
X11898140Y-13185041D02*
X11888616Y-13204089D01*
X11888616Y-13204089D02*
X11879092Y-13213613D01*
X11879092Y-13213613D02*
X11860044Y-13223137D01*
X11860044Y-13223137D02*
X11840997Y-13223137D01*
X11840997Y-13223137D02*
X11821949Y-13213613D01*
X11821949Y-13213613D02*
X11812425Y-13204089D01*
X11812425Y-13204089D02*
X11802902Y-13185041D01*
X11802902Y-13185041D02*
X11793378Y-13146946D01*
X11793378Y-13146946D02*
X11793378Y-13099327D01*
X11793378Y-13099327D02*
X11802902Y-13061232D01*
X11802902Y-13061232D02*
X11812425Y-13042184D01*
X11812425Y-13042184D02*
X11821949Y-13032660D01*
X11821949Y-13032660D02*
X11840997Y-13023137D01*
X11993378Y-13204089D02*
X12002902Y-13213613D01*
X12002902Y-13213613D02*
X11993378Y-13223137D01*
X11993378Y-13223137D02*
X11983854Y-13213613D01*
X11983854Y-13213613D02*
X11993378Y-13204089D01*
X11993378Y-13204089D02*
X11993378Y-13223137D01*
X12126711Y-13023137D02*
X12145759Y-13023137D01*
X12145759Y-13023137D02*
X12164806Y-13032660D01*
X12164806Y-13032660D02*
X12174330Y-13042184D01*
X12174330Y-13042184D02*
X12183854Y-13061232D01*
X12183854Y-13061232D02*
X12193378Y-13099327D01*
X12193378Y-13099327D02*
X12193378Y-13146946D01*
X12193378Y-13146946D02*
X12183854Y-13185041D01*
X12183854Y-13185041D02*
X12174330Y-13204089D01*
X12174330Y-13204089D02*
X12164806Y-13213613D01*
X12164806Y-13213613D02*
X12145759Y-13223137D01*
X12145759Y-13223137D02*
X12126711Y-13223137D01*
X12126711Y-13223137D02*
X12107663Y-13213613D01*
X12107663Y-13213613D02*
X12098140Y-13204089D01*
X12098140Y-13204089D02*
X12088616Y-13185041D01*
X12088616Y-13185041D02*
X12079092Y-13146946D01*
X12079092Y-13146946D02*
X12079092Y-13099327D01*
X12079092Y-13099327D02*
X12088616Y-13061232D01*
X12088616Y-13061232D02*
X12098140Y-13042184D01*
X12098140Y-13042184D02*
X12107663Y-13032660D01*
X12107663Y-13032660D02*
X12126711Y-13023137D01*
X12383854Y-13223137D02*
X12269568Y-13223137D01*
X12326711Y-13223137D02*
X12326711Y-13023137D01*
X12326711Y-13023137D02*
X12307663Y-13051708D01*
X12307663Y-13051708D02*
X12288616Y-13070756D01*
X12288616Y-13070756D02*
X12269568Y-13080279D01*
X12564806Y-13023137D02*
X12469568Y-13023137D01*
X12469568Y-13023137D02*
X12460044Y-13118375D01*
X12460044Y-13118375D02*
X12469568Y-13108851D01*
X12469568Y-13108851D02*
X12488616Y-13099327D01*
X12488616Y-13099327D02*
X12536235Y-13099327D01*
X12536235Y-13099327D02*
X12555283Y-13108851D01*
X12555283Y-13108851D02*
X12564806Y-13118375D01*
X12564806Y-13118375D02*
X12574330Y-13137422D01*
X12574330Y-13137422D02*
X12574330Y-13185041D01*
X12574330Y-13185041D02*
X12564806Y-13204089D01*
X12564806Y-13204089D02*
X12555283Y-13213613D01*
X12555283Y-13213613D02*
X12536235Y-13223137D01*
X12536235Y-13223137D02*
X12488616Y-13223137D01*
X12488616Y-13223137D02*
X12469568Y-13213613D01*
X12469568Y-13213613D02*
X12460044Y-13204089D01*
X12640997Y-13023137D02*
X12774330Y-13023137D01*
X12774330Y-13023137D02*
X12688616Y-13223137D01*
X12840997Y-13023137D02*
X12840997Y-13061232D01*
X12917187Y-13023137D02*
X12917187Y-13061232D01*
X13212426Y-13299327D02*
X13202902Y-13289803D01*
X13202902Y-13289803D02*
X13183854Y-13261232D01*
X13183854Y-13261232D02*
X13174330Y-13242184D01*
X13174330Y-13242184D02*
X13164806Y-13213613D01*
X13164806Y-13213613D02*
X13155283Y-13165994D01*
X13155283Y-13165994D02*
X13155283Y-13127898D01*
X13155283Y-13127898D02*
X13164806Y-13080279D01*
X13164806Y-13080279D02*
X13174330Y-13051708D01*
X13174330Y-13051708D02*
X13183854Y-13032660D01*
X13183854Y-13032660D02*
X13202902Y-13004089D01*
X13202902Y-13004089D02*
X13212426Y-12994565D01*
X13393378Y-13223137D02*
X13279092Y-13223137D01*
X13336235Y-13223137D02*
X13336235Y-13023137D01*
X13336235Y-13023137D02*
X13317187Y-13051708D01*
X13317187Y-13051708D02*
X13298140Y-13070756D01*
X13298140Y-13070756D02*
X13279092Y-13080279D01*
X13460045Y-13023137D02*
X13583854Y-13023137D01*
X13583854Y-13023137D02*
X13517187Y-13099327D01*
X13517187Y-13099327D02*
X13545759Y-13099327D01*
X13545759Y-13099327D02*
X13564806Y-13108851D01*
X13564806Y-13108851D02*
X13574330Y-13118375D01*
X13574330Y-13118375D02*
X13583854Y-13137422D01*
X13583854Y-13137422D02*
X13583854Y-13185041D01*
X13583854Y-13185041D02*
X13574330Y-13204089D01*
X13574330Y-13204089D02*
X13564806Y-13213613D01*
X13564806Y-13213613D02*
X13545759Y-13223137D01*
X13545759Y-13223137D02*
X13488616Y-13223137D01*
X13488616Y-13223137D02*
X13469568Y-13213613D01*
X13469568Y-13213613D02*
X13460045Y-13204089D01*
X13821949Y-13223137D02*
X13821949Y-13023137D01*
X13907664Y-13223137D02*
X13907664Y-13118375D01*
X13907664Y-13118375D02*
X13898140Y-13099327D01*
X13898140Y-13099327D02*
X13879092Y-13089803D01*
X13879092Y-13089803D02*
X13850521Y-13089803D01*
X13850521Y-13089803D02*
X13831473Y-13099327D01*
X13831473Y-13099327D02*
X13821949Y-13108851D01*
X14031473Y-13223137D02*
X14012426Y-13213613D01*
X14012426Y-13213613D02*
X14002902Y-13204089D01*
X14002902Y-13204089D02*
X13993378Y-13185041D01*
X13993378Y-13185041D02*
X13993378Y-13127898D01*
X13993378Y-13127898D02*
X14002902Y-13108851D01*
X14002902Y-13108851D02*
X14012426Y-13099327D01*
X14012426Y-13099327D02*
X14031473Y-13089803D01*
X14031473Y-13089803D02*
X14060045Y-13089803D01*
X14060045Y-13089803D02*
X14079092Y-13099327D01*
X14079092Y-13099327D02*
X14088616Y-13108851D01*
X14088616Y-13108851D02*
X14098140Y-13127898D01*
X14098140Y-13127898D02*
X14098140Y-13185041D01*
X14098140Y-13185041D02*
X14088616Y-13204089D01*
X14088616Y-13204089D02*
X14079092Y-13213613D01*
X14079092Y-13213613D02*
X14060045Y-13223137D01*
X14060045Y-13223137D02*
X14031473Y-13223137D01*
X14212426Y-13223137D02*
X14193378Y-13213613D01*
X14193378Y-13213613D02*
X14183854Y-13194565D01*
X14183854Y-13194565D02*
X14183854Y-13023137D01*
X14364807Y-13213613D02*
X14345759Y-13223137D01*
X14345759Y-13223137D02*
X14307664Y-13223137D01*
X14307664Y-13223137D02*
X14288616Y-13213613D01*
X14288616Y-13213613D02*
X14279092Y-13194565D01*
X14279092Y-13194565D02*
X14279092Y-13118375D01*
X14279092Y-13118375D02*
X14288616Y-13099327D01*
X14288616Y-13099327D02*
X14307664Y-13089803D01*
X14307664Y-13089803D02*
X14345759Y-13089803D01*
X14345759Y-13089803D02*
X14364807Y-13099327D01*
X14364807Y-13099327D02*
X14374330Y-13118375D01*
X14374330Y-13118375D02*
X14374330Y-13137422D01*
X14374330Y-13137422D02*
X14279092Y-13156470D01*
X14450521Y-13213613D02*
X14469568Y-13223137D01*
X14469568Y-13223137D02*
X14507664Y-13223137D01*
X14507664Y-13223137D02*
X14526711Y-13213613D01*
X14526711Y-13213613D02*
X14536235Y-13194565D01*
X14536235Y-13194565D02*
X14536235Y-13185041D01*
X14536235Y-13185041D02*
X14526711Y-13165994D01*
X14526711Y-13165994D02*
X14507664Y-13156470D01*
X14507664Y-13156470D02*
X14479092Y-13156470D01*
X14479092Y-13156470D02*
X14460045Y-13146946D01*
X14460045Y-13146946D02*
X14450521Y-13127898D01*
X14450521Y-13127898D02*
X14450521Y-13118375D01*
X14450521Y-13118375D02*
X14460045Y-13099327D01*
X14460045Y-13099327D02*
X14479092Y-13089803D01*
X14479092Y-13089803D02*
X14507664Y-13089803D01*
X14507664Y-13089803D02*
X14526711Y-13099327D01*
X14602902Y-13299327D02*
X14612426Y-13289803D01*
X14612426Y-13289803D02*
X14631473Y-13261232D01*
X14631473Y-13261232D02*
X14640997Y-13242184D01*
X14640997Y-13242184D02*
X14650521Y-13213613D01*
X14650521Y-13213613D02*
X14660045Y-13165994D01*
X14660045Y-13165994D02*
X14660045Y-13127898D01*
X14660045Y-13127898D02*
X14650521Y-13080279D01*
X14650521Y-13080279D02*
X14640997Y-13051708D01*
X14640997Y-13051708D02*
X14631473Y-13032660D01*
X14631473Y-13032660D02*
X14612426Y-13004089D01*
X14612426Y-13004089D02*
X14602902Y-12994565D01*
D13*
X9637363Y-13395653D02*
G75*
G03*
X9637363Y-13395653I-38100J0D01*
G01*
D11*
X9936235Y-13287137D02*
X9955282Y-13287137D01*
X9955282Y-13287137D02*
X9974330Y-13296660D01*
X9974330Y-13296660D02*
X9983854Y-13306184D01*
X9983854Y-13306184D02*
X9993378Y-13325232D01*
X9993378Y-13325232D02*
X10002901Y-13363327D01*
X10002901Y-13363327D02*
X10002901Y-13410946D01*
X10002901Y-13410946D02*
X9993378Y-13449041D01*
X9993378Y-13449041D02*
X9983854Y-13468089D01*
X9983854Y-13468089D02*
X9974330Y-13477613D01*
X9974330Y-13477613D02*
X9955282Y-13487137D01*
X9955282Y-13487137D02*
X9936235Y-13487137D01*
X9936235Y-13487137D02*
X9917187Y-13477613D01*
X9917187Y-13477613D02*
X9907663Y-13468089D01*
X9907663Y-13468089D02*
X9898140Y-13449041D01*
X9898140Y-13449041D02*
X9888616Y-13410946D01*
X9888616Y-13410946D02*
X9888616Y-13363327D01*
X9888616Y-13363327D02*
X9898140Y-13325232D01*
X9898140Y-13325232D02*
X9907663Y-13306184D01*
X9907663Y-13306184D02*
X9917187Y-13296660D01*
X9917187Y-13296660D02*
X9936235Y-13287137D01*
X10088616Y-13468089D02*
X10098140Y-13477613D01*
X10098140Y-13477613D02*
X10088616Y-13487137D01*
X10088616Y-13487137D02*
X10079092Y-13477613D01*
X10079092Y-13477613D02*
X10088616Y-13468089D01*
X10088616Y-13468089D02*
X10088616Y-13487137D01*
X10164806Y-13287137D02*
X10298140Y-13287137D01*
X10298140Y-13287137D02*
X10212425Y-13487137D01*
X10460044Y-13287137D02*
X10421949Y-13287137D01*
X10421949Y-13287137D02*
X10402901Y-13296660D01*
X10402901Y-13296660D02*
X10393378Y-13306184D01*
X10393378Y-13306184D02*
X10374330Y-13334756D01*
X10374330Y-13334756D02*
X10364806Y-13372851D01*
X10364806Y-13372851D02*
X10364806Y-13449041D01*
X10364806Y-13449041D02*
X10374330Y-13468089D01*
X10374330Y-13468089D02*
X10383854Y-13477613D01*
X10383854Y-13477613D02*
X10402901Y-13487137D01*
X10402901Y-13487137D02*
X10440997Y-13487137D01*
X10440997Y-13487137D02*
X10460044Y-13477613D01*
X10460044Y-13477613D02*
X10469568Y-13468089D01*
X10469568Y-13468089D02*
X10479092Y-13449041D01*
X10479092Y-13449041D02*
X10479092Y-13401422D01*
X10479092Y-13401422D02*
X10469568Y-13382375D01*
X10469568Y-13382375D02*
X10460044Y-13372851D01*
X10460044Y-13372851D02*
X10440997Y-13363327D01*
X10440997Y-13363327D02*
X10402901Y-13363327D01*
X10402901Y-13363327D02*
X10383854Y-13372851D01*
X10383854Y-13372851D02*
X10374330Y-13382375D01*
X10374330Y-13382375D02*
X10364806Y-13401422D01*
X10555282Y-13306184D02*
X10564806Y-13296660D01*
X10564806Y-13296660D02*
X10583854Y-13287137D01*
X10583854Y-13287137D02*
X10631473Y-13287137D01*
X10631473Y-13287137D02*
X10650521Y-13296660D01*
X10650521Y-13296660D02*
X10660044Y-13306184D01*
X10660044Y-13306184D02*
X10669568Y-13325232D01*
X10669568Y-13325232D02*
X10669568Y-13344279D01*
X10669568Y-13344279D02*
X10660044Y-13372851D01*
X10660044Y-13372851D02*
X10545759Y-13487137D01*
X10545759Y-13487137D02*
X10669568Y-13487137D01*
X10755282Y-13487137D02*
X10755282Y-13353803D01*
X10755282Y-13372851D02*
X10764806Y-13363327D01*
X10764806Y-13363327D02*
X10783854Y-13353803D01*
X10783854Y-13353803D02*
X10812425Y-13353803D01*
X10812425Y-13353803D02*
X10831473Y-13363327D01*
X10831473Y-13363327D02*
X10840997Y-13382375D01*
X10840997Y-13382375D02*
X10840997Y-13487137D01*
X10840997Y-13382375D02*
X10850521Y-13363327D01*
X10850521Y-13363327D02*
X10869568Y-13353803D01*
X10869568Y-13353803D02*
X10898140Y-13353803D01*
X10898140Y-13353803D02*
X10917187Y-13363327D01*
X10917187Y-13363327D02*
X10926711Y-13382375D01*
X10926711Y-13382375D02*
X10926711Y-13487137D01*
X11021949Y-13487137D02*
X11021949Y-13353803D01*
X11021949Y-13372851D02*
X11031473Y-13363327D01*
X11031473Y-13363327D02*
X11050521Y-13353803D01*
X11050521Y-13353803D02*
X11079092Y-13353803D01*
X11079092Y-13353803D02*
X11098140Y-13363327D01*
X11098140Y-13363327D02*
X11107663Y-13382375D01*
X11107663Y-13382375D02*
X11107663Y-13487137D01*
X11107663Y-13382375D02*
X11117187Y-13363327D01*
X11117187Y-13363327D02*
X11136235Y-13353803D01*
X11136235Y-13353803D02*
X11164806Y-13353803D01*
X11164806Y-13353803D02*
X11183854Y-13363327D01*
X11183854Y-13363327D02*
X11193378Y-13382375D01*
X11193378Y-13382375D02*
X11193378Y-13487137D01*
X11583854Y-13277613D02*
X11412425Y-13534756D01*
X11840997Y-13287137D02*
X11860044Y-13287137D01*
X11860044Y-13287137D02*
X11879092Y-13296660D01*
X11879092Y-13296660D02*
X11888616Y-13306184D01*
X11888616Y-13306184D02*
X11898140Y-13325232D01*
X11898140Y-13325232D02*
X11907663Y-13363327D01*
X11907663Y-13363327D02*
X11907663Y-13410946D01*
X11907663Y-13410946D02*
X11898140Y-13449041D01*
X11898140Y-13449041D02*
X11888616Y-13468089D01*
X11888616Y-13468089D02*
X11879092Y-13477613D01*
X11879092Y-13477613D02*
X11860044Y-13487137D01*
X11860044Y-13487137D02*
X11840997Y-13487137D01*
X11840997Y-13487137D02*
X11821949Y-13477613D01*
X11821949Y-13477613D02*
X11812425Y-13468089D01*
X11812425Y-13468089D02*
X11802902Y-13449041D01*
X11802902Y-13449041D02*
X11793378Y-13410946D01*
X11793378Y-13410946D02*
X11793378Y-13363327D01*
X11793378Y-13363327D02*
X11802902Y-13325232D01*
X11802902Y-13325232D02*
X11812425Y-13306184D01*
X11812425Y-13306184D02*
X11821949Y-13296660D01*
X11821949Y-13296660D02*
X11840997Y-13287137D01*
X11993378Y-13468089D02*
X12002902Y-13477613D01*
X12002902Y-13477613D02*
X11993378Y-13487137D01*
X11993378Y-13487137D02*
X11983854Y-13477613D01*
X11983854Y-13477613D02*
X11993378Y-13468089D01*
X11993378Y-13468089D02*
X11993378Y-13487137D01*
X12126711Y-13287137D02*
X12145759Y-13287137D01*
X12145759Y-13287137D02*
X12164806Y-13296660D01*
X12164806Y-13296660D02*
X12174330Y-13306184D01*
X12174330Y-13306184D02*
X12183854Y-13325232D01*
X12183854Y-13325232D02*
X12193378Y-13363327D01*
X12193378Y-13363327D02*
X12193378Y-13410946D01*
X12193378Y-13410946D02*
X12183854Y-13449041D01*
X12183854Y-13449041D02*
X12174330Y-13468089D01*
X12174330Y-13468089D02*
X12164806Y-13477613D01*
X12164806Y-13477613D02*
X12145759Y-13487137D01*
X12145759Y-13487137D02*
X12126711Y-13487137D01*
X12126711Y-13487137D02*
X12107663Y-13477613D01*
X12107663Y-13477613D02*
X12098140Y-13468089D01*
X12098140Y-13468089D02*
X12088616Y-13449041D01*
X12088616Y-13449041D02*
X12079092Y-13410946D01*
X12079092Y-13410946D02*
X12079092Y-13363327D01*
X12079092Y-13363327D02*
X12088616Y-13325232D01*
X12088616Y-13325232D02*
X12098140Y-13306184D01*
X12098140Y-13306184D02*
X12107663Y-13296660D01*
X12107663Y-13296660D02*
X12126711Y-13287137D01*
X12260044Y-13287137D02*
X12383854Y-13287137D01*
X12383854Y-13287137D02*
X12317187Y-13363327D01*
X12317187Y-13363327D02*
X12345759Y-13363327D01*
X12345759Y-13363327D02*
X12364806Y-13372851D01*
X12364806Y-13372851D02*
X12374330Y-13382375D01*
X12374330Y-13382375D02*
X12383854Y-13401422D01*
X12383854Y-13401422D02*
X12383854Y-13449041D01*
X12383854Y-13449041D02*
X12374330Y-13468089D01*
X12374330Y-13468089D02*
X12364806Y-13477613D01*
X12364806Y-13477613D02*
X12345759Y-13487137D01*
X12345759Y-13487137D02*
X12288616Y-13487137D01*
X12288616Y-13487137D02*
X12269568Y-13477613D01*
X12269568Y-13477613D02*
X12260044Y-13468089D01*
X12507663Y-13287137D02*
X12526711Y-13287137D01*
X12526711Y-13287137D02*
X12545759Y-13296660D01*
X12545759Y-13296660D02*
X12555283Y-13306184D01*
X12555283Y-13306184D02*
X12564806Y-13325232D01*
X12564806Y-13325232D02*
X12574330Y-13363327D01*
X12574330Y-13363327D02*
X12574330Y-13410946D01*
X12574330Y-13410946D02*
X12564806Y-13449041D01*
X12564806Y-13449041D02*
X12555283Y-13468089D01*
X12555283Y-13468089D02*
X12545759Y-13477613D01*
X12545759Y-13477613D02*
X12526711Y-13487137D01*
X12526711Y-13487137D02*
X12507663Y-13487137D01*
X12507663Y-13487137D02*
X12488616Y-13477613D01*
X12488616Y-13477613D02*
X12479092Y-13468089D01*
X12479092Y-13468089D02*
X12469568Y-13449041D01*
X12469568Y-13449041D02*
X12460044Y-13410946D01*
X12460044Y-13410946D02*
X12460044Y-13363327D01*
X12460044Y-13363327D02*
X12469568Y-13325232D01*
X12469568Y-13325232D02*
X12479092Y-13306184D01*
X12479092Y-13306184D02*
X12488616Y-13296660D01*
X12488616Y-13296660D02*
X12507663Y-13287137D01*
X12698140Y-13287137D02*
X12717187Y-13287137D01*
X12717187Y-13287137D02*
X12736235Y-13296660D01*
X12736235Y-13296660D02*
X12745759Y-13306184D01*
X12745759Y-13306184D02*
X12755283Y-13325232D01*
X12755283Y-13325232D02*
X12764806Y-13363327D01*
X12764806Y-13363327D02*
X12764806Y-13410946D01*
X12764806Y-13410946D02*
X12755283Y-13449041D01*
X12755283Y-13449041D02*
X12745759Y-13468089D01*
X12745759Y-13468089D02*
X12736235Y-13477613D01*
X12736235Y-13477613D02*
X12717187Y-13487137D01*
X12717187Y-13487137D02*
X12698140Y-13487137D01*
X12698140Y-13487137D02*
X12679092Y-13477613D01*
X12679092Y-13477613D02*
X12669568Y-13468089D01*
X12669568Y-13468089D02*
X12660044Y-13449041D01*
X12660044Y-13449041D02*
X12650521Y-13410946D01*
X12650521Y-13410946D02*
X12650521Y-13363327D01*
X12650521Y-13363327D02*
X12660044Y-13325232D01*
X12660044Y-13325232D02*
X12669568Y-13306184D01*
X12669568Y-13306184D02*
X12679092Y-13296660D01*
X12679092Y-13296660D02*
X12698140Y-13287137D01*
X12840997Y-13287137D02*
X12840997Y-13325232D01*
X12917187Y-13287137D02*
X12917187Y-13325232D01*
X13212426Y-13563327D02*
X13202902Y-13553803D01*
X13202902Y-13553803D02*
X13183854Y-13525232D01*
X13183854Y-13525232D02*
X13174330Y-13506184D01*
X13174330Y-13506184D02*
X13164806Y-13477613D01*
X13164806Y-13477613D02*
X13155283Y-13429994D01*
X13155283Y-13429994D02*
X13155283Y-13391898D01*
X13155283Y-13391898D02*
X13164806Y-13344279D01*
X13164806Y-13344279D02*
X13174330Y-13315708D01*
X13174330Y-13315708D02*
X13183854Y-13296660D01*
X13183854Y-13296660D02*
X13202902Y-13268089D01*
X13202902Y-13268089D02*
X13212426Y-13258565D01*
X13393378Y-13487137D02*
X13279092Y-13487137D01*
X13336235Y-13487137D02*
X13336235Y-13287137D01*
X13336235Y-13287137D02*
X13317187Y-13315708D01*
X13317187Y-13315708D02*
X13298140Y-13334756D01*
X13298140Y-13334756D02*
X13279092Y-13344279D01*
X13574330Y-13287137D02*
X13479092Y-13287137D01*
X13479092Y-13287137D02*
X13469568Y-13382375D01*
X13469568Y-13382375D02*
X13479092Y-13372851D01*
X13479092Y-13372851D02*
X13498140Y-13363327D01*
X13498140Y-13363327D02*
X13545759Y-13363327D01*
X13545759Y-13363327D02*
X13564806Y-13372851D01*
X13564806Y-13372851D02*
X13574330Y-13382375D01*
X13574330Y-13382375D02*
X13583854Y-13401422D01*
X13583854Y-13401422D02*
X13583854Y-13449041D01*
X13583854Y-13449041D02*
X13574330Y-13468089D01*
X13574330Y-13468089D02*
X13564806Y-13477613D01*
X13564806Y-13477613D02*
X13545759Y-13487137D01*
X13545759Y-13487137D02*
X13498140Y-13487137D01*
X13498140Y-13487137D02*
X13479092Y-13477613D01*
X13479092Y-13477613D02*
X13469568Y-13468089D01*
X13821949Y-13487137D02*
X13821949Y-13287137D01*
X13907664Y-13487137D02*
X13907664Y-13382375D01*
X13907664Y-13382375D02*
X13898140Y-13363327D01*
X13898140Y-13363327D02*
X13879092Y-13353803D01*
X13879092Y-13353803D02*
X13850521Y-13353803D01*
X13850521Y-13353803D02*
X13831473Y-13363327D01*
X13831473Y-13363327D02*
X13821949Y-13372851D01*
X14031473Y-13487137D02*
X14012426Y-13477613D01*
X14012426Y-13477613D02*
X14002902Y-13468089D01*
X14002902Y-13468089D02*
X13993378Y-13449041D01*
X13993378Y-13449041D02*
X13993378Y-13391898D01*
X13993378Y-13391898D02*
X14002902Y-13372851D01*
X14002902Y-13372851D02*
X14012426Y-13363327D01*
X14012426Y-13363327D02*
X14031473Y-13353803D01*
X14031473Y-13353803D02*
X14060045Y-13353803D01*
X14060045Y-13353803D02*
X14079092Y-13363327D01*
X14079092Y-13363327D02*
X14088616Y-13372851D01*
X14088616Y-13372851D02*
X14098140Y-13391898D01*
X14098140Y-13391898D02*
X14098140Y-13449041D01*
X14098140Y-13449041D02*
X14088616Y-13468089D01*
X14088616Y-13468089D02*
X14079092Y-13477613D01*
X14079092Y-13477613D02*
X14060045Y-13487137D01*
X14060045Y-13487137D02*
X14031473Y-13487137D01*
X14212426Y-13487137D02*
X14193378Y-13477613D01*
X14193378Y-13477613D02*
X14183854Y-13458565D01*
X14183854Y-13458565D02*
X14183854Y-13287137D01*
X14364807Y-13477613D02*
X14345759Y-13487137D01*
X14345759Y-13487137D02*
X14307664Y-13487137D01*
X14307664Y-13487137D02*
X14288616Y-13477613D01*
X14288616Y-13477613D02*
X14279092Y-13458565D01*
X14279092Y-13458565D02*
X14279092Y-13382375D01*
X14279092Y-13382375D02*
X14288616Y-13363327D01*
X14288616Y-13363327D02*
X14307664Y-13353803D01*
X14307664Y-13353803D02*
X14345759Y-13353803D01*
X14345759Y-13353803D02*
X14364807Y-13363327D01*
X14364807Y-13363327D02*
X14374330Y-13382375D01*
X14374330Y-13382375D02*
X14374330Y-13401422D01*
X14374330Y-13401422D02*
X14279092Y-13420470D01*
X14450521Y-13477613D02*
X14469568Y-13487137D01*
X14469568Y-13487137D02*
X14507664Y-13487137D01*
X14507664Y-13487137D02*
X14526711Y-13477613D01*
X14526711Y-13477613D02*
X14536235Y-13458565D01*
X14536235Y-13458565D02*
X14536235Y-13449041D01*
X14536235Y-13449041D02*
X14526711Y-13429994D01*
X14526711Y-13429994D02*
X14507664Y-13420470D01*
X14507664Y-13420470D02*
X14479092Y-13420470D01*
X14479092Y-13420470D02*
X14460045Y-13410946D01*
X14460045Y-13410946D02*
X14450521Y-13391898D01*
X14450521Y-13391898D02*
X14450521Y-13382375D01*
X14450521Y-13382375D02*
X14460045Y-13363327D01*
X14460045Y-13363327D02*
X14479092Y-13353803D01*
X14479092Y-13353803D02*
X14507664Y-13353803D01*
X14507664Y-13353803D02*
X14526711Y-13363327D01*
X14602902Y-13563327D02*
X14612426Y-13553803D01*
X14612426Y-13553803D02*
X14631473Y-13525232D01*
X14631473Y-13525232D02*
X14640997Y-13506184D01*
X14640997Y-13506184D02*
X14650521Y-13477613D01*
X14650521Y-13477613D02*
X14660045Y-13429994D01*
X14660045Y-13429994D02*
X14660045Y-13391898D01*
X14660045Y-13391898D02*
X14650521Y-13344279D01*
X14650521Y-13344279D02*
X14640997Y-13315708D01*
X14640997Y-13315708D02*
X14631473Y-13296660D01*
X14631473Y-13296660D02*
X14612426Y-13268089D01*
X14612426Y-13268089D02*
X14602902Y-13258565D01*
D10*
X9587363Y-13609653D02*
X9587363Y-13709653D01*
X9537363Y-13659653D02*
X9637363Y-13659653D01*
D11*
X10002901Y-13751137D02*
X9888616Y-13751137D01*
X9945759Y-13751137D02*
X9945759Y-13551137D01*
X9945759Y-13551137D02*
X9926711Y-13579708D01*
X9926711Y-13579708D02*
X9907663Y-13598756D01*
X9907663Y-13598756D02*
X9888616Y-13608279D01*
X10088616Y-13732089D02*
X10098140Y-13741613D01*
X10098140Y-13741613D02*
X10088616Y-13751137D01*
X10088616Y-13751137D02*
X10079092Y-13741613D01*
X10079092Y-13741613D02*
X10088616Y-13732089D01*
X10088616Y-13732089D02*
X10088616Y-13751137D01*
X10221949Y-13551137D02*
X10240997Y-13551137D01*
X10240997Y-13551137D02*
X10260044Y-13560660D01*
X10260044Y-13560660D02*
X10269568Y-13570184D01*
X10269568Y-13570184D02*
X10279092Y-13589232D01*
X10279092Y-13589232D02*
X10288616Y-13627327D01*
X10288616Y-13627327D02*
X10288616Y-13674946D01*
X10288616Y-13674946D02*
X10279092Y-13713041D01*
X10279092Y-13713041D02*
X10269568Y-13732089D01*
X10269568Y-13732089D02*
X10260044Y-13741613D01*
X10260044Y-13741613D02*
X10240997Y-13751137D01*
X10240997Y-13751137D02*
X10221949Y-13751137D01*
X10221949Y-13751137D02*
X10202901Y-13741613D01*
X10202901Y-13741613D02*
X10193378Y-13732089D01*
X10193378Y-13732089D02*
X10183854Y-13713041D01*
X10183854Y-13713041D02*
X10174330Y-13674946D01*
X10174330Y-13674946D02*
X10174330Y-13627327D01*
X10174330Y-13627327D02*
X10183854Y-13589232D01*
X10183854Y-13589232D02*
X10193378Y-13570184D01*
X10193378Y-13570184D02*
X10202901Y-13560660D01*
X10202901Y-13560660D02*
X10221949Y-13551137D01*
X10412425Y-13551137D02*
X10431473Y-13551137D01*
X10431473Y-13551137D02*
X10450521Y-13560660D01*
X10450521Y-13560660D02*
X10460044Y-13570184D01*
X10460044Y-13570184D02*
X10469568Y-13589232D01*
X10469568Y-13589232D02*
X10479092Y-13627327D01*
X10479092Y-13627327D02*
X10479092Y-13674946D01*
X10479092Y-13674946D02*
X10469568Y-13713041D01*
X10469568Y-13713041D02*
X10460044Y-13732089D01*
X10460044Y-13732089D02*
X10450521Y-13741613D01*
X10450521Y-13741613D02*
X10431473Y-13751137D01*
X10431473Y-13751137D02*
X10412425Y-13751137D01*
X10412425Y-13751137D02*
X10393378Y-13741613D01*
X10393378Y-13741613D02*
X10383854Y-13732089D01*
X10383854Y-13732089D02*
X10374330Y-13713041D01*
X10374330Y-13713041D02*
X10364806Y-13674946D01*
X10364806Y-13674946D02*
X10364806Y-13627327D01*
X10364806Y-13627327D02*
X10374330Y-13589232D01*
X10374330Y-13589232D02*
X10383854Y-13570184D01*
X10383854Y-13570184D02*
X10393378Y-13560660D01*
X10393378Y-13560660D02*
X10412425Y-13551137D01*
X10602901Y-13551137D02*
X10621949Y-13551137D01*
X10621949Y-13551137D02*
X10640997Y-13560660D01*
X10640997Y-13560660D02*
X10650521Y-13570184D01*
X10650521Y-13570184D02*
X10660044Y-13589232D01*
X10660044Y-13589232D02*
X10669568Y-13627327D01*
X10669568Y-13627327D02*
X10669568Y-13674946D01*
X10669568Y-13674946D02*
X10660044Y-13713041D01*
X10660044Y-13713041D02*
X10650521Y-13732089D01*
X10650521Y-13732089D02*
X10640997Y-13741613D01*
X10640997Y-13741613D02*
X10621949Y-13751137D01*
X10621949Y-13751137D02*
X10602901Y-13751137D01*
X10602901Y-13751137D02*
X10583854Y-13741613D01*
X10583854Y-13741613D02*
X10574330Y-13732089D01*
X10574330Y-13732089D02*
X10564806Y-13713041D01*
X10564806Y-13713041D02*
X10555282Y-13674946D01*
X10555282Y-13674946D02*
X10555282Y-13627327D01*
X10555282Y-13627327D02*
X10564806Y-13589232D01*
X10564806Y-13589232D02*
X10574330Y-13570184D01*
X10574330Y-13570184D02*
X10583854Y-13560660D01*
X10583854Y-13560660D02*
X10602901Y-13551137D01*
X10755282Y-13751137D02*
X10755282Y-13617803D01*
X10755282Y-13636851D02*
X10764806Y-13627327D01*
X10764806Y-13627327D02*
X10783854Y-13617803D01*
X10783854Y-13617803D02*
X10812425Y-13617803D01*
X10812425Y-13617803D02*
X10831473Y-13627327D01*
X10831473Y-13627327D02*
X10840997Y-13646375D01*
X10840997Y-13646375D02*
X10840997Y-13751137D01*
X10840997Y-13646375D02*
X10850521Y-13627327D01*
X10850521Y-13627327D02*
X10869568Y-13617803D01*
X10869568Y-13617803D02*
X10898140Y-13617803D01*
X10898140Y-13617803D02*
X10917187Y-13627327D01*
X10917187Y-13627327D02*
X10926711Y-13646375D01*
X10926711Y-13646375D02*
X10926711Y-13751137D01*
X11021949Y-13751137D02*
X11021949Y-13617803D01*
X11021949Y-13636851D02*
X11031473Y-13627327D01*
X11031473Y-13627327D02*
X11050521Y-13617803D01*
X11050521Y-13617803D02*
X11079092Y-13617803D01*
X11079092Y-13617803D02*
X11098140Y-13627327D01*
X11098140Y-13627327D02*
X11107663Y-13646375D01*
X11107663Y-13646375D02*
X11107663Y-13751137D01*
X11107663Y-13646375D02*
X11117187Y-13627327D01*
X11117187Y-13627327D02*
X11136235Y-13617803D01*
X11136235Y-13617803D02*
X11164806Y-13617803D01*
X11164806Y-13617803D02*
X11183854Y-13627327D01*
X11183854Y-13627327D02*
X11193378Y-13646375D01*
X11193378Y-13646375D02*
X11193378Y-13751137D01*
X11583854Y-13541613D02*
X11412425Y-13798756D01*
X11840997Y-13551137D02*
X11860044Y-13551137D01*
X11860044Y-13551137D02*
X11879092Y-13560660D01*
X11879092Y-13560660D02*
X11888616Y-13570184D01*
X11888616Y-13570184D02*
X11898140Y-13589232D01*
X11898140Y-13589232D02*
X11907663Y-13627327D01*
X11907663Y-13627327D02*
X11907663Y-13674946D01*
X11907663Y-13674946D02*
X11898140Y-13713041D01*
X11898140Y-13713041D02*
X11888616Y-13732089D01*
X11888616Y-13732089D02*
X11879092Y-13741613D01*
X11879092Y-13741613D02*
X11860044Y-13751137D01*
X11860044Y-13751137D02*
X11840997Y-13751137D01*
X11840997Y-13751137D02*
X11821949Y-13741613D01*
X11821949Y-13741613D02*
X11812425Y-13732089D01*
X11812425Y-13732089D02*
X11802902Y-13713041D01*
X11802902Y-13713041D02*
X11793378Y-13674946D01*
X11793378Y-13674946D02*
X11793378Y-13627327D01*
X11793378Y-13627327D02*
X11802902Y-13589232D01*
X11802902Y-13589232D02*
X11812425Y-13570184D01*
X11812425Y-13570184D02*
X11821949Y-13560660D01*
X11821949Y-13560660D02*
X11840997Y-13551137D01*
X11993378Y-13732089D02*
X12002902Y-13741613D01*
X12002902Y-13741613D02*
X11993378Y-13751137D01*
X11993378Y-13751137D02*
X11983854Y-13741613D01*
X11983854Y-13741613D02*
X11993378Y-13732089D01*
X11993378Y-13732089D02*
X11993378Y-13751137D01*
X12126711Y-13551137D02*
X12145759Y-13551137D01*
X12145759Y-13551137D02*
X12164806Y-13560660D01*
X12164806Y-13560660D02*
X12174330Y-13570184D01*
X12174330Y-13570184D02*
X12183854Y-13589232D01*
X12183854Y-13589232D02*
X12193378Y-13627327D01*
X12193378Y-13627327D02*
X12193378Y-13674946D01*
X12193378Y-13674946D02*
X12183854Y-13713041D01*
X12183854Y-13713041D02*
X12174330Y-13732089D01*
X12174330Y-13732089D02*
X12164806Y-13741613D01*
X12164806Y-13741613D02*
X12145759Y-13751137D01*
X12145759Y-13751137D02*
X12126711Y-13751137D01*
X12126711Y-13751137D02*
X12107663Y-13741613D01*
X12107663Y-13741613D02*
X12098140Y-13732089D01*
X12098140Y-13732089D02*
X12088616Y-13713041D01*
X12088616Y-13713041D02*
X12079092Y-13674946D01*
X12079092Y-13674946D02*
X12079092Y-13627327D01*
X12079092Y-13627327D02*
X12088616Y-13589232D01*
X12088616Y-13589232D02*
X12098140Y-13570184D01*
X12098140Y-13570184D02*
X12107663Y-13560660D01*
X12107663Y-13560660D02*
X12126711Y-13551137D01*
X12260044Y-13551137D02*
X12383854Y-13551137D01*
X12383854Y-13551137D02*
X12317187Y-13627327D01*
X12317187Y-13627327D02*
X12345759Y-13627327D01*
X12345759Y-13627327D02*
X12364806Y-13636851D01*
X12364806Y-13636851D02*
X12374330Y-13646375D01*
X12374330Y-13646375D02*
X12383854Y-13665422D01*
X12383854Y-13665422D02*
X12383854Y-13713041D01*
X12383854Y-13713041D02*
X12374330Y-13732089D01*
X12374330Y-13732089D02*
X12364806Y-13741613D01*
X12364806Y-13741613D02*
X12345759Y-13751137D01*
X12345759Y-13751137D02*
X12288616Y-13751137D01*
X12288616Y-13751137D02*
X12269568Y-13741613D01*
X12269568Y-13741613D02*
X12260044Y-13732089D01*
X12479092Y-13751137D02*
X12517187Y-13751137D01*
X12517187Y-13751137D02*
X12536235Y-13741613D01*
X12536235Y-13741613D02*
X12545759Y-13732089D01*
X12545759Y-13732089D02*
X12564806Y-13703517D01*
X12564806Y-13703517D02*
X12574330Y-13665422D01*
X12574330Y-13665422D02*
X12574330Y-13589232D01*
X12574330Y-13589232D02*
X12564806Y-13570184D01*
X12564806Y-13570184D02*
X12555283Y-13560660D01*
X12555283Y-13560660D02*
X12536235Y-13551137D01*
X12536235Y-13551137D02*
X12498140Y-13551137D01*
X12498140Y-13551137D02*
X12479092Y-13560660D01*
X12479092Y-13560660D02*
X12469568Y-13570184D01*
X12469568Y-13570184D02*
X12460044Y-13589232D01*
X12460044Y-13589232D02*
X12460044Y-13636851D01*
X12460044Y-13636851D02*
X12469568Y-13655898D01*
X12469568Y-13655898D02*
X12479092Y-13665422D01*
X12479092Y-13665422D02*
X12498140Y-13674946D01*
X12498140Y-13674946D02*
X12536235Y-13674946D01*
X12536235Y-13674946D02*
X12555283Y-13665422D01*
X12555283Y-13665422D02*
X12564806Y-13655898D01*
X12564806Y-13655898D02*
X12574330Y-13636851D01*
X12745759Y-13617803D02*
X12745759Y-13751137D01*
X12698140Y-13541613D02*
X12650521Y-13684470D01*
X12650521Y-13684470D02*
X12774330Y-13684470D01*
X12840997Y-13551137D02*
X12840997Y-13589232D01*
X12917187Y-13551137D02*
X12917187Y-13589232D01*
X13212426Y-13827327D02*
X13202902Y-13817803D01*
X13202902Y-13817803D02*
X13183854Y-13789232D01*
X13183854Y-13789232D02*
X13174330Y-13770184D01*
X13174330Y-13770184D02*
X13164806Y-13741613D01*
X13164806Y-13741613D02*
X13155283Y-13693994D01*
X13155283Y-13693994D02*
X13155283Y-13655898D01*
X13155283Y-13655898D02*
X13164806Y-13608279D01*
X13164806Y-13608279D02*
X13174330Y-13579708D01*
X13174330Y-13579708D02*
X13183854Y-13560660D01*
X13183854Y-13560660D02*
X13202902Y-13532089D01*
X13202902Y-13532089D02*
X13212426Y-13522565D01*
X13374330Y-13551137D02*
X13336235Y-13551137D01*
X13336235Y-13551137D02*
X13317187Y-13560660D01*
X13317187Y-13560660D02*
X13307664Y-13570184D01*
X13307664Y-13570184D02*
X13288616Y-13598756D01*
X13288616Y-13598756D02*
X13279092Y-13636851D01*
X13279092Y-13636851D02*
X13279092Y-13713041D01*
X13279092Y-13713041D02*
X13288616Y-13732089D01*
X13288616Y-13732089D02*
X13298140Y-13741613D01*
X13298140Y-13741613D02*
X13317187Y-13751137D01*
X13317187Y-13751137D02*
X13355283Y-13751137D01*
X13355283Y-13751137D02*
X13374330Y-13741613D01*
X13374330Y-13741613D02*
X13383854Y-13732089D01*
X13383854Y-13732089D02*
X13393378Y-13713041D01*
X13393378Y-13713041D02*
X13393378Y-13665422D01*
X13393378Y-13665422D02*
X13383854Y-13646375D01*
X13383854Y-13646375D02*
X13374330Y-13636851D01*
X13374330Y-13636851D02*
X13355283Y-13627327D01*
X13355283Y-13627327D02*
X13317187Y-13627327D01*
X13317187Y-13627327D02*
X13298140Y-13636851D01*
X13298140Y-13636851D02*
X13288616Y-13646375D01*
X13288616Y-13646375D02*
X13279092Y-13665422D01*
X13631473Y-13751137D02*
X13631473Y-13551137D01*
X13717187Y-13751137D02*
X13717187Y-13646375D01*
X13717187Y-13646375D02*
X13707664Y-13627327D01*
X13707664Y-13627327D02*
X13688616Y-13617803D01*
X13688616Y-13617803D02*
X13660045Y-13617803D01*
X13660045Y-13617803D02*
X13640997Y-13627327D01*
X13640997Y-13627327D02*
X13631473Y-13636851D01*
X13840997Y-13751137D02*
X13821949Y-13741613D01*
X13821949Y-13741613D02*
X13812426Y-13732089D01*
X13812426Y-13732089D02*
X13802902Y-13713041D01*
X13802902Y-13713041D02*
X13802902Y-13655898D01*
X13802902Y-13655898D02*
X13812426Y-13636851D01*
X13812426Y-13636851D02*
X13821949Y-13627327D01*
X13821949Y-13627327D02*
X13840997Y-13617803D01*
X13840997Y-13617803D02*
X13869568Y-13617803D01*
X13869568Y-13617803D02*
X13888616Y-13627327D01*
X13888616Y-13627327D02*
X13898140Y-13636851D01*
X13898140Y-13636851D02*
X13907664Y-13655898D01*
X13907664Y-13655898D02*
X13907664Y-13713041D01*
X13907664Y-13713041D02*
X13898140Y-13732089D01*
X13898140Y-13732089D02*
X13888616Y-13741613D01*
X13888616Y-13741613D02*
X13869568Y-13751137D01*
X13869568Y-13751137D02*
X13840997Y-13751137D01*
X14021949Y-13751137D02*
X14002902Y-13741613D01*
X14002902Y-13741613D02*
X13993378Y-13722565D01*
X13993378Y-13722565D02*
X13993378Y-13551137D01*
X14174330Y-13741613D02*
X14155283Y-13751137D01*
X14155283Y-13751137D02*
X14117187Y-13751137D01*
X14117187Y-13751137D02*
X14098140Y-13741613D01*
X14098140Y-13741613D02*
X14088616Y-13722565D01*
X14088616Y-13722565D02*
X14088616Y-13646375D01*
X14088616Y-13646375D02*
X14098140Y-13627327D01*
X14098140Y-13627327D02*
X14117187Y-13617803D01*
X14117187Y-13617803D02*
X14155283Y-13617803D01*
X14155283Y-13617803D02*
X14174330Y-13627327D01*
X14174330Y-13627327D02*
X14183854Y-13646375D01*
X14183854Y-13646375D02*
X14183854Y-13665422D01*
X14183854Y-13665422D02*
X14088616Y-13684470D01*
X14260045Y-13741613D02*
X14279092Y-13751137D01*
X14279092Y-13751137D02*
X14317187Y-13751137D01*
X14317187Y-13751137D02*
X14336235Y-13741613D01*
X14336235Y-13741613D02*
X14345759Y-13722565D01*
X14345759Y-13722565D02*
X14345759Y-13713041D01*
X14345759Y-13713041D02*
X14336235Y-13693994D01*
X14336235Y-13693994D02*
X14317187Y-13684470D01*
X14317187Y-13684470D02*
X14288616Y-13684470D01*
X14288616Y-13684470D02*
X14269568Y-13674946D01*
X14269568Y-13674946D02*
X14260045Y-13655898D01*
X14260045Y-13655898D02*
X14260045Y-13646375D01*
X14260045Y-13646375D02*
X14269568Y-13627327D01*
X14269568Y-13627327D02*
X14288616Y-13617803D01*
X14288616Y-13617803D02*
X14317187Y-13617803D01*
X14317187Y-13617803D02*
X14336235Y-13627327D01*
X14412426Y-13827327D02*
X14421949Y-13817803D01*
X14421949Y-13817803D02*
X14440997Y-13789232D01*
X14440997Y-13789232D02*
X14450521Y-13770184D01*
X14450521Y-13770184D02*
X14460045Y-13741613D01*
X14460045Y-13741613D02*
X14469568Y-13693994D01*
X14469568Y-13693994D02*
X14469568Y-13655898D01*
X14469568Y-13655898D02*
X14460045Y-13608279D01*
X14460045Y-13608279D02*
X14450521Y-13579708D01*
X14450521Y-13579708D02*
X14440997Y-13560660D01*
X14440997Y-13560660D02*
X14421949Y-13532089D01*
X14421949Y-13532089D02*
X14412426Y-13522565D01*
D14*
X9622484Y-13959574D02*
X9622484Y-13887731D01*
X9550641Y-13887731D01*
X9550641Y-13959574D01*
X9622484Y-13959574D01*
D11*
X10002901Y-14015137D02*
X9888616Y-14015137D01*
X9945759Y-14015137D02*
X9945759Y-13815137D01*
X9945759Y-13815137D02*
X9926711Y-13843708D01*
X9926711Y-13843708D02*
X9907663Y-13862756D01*
X9907663Y-13862756D02*
X9888616Y-13872279D01*
X10088616Y-13996089D02*
X10098140Y-14005613D01*
X10098140Y-14005613D02*
X10088616Y-14015137D01*
X10088616Y-14015137D02*
X10079092Y-14005613D01*
X10079092Y-14005613D02*
X10088616Y-13996089D01*
X10088616Y-13996089D02*
X10088616Y-14015137D01*
X10221949Y-13815137D02*
X10240997Y-13815137D01*
X10240997Y-13815137D02*
X10260044Y-13824660D01*
X10260044Y-13824660D02*
X10269568Y-13834184D01*
X10269568Y-13834184D02*
X10279092Y-13853232D01*
X10279092Y-13853232D02*
X10288616Y-13891327D01*
X10288616Y-13891327D02*
X10288616Y-13938946D01*
X10288616Y-13938946D02*
X10279092Y-13977041D01*
X10279092Y-13977041D02*
X10269568Y-13996089D01*
X10269568Y-13996089D02*
X10260044Y-14005613D01*
X10260044Y-14005613D02*
X10240997Y-14015137D01*
X10240997Y-14015137D02*
X10221949Y-14015137D01*
X10221949Y-14015137D02*
X10202901Y-14005613D01*
X10202901Y-14005613D02*
X10193378Y-13996089D01*
X10193378Y-13996089D02*
X10183854Y-13977041D01*
X10183854Y-13977041D02*
X10174330Y-13938946D01*
X10174330Y-13938946D02*
X10174330Y-13891327D01*
X10174330Y-13891327D02*
X10183854Y-13853232D01*
X10183854Y-13853232D02*
X10193378Y-13834184D01*
X10193378Y-13834184D02*
X10202901Y-13824660D01*
X10202901Y-13824660D02*
X10221949Y-13815137D01*
X10479092Y-14015137D02*
X10364806Y-14015137D01*
X10421949Y-14015137D02*
X10421949Y-13815137D01*
X10421949Y-13815137D02*
X10402901Y-13843708D01*
X10402901Y-13843708D02*
X10383854Y-13862756D01*
X10383854Y-13862756D02*
X10364806Y-13872279D01*
X10650521Y-13815137D02*
X10612425Y-13815137D01*
X10612425Y-13815137D02*
X10593378Y-13824660D01*
X10593378Y-13824660D02*
X10583854Y-13834184D01*
X10583854Y-13834184D02*
X10564806Y-13862756D01*
X10564806Y-13862756D02*
X10555282Y-13900851D01*
X10555282Y-13900851D02*
X10555282Y-13977041D01*
X10555282Y-13977041D02*
X10564806Y-13996089D01*
X10564806Y-13996089D02*
X10574330Y-14005613D01*
X10574330Y-14005613D02*
X10593378Y-14015137D01*
X10593378Y-14015137D02*
X10631473Y-14015137D01*
X10631473Y-14015137D02*
X10650521Y-14005613D01*
X10650521Y-14005613D02*
X10660044Y-13996089D01*
X10660044Y-13996089D02*
X10669568Y-13977041D01*
X10669568Y-13977041D02*
X10669568Y-13929422D01*
X10669568Y-13929422D02*
X10660044Y-13910375D01*
X10660044Y-13910375D02*
X10650521Y-13900851D01*
X10650521Y-13900851D02*
X10631473Y-13891327D01*
X10631473Y-13891327D02*
X10593378Y-13891327D01*
X10593378Y-13891327D02*
X10574330Y-13900851D01*
X10574330Y-13900851D02*
X10564806Y-13910375D01*
X10564806Y-13910375D02*
X10555282Y-13929422D01*
X10755282Y-14015137D02*
X10755282Y-13881803D01*
X10755282Y-13900851D02*
X10764806Y-13891327D01*
X10764806Y-13891327D02*
X10783854Y-13881803D01*
X10783854Y-13881803D02*
X10812425Y-13881803D01*
X10812425Y-13881803D02*
X10831473Y-13891327D01*
X10831473Y-13891327D02*
X10840997Y-13910375D01*
X10840997Y-13910375D02*
X10840997Y-14015137D01*
X10840997Y-13910375D02*
X10850521Y-13891327D01*
X10850521Y-13891327D02*
X10869568Y-13881803D01*
X10869568Y-13881803D02*
X10898140Y-13881803D01*
X10898140Y-13881803D02*
X10917187Y-13891327D01*
X10917187Y-13891327D02*
X10926711Y-13910375D01*
X10926711Y-13910375D02*
X10926711Y-14015137D01*
X11021949Y-14015137D02*
X11021949Y-13881803D01*
X11021949Y-13900851D02*
X11031473Y-13891327D01*
X11031473Y-13891327D02*
X11050521Y-13881803D01*
X11050521Y-13881803D02*
X11079092Y-13881803D01*
X11079092Y-13881803D02*
X11098140Y-13891327D01*
X11098140Y-13891327D02*
X11107663Y-13910375D01*
X11107663Y-13910375D02*
X11107663Y-14015137D01*
X11107663Y-13910375D02*
X11117187Y-13891327D01*
X11117187Y-13891327D02*
X11136235Y-13881803D01*
X11136235Y-13881803D02*
X11164806Y-13881803D01*
X11164806Y-13881803D02*
X11183854Y-13891327D01*
X11183854Y-13891327D02*
X11193378Y-13910375D01*
X11193378Y-13910375D02*
X11193378Y-14015137D01*
X11583854Y-13805613D02*
X11412425Y-14062756D01*
X11840997Y-13815137D02*
X11860044Y-13815137D01*
X11860044Y-13815137D02*
X11879092Y-13824660D01*
X11879092Y-13824660D02*
X11888616Y-13834184D01*
X11888616Y-13834184D02*
X11898140Y-13853232D01*
X11898140Y-13853232D02*
X11907663Y-13891327D01*
X11907663Y-13891327D02*
X11907663Y-13938946D01*
X11907663Y-13938946D02*
X11898140Y-13977041D01*
X11898140Y-13977041D02*
X11888616Y-13996089D01*
X11888616Y-13996089D02*
X11879092Y-14005613D01*
X11879092Y-14005613D02*
X11860044Y-14015137D01*
X11860044Y-14015137D02*
X11840997Y-14015137D01*
X11840997Y-14015137D02*
X11821949Y-14005613D01*
X11821949Y-14005613D02*
X11812425Y-13996089D01*
X11812425Y-13996089D02*
X11802902Y-13977041D01*
X11802902Y-13977041D02*
X11793378Y-13938946D01*
X11793378Y-13938946D02*
X11793378Y-13891327D01*
X11793378Y-13891327D02*
X11802902Y-13853232D01*
X11802902Y-13853232D02*
X11812425Y-13834184D01*
X11812425Y-13834184D02*
X11821949Y-13824660D01*
X11821949Y-13824660D02*
X11840997Y-13815137D01*
X11993378Y-13996089D02*
X12002902Y-14005613D01*
X12002902Y-14005613D02*
X11993378Y-14015137D01*
X11993378Y-14015137D02*
X11983854Y-14005613D01*
X11983854Y-14005613D02*
X11993378Y-13996089D01*
X11993378Y-13996089D02*
X11993378Y-14015137D01*
X12126711Y-13815137D02*
X12145759Y-13815137D01*
X12145759Y-13815137D02*
X12164806Y-13824660D01*
X12164806Y-13824660D02*
X12174330Y-13834184D01*
X12174330Y-13834184D02*
X12183854Y-13853232D01*
X12183854Y-13853232D02*
X12193378Y-13891327D01*
X12193378Y-13891327D02*
X12193378Y-13938946D01*
X12193378Y-13938946D02*
X12183854Y-13977041D01*
X12183854Y-13977041D02*
X12174330Y-13996089D01*
X12174330Y-13996089D02*
X12164806Y-14005613D01*
X12164806Y-14005613D02*
X12145759Y-14015137D01*
X12145759Y-14015137D02*
X12126711Y-14015137D01*
X12126711Y-14015137D02*
X12107663Y-14005613D01*
X12107663Y-14005613D02*
X12098140Y-13996089D01*
X12098140Y-13996089D02*
X12088616Y-13977041D01*
X12088616Y-13977041D02*
X12079092Y-13938946D01*
X12079092Y-13938946D02*
X12079092Y-13891327D01*
X12079092Y-13891327D02*
X12088616Y-13853232D01*
X12088616Y-13853232D02*
X12098140Y-13834184D01*
X12098140Y-13834184D02*
X12107663Y-13824660D01*
X12107663Y-13824660D02*
X12126711Y-13815137D01*
X12364806Y-13881803D02*
X12364806Y-14015137D01*
X12317187Y-13805613D02*
X12269568Y-13948470D01*
X12269568Y-13948470D02*
X12393378Y-13948470D01*
X12507663Y-13815137D02*
X12526711Y-13815137D01*
X12526711Y-13815137D02*
X12545759Y-13824660D01*
X12545759Y-13824660D02*
X12555283Y-13834184D01*
X12555283Y-13834184D02*
X12564806Y-13853232D01*
X12564806Y-13853232D02*
X12574330Y-13891327D01*
X12574330Y-13891327D02*
X12574330Y-13938946D01*
X12574330Y-13938946D02*
X12564806Y-13977041D01*
X12564806Y-13977041D02*
X12555283Y-13996089D01*
X12555283Y-13996089D02*
X12545759Y-14005613D01*
X12545759Y-14005613D02*
X12526711Y-14015137D01*
X12526711Y-14015137D02*
X12507663Y-14015137D01*
X12507663Y-14015137D02*
X12488616Y-14005613D01*
X12488616Y-14005613D02*
X12479092Y-13996089D01*
X12479092Y-13996089D02*
X12469568Y-13977041D01*
X12469568Y-13977041D02*
X12460044Y-13938946D01*
X12460044Y-13938946D02*
X12460044Y-13891327D01*
X12460044Y-13891327D02*
X12469568Y-13853232D01*
X12469568Y-13853232D02*
X12479092Y-13834184D01*
X12479092Y-13834184D02*
X12488616Y-13824660D01*
X12488616Y-13824660D02*
X12507663Y-13815137D01*
X12698140Y-13815137D02*
X12717187Y-13815137D01*
X12717187Y-13815137D02*
X12736235Y-13824660D01*
X12736235Y-13824660D02*
X12745759Y-13834184D01*
X12745759Y-13834184D02*
X12755283Y-13853232D01*
X12755283Y-13853232D02*
X12764806Y-13891327D01*
X12764806Y-13891327D02*
X12764806Y-13938946D01*
X12764806Y-13938946D02*
X12755283Y-13977041D01*
X12755283Y-13977041D02*
X12745759Y-13996089D01*
X12745759Y-13996089D02*
X12736235Y-14005613D01*
X12736235Y-14005613D02*
X12717187Y-14015137D01*
X12717187Y-14015137D02*
X12698140Y-14015137D01*
X12698140Y-14015137D02*
X12679092Y-14005613D01*
X12679092Y-14005613D02*
X12669568Y-13996089D01*
X12669568Y-13996089D02*
X12660044Y-13977041D01*
X12660044Y-13977041D02*
X12650521Y-13938946D01*
X12650521Y-13938946D02*
X12650521Y-13891327D01*
X12650521Y-13891327D02*
X12660044Y-13853232D01*
X12660044Y-13853232D02*
X12669568Y-13834184D01*
X12669568Y-13834184D02*
X12679092Y-13824660D01*
X12679092Y-13824660D02*
X12698140Y-13815137D01*
X12840997Y-13815137D02*
X12840997Y-13853232D01*
X12917187Y-13815137D02*
X12917187Y-13853232D01*
X13212426Y-14091327D02*
X13202902Y-14081803D01*
X13202902Y-14081803D02*
X13183854Y-14053232D01*
X13183854Y-14053232D02*
X13174330Y-14034184D01*
X13174330Y-14034184D02*
X13164806Y-14005613D01*
X13164806Y-14005613D02*
X13155283Y-13957994D01*
X13155283Y-13957994D02*
X13155283Y-13919898D01*
X13155283Y-13919898D02*
X13164806Y-13872279D01*
X13164806Y-13872279D02*
X13174330Y-13843708D01*
X13174330Y-13843708D02*
X13183854Y-13824660D01*
X13183854Y-13824660D02*
X13202902Y-13796089D01*
X13202902Y-13796089D02*
X13212426Y-13786565D01*
X13374330Y-13881803D02*
X13374330Y-14015137D01*
X13326711Y-13805613D02*
X13279092Y-13948470D01*
X13279092Y-13948470D02*
X13402902Y-13948470D01*
X13564806Y-13881803D02*
X13564806Y-14015137D01*
X13517187Y-13805613D02*
X13469568Y-13948470D01*
X13469568Y-13948470D02*
X13593378Y-13948470D01*
X13821949Y-14015137D02*
X13821949Y-13815137D01*
X13907664Y-14015137D02*
X13907664Y-13910375D01*
X13907664Y-13910375D02*
X13898140Y-13891327D01*
X13898140Y-13891327D02*
X13879092Y-13881803D01*
X13879092Y-13881803D02*
X13850521Y-13881803D01*
X13850521Y-13881803D02*
X13831473Y-13891327D01*
X13831473Y-13891327D02*
X13821949Y-13900851D01*
X14031473Y-14015137D02*
X14012426Y-14005613D01*
X14012426Y-14005613D02*
X14002902Y-13996089D01*
X14002902Y-13996089D02*
X13993378Y-13977041D01*
X13993378Y-13977041D02*
X13993378Y-13919898D01*
X13993378Y-13919898D02*
X14002902Y-13900851D01*
X14002902Y-13900851D02*
X14012426Y-13891327D01*
X14012426Y-13891327D02*
X14031473Y-13881803D01*
X14031473Y-13881803D02*
X14060045Y-13881803D01*
X14060045Y-13881803D02*
X14079092Y-13891327D01*
X14079092Y-13891327D02*
X14088616Y-13900851D01*
X14088616Y-13900851D02*
X14098140Y-13919898D01*
X14098140Y-13919898D02*
X14098140Y-13977041D01*
X14098140Y-13977041D02*
X14088616Y-13996089D01*
X14088616Y-13996089D02*
X14079092Y-14005613D01*
X14079092Y-14005613D02*
X14060045Y-14015137D01*
X14060045Y-14015137D02*
X14031473Y-14015137D01*
X14212426Y-14015137D02*
X14193378Y-14005613D01*
X14193378Y-14005613D02*
X14183854Y-13986565D01*
X14183854Y-13986565D02*
X14183854Y-13815137D01*
X14364807Y-14005613D02*
X14345759Y-14015137D01*
X14345759Y-14015137D02*
X14307664Y-14015137D01*
X14307664Y-14015137D02*
X14288616Y-14005613D01*
X14288616Y-14005613D02*
X14279092Y-13986565D01*
X14279092Y-13986565D02*
X14279092Y-13910375D01*
X14279092Y-13910375D02*
X14288616Y-13891327D01*
X14288616Y-13891327D02*
X14307664Y-13881803D01*
X14307664Y-13881803D02*
X14345759Y-13881803D01*
X14345759Y-13881803D02*
X14364807Y-13891327D01*
X14364807Y-13891327D02*
X14374330Y-13910375D01*
X14374330Y-13910375D02*
X14374330Y-13929422D01*
X14374330Y-13929422D02*
X14279092Y-13948470D01*
X14450521Y-14005613D02*
X14469568Y-14015137D01*
X14469568Y-14015137D02*
X14507664Y-14015137D01*
X14507664Y-14015137D02*
X14526711Y-14005613D01*
X14526711Y-14005613D02*
X14536235Y-13986565D01*
X14536235Y-13986565D02*
X14536235Y-13977041D01*
X14536235Y-13977041D02*
X14526711Y-13957994D01*
X14526711Y-13957994D02*
X14507664Y-13948470D01*
X14507664Y-13948470D02*
X14479092Y-13948470D01*
X14479092Y-13948470D02*
X14460045Y-13938946D01*
X14460045Y-13938946D02*
X14450521Y-13919898D01*
X14450521Y-13919898D02*
X14450521Y-13910375D01*
X14450521Y-13910375D02*
X14460045Y-13891327D01*
X14460045Y-13891327D02*
X14479092Y-13881803D01*
X14479092Y-13881803D02*
X14507664Y-13881803D01*
X14507664Y-13881803D02*
X14526711Y-13891327D01*
X14602902Y-14091327D02*
X14612426Y-14081803D01*
X14612426Y-14081803D02*
X14631473Y-14053232D01*
X14631473Y-14053232D02*
X14640997Y-14034184D01*
X14640997Y-14034184D02*
X14650521Y-14005613D01*
X14650521Y-14005613D02*
X14660045Y-13957994D01*
X14660045Y-13957994D02*
X14660045Y-13919898D01*
X14660045Y-13919898D02*
X14650521Y-13872279D01*
X14650521Y-13872279D02*
X14640997Y-13843708D01*
X14640997Y-13843708D02*
X14631473Y-13824660D01*
X14631473Y-13824660D02*
X14612426Y-13796089D01*
X14612426Y-13796089D02*
X14602902Y-13786565D01*
D15*
X9562363Y-14262653D02*
X9637363Y-14187653D01*
X9562363Y-14112653D01*
X9487363Y-14187653D01*
X9562363Y-14262653D01*
D11*
X10002901Y-14279137D02*
X9888616Y-14279137D01*
X9945759Y-14279137D02*
X9945759Y-14079137D01*
X9945759Y-14079137D02*
X9926711Y-14107708D01*
X9926711Y-14107708D02*
X9907663Y-14126756D01*
X9907663Y-14126756D02*
X9888616Y-14136279D01*
X10088616Y-14260089D02*
X10098140Y-14269613D01*
X10098140Y-14269613D02*
X10088616Y-14279137D01*
X10088616Y-14279137D02*
X10079092Y-14269613D01*
X10079092Y-14269613D02*
X10088616Y-14260089D01*
X10088616Y-14260089D02*
X10088616Y-14279137D01*
X10279092Y-14079137D02*
X10183854Y-14079137D01*
X10183854Y-14079137D02*
X10174330Y-14174375D01*
X10174330Y-14174375D02*
X10183854Y-14164851D01*
X10183854Y-14164851D02*
X10202901Y-14155327D01*
X10202901Y-14155327D02*
X10250521Y-14155327D01*
X10250521Y-14155327D02*
X10269568Y-14164851D01*
X10269568Y-14164851D02*
X10279092Y-14174375D01*
X10279092Y-14174375D02*
X10288616Y-14193422D01*
X10288616Y-14193422D02*
X10288616Y-14241041D01*
X10288616Y-14241041D02*
X10279092Y-14260089D01*
X10279092Y-14260089D02*
X10269568Y-14269613D01*
X10269568Y-14269613D02*
X10250521Y-14279137D01*
X10250521Y-14279137D02*
X10202901Y-14279137D01*
X10202901Y-14279137D02*
X10183854Y-14269613D01*
X10183854Y-14269613D02*
X10174330Y-14260089D01*
X10412425Y-14079137D02*
X10431473Y-14079137D01*
X10431473Y-14079137D02*
X10450521Y-14088660D01*
X10450521Y-14088660D02*
X10460044Y-14098184D01*
X10460044Y-14098184D02*
X10469568Y-14117232D01*
X10469568Y-14117232D02*
X10479092Y-14155327D01*
X10479092Y-14155327D02*
X10479092Y-14202946D01*
X10479092Y-14202946D02*
X10469568Y-14241041D01*
X10469568Y-14241041D02*
X10460044Y-14260089D01*
X10460044Y-14260089D02*
X10450521Y-14269613D01*
X10450521Y-14269613D02*
X10431473Y-14279137D01*
X10431473Y-14279137D02*
X10412425Y-14279137D01*
X10412425Y-14279137D02*
X10393378Y-14269613D01*
X10393378Y-14269613D02*
X10383854Y-14260089D01*
X10383854Y-14260089D02*
X10374330Y-14241041D01*
X10374330Y-14241041D02*
X10364806Y-14202946D01*
X10364806Y-14202946D02*
X10364806Y-14155327D01*
X10364806Y-14155327D02*
X10374330Y-14117232D01*
X10374330Y-14117232D02*
X10383854Y-14098184D01*
X10383854Y-14098184D02*
X10393378Y-14088660D01*
X10393378Y-14088660D02*
X10412425Y-14079137D01*
X10602901Y-14079137D02*
X10621949Y-14079137D01*
X10621949Y-14079137D02*
X10640997Y-14088660D01*
X10640997Y-14088660D02*
X10650521Y-14098184D01*
X10650521Y-14098184D02*
X10660044Y-14117232D01*
X10660044Y-14117232D02*
X10669568Y-14155327D01*
X10669568Y-14155327D02*
X10669568Y-14202946D01*
X10669568Y-14202946D02*
X10660044Y-14241041D01*
X10660044Y-14241041D02*
X10650521Y-14260089D01*
X10650521Y-14260089D02*
X10640997Y-14269613D01*
X10640997Y-14269613D02*
X10621949Y-14279137D01*
X10621949Y-14279137D02*
X10602901Y-14279137D01*
X10602901Y-14279137D02*
X10583854Y-14269613D01*
X10583854Y-14269613D02*
X10574330Y-14260089D01*
X10574330Y-14260089D02*
X10564806Y-14241041D01*
X10564806Y-14241041D02*
X10555282Y-14202946D01*
X10555282Y-14202946D02*
X10555282Y-14155327D01*
X10555282Y-14155327D02*
X10564806Y-14117232D01*
X10564806Y-14117232D02*
X10574330Y-14098184D01*
X10574330Y-14098184D02*
X10583854Y-14088660D01*
X10583854Y-14088660D02*
X10602901Y-14079137D01*
X10755282Y-14279137D02*
X10755282Y-14145803D01*
X10755282Y-14164851D02*
X10764806Y-14155327D01*
X10764806Y-14155327D02*
X10783854Y-14145803D01*
X10783854Y-14145803D02*
X10812425Y-14145803D01*
X10812425Y-14145803D02*
X10831473Y-14155327D01*
X10831473Y-14155327D02*
X10840997Y-14174375D01*
X10840997Y-14174375D02*
X10840997Y-14279137D01*
X10840997Y-14174375D02*
X10850521Y-14155327D01*
X10850521Y-14155327D02*
X10869568Y-14145803D01*
X10869568Y-14145803D02*
X10898140Y-14145803D01*
X10898140Y-14145803D02*
X10917187Y-14155327D01*
X10917187Y-14155327D02*
X10926711Y-14174375D01*
X10926711Y-14174375D02*
X10926711Y-14279137D01*
X11021949Y-14279137D02*
X11021949Y-14145803D01*
X11021949Y-14164851D02*
X11031473Y-14155327D01*
X11031473Y-14155327D02*
X11050521Y-14145803D01*
X11050521Y-14145803D02*
X11079092Y-14145803D01*
X11079092Y-14145803D02*
X11098140Y-14155327D01*
X11098140Y-14155327D02*
X11107663Y-14174375D01*
X11107663Y-14174375D02*
X11107663Y-14279137D01*
X11107663Y-14174375D02*
X11117187Y-14155327D01*
X11117187Y-14155327D02*
X11136235Y-14145803D01*
X11136235Y-14145803D02*
X11164806Y-14145803D01*
X11164806Y-14145803D02*
X11183854Y-14155327D01*
X11183854Y-14155327D02*
X11193378Y-14174375D01*
X11193378Y-14174375D02*
X11193378Y-14279137D01*
X11583854Y-14069613D02*
X11412425Y-14326756D01*
X11840997Y-14079137D02*
X11860044Y-14079137D01*
X11860044Y-14079137D02*
X11879092Y-14088660D01*
X11879092Y-14088660D02*
X11888616Y-14098184D01*
X11888616Y-14098184D02*
X11898140Y-14117232D01*
X11898140Y-14117232D02*
X11907663Y-14155327D01*
X11907663Y-14155327D02*
X11907663Y-14202946D01*
X11907663Y-14202946D02*
X11898140Y-14241041D01*
X11898140Y-14241041D02*
X11888616Y-14260089D01*
X11888616Y-14260089D02*
X11879092Y-14269613D01*
X11879092Y-14269613D02*
X11860044Y-14279137D01*
X11860044Y-14279137D02*
X11840997Y-14279137D01*
X11840997Y-14279137D02*
X11821949Y-14269613D01*
X11821949Y-14269613D02*
X11812425Y-14260089D01*
X11812425Y-14260089D02*
X11802902Y-14241041D01*
X11802902Y-14241041D02*
X11793378Y-14202946D01*
X11793378Y-14202946D02*
X11793378Y-14155327D01*
X11793378Y-14155327D02*
X11802902Y-14117232D01*
X11802902Y-14117232D02*
X11812425Y-14098184D01*
X11812425Y-14098184D02*
X11821949Y-14088660D01*
X11821949Y-14088660D02*
X11840997Y-14079137D01*
X11993378Y-14260089D02*
X12002902Y-14269613D01*
X12002902Y-14269613D02*
X11993378Y-14279137D01*
X11993378Y-14279137D02*
X11983854Y-14269613D01*
X11983854Y-14269613D02*
X11993378Y-14260089D01*
X11993378Y-14260089D02*
X11993378Y-14279137D01*
X12126711Y-14079137D02*
X12145759Y-14079137D01*
X12145759Y-14079137D02*
X12164806Y-14088660D01*
X12164806Y-14088660D02*
X12174330Y-14098184D01*
X12174330Y-14098184D02*
X12183854Y-14117232D01*
X12183854Y-14117232D02*
X12193378Y-14155327D01*
X12193378Y-14155327D02*
X12193378Y-14202946D01*
X12193378Y-14202946D02*
X12183854Y-14241041D01*
X12183854Y-14241041D02*
X12174330Y-14260089D01*
X12174330Y-14260089D02*
X12164806Y-14269613D01*
X12164806Y-14269613D02*
X12145759Y-14279137D01*
X12145759Y-14279137D02*
X12126711Y-14279137D01*
X12126711Y-14279137D02*
X12107663Y-14269613D01*
X12107663Y-14269613D02*
X12098140Y-14260089D01*
X12098140Y-14260089D02*
X12088616Y-14241041D01*
X12088616Y-14241041D02*
X12079092Y-14202946D01*
X12079092Y-14202946D02*
X12079092Y-14155327D01*
X12079092Y-14155327D02*
X12088616Y-14117232D01*
X12088616Y-14117232D02*
X12098140Y-14098184D01*
X12098140Y-14098184D02*
X12107663Y-14088660D01*
X12107663Y-14088660D02*
X12126711Y-14079137D01*
X12374330Y-14079137D02*
X12279092Y-14079137D01*
X12279092Y-14079137D02*
X12269568Y-14174375D01*
X12269568Y-14174375D02*
X12279092Y-14164851D01*
X12279092Y-14164851D02*
X12298140Y-14155327D01*
X12298140Y-14155327D02*
X12345759Y-14155327D01*
X12345759Y-14155327D02*
X12364806Y-14164851D01*
X12364806Y-14164851D02*
X12374330Y-14174375D01*
X12374330Y-14174375D02*
X12383854Y-14193422D01*
X12383854Y-14193422D02*
X12383854Y-14241041D01*
X12383854Y-14241041D02*
X12374330Y-14260089D01*
X12374330Y-14260089D02*
X12364806Y-14269613D01*
X12364806Y-14269613D02*
X12345759Y-14279137D01*
X12345759Y-14279137D02*
X12298140Y-14279137D01*
X12298140Y-14279137D02*
X12279092Y-14269613D01*
X12279092Y-14269613D02*
X12269568Y-14260089D01*
X12479092Y-14279137D02*
X12517187Y-14279137D01*
X12517187Y-14279137D02*
X12536235Y-14269613D01*
X12536235Y-14269613D02*
X12545759Y-14260089D01*
X12545759Y-14260089D02*
X12564806Y-14231517D01*
X12564806Y-14231517D02*
X12574330Y-14193422D01*
X12574330Y-14193422D02*
X12574330Y-14117232D01*
X12574330Y-14117232D02*
X12564806Y-14098184D01*
X12564806Y-14098184D02*
X12555283Y-14088660D01*
X12555283Y-14088660D02*
X12536235Y-14079137D01*
X12536235Y-14079137D02*
X12498140Y-14079137D01*
X12498140Y-14079137D02*
X12479092Y-14088660D01*
X12479092Y-14088660D02*
X12469568Y-14098184D01*
X12469568Y-14098184D02*
X12460044Y-14117232D01*
X12460044Y-14117232D02*
X12460044Y-14164851D01*
X12460044Y-14164851D02*
X12469568Y-14183898D01*
X12469568Y-14183898D02*
X12479092Y-14193422D01*
X12479092Y-14193422D02*
X12498140Y-14202946D01*
X12498140Y-14202946D02*
X12536235Y-14202946D01*
X12536235Y-14202946D02*
X12555283Y-14193422D01*
X12555283Y-14193422D02*
X12564806Y-14183898D01*
X12564806Y-14183898D02*
X12574330Y-14164851D01*
X12764806Y-14279137D02*
X12650521Y-14279137D01*
X12707663Y-14279137D02*
X12707663Y-14079137D01*
X12707663Y-14079137D02*
X12688616Y-14107708D01*
X12688616Y-14107708D02*
X12669568Y-14126756D01*
X12669568Y-14126756D02*
X12650521Y-14136279D01*
X12840997Y-14079137D02*
X12840997Y-14117232D01*
X12917187Y-14079137D02*
X12917187Y-14117232D01*
X13212426Y-14355327D02*
X13202902Y-14345803D01*
X13202902Y-14345803D02*
X13183854Y-14317232D01*
X13183854Y-14317232D02*
X13174330Y-14298184D01*
X13174330Y-14298184D02*
X13164806Y-14269613D01*
X13164806Y-14269613D02*
X13155283Y-14221994D01*
X13155283Y-14221994D02*
X13155283Y-14183898D01*
X13155283Y-14183898D02*
X13164806Y-14136279D01*
X13164806Y-14136279D02*
X13174330Y-14107708D01*
X13174330Y-14107708D02*
X13183854Y-14088660D01*
X13183854Y-14088660D02*
X13202902Y-14060089D01*
X13202902Y-14060089D02*
X13212426Y-14050565D01*
X13393378Y-14279137D02*
X13279092Y-14279137D01*
X13336235Y-14279137D02*
X13336235Y-14079137D01*
X13336235Y-14079137D02*
X13317187Y-14107708D01*
X13317187Y-14107708D02*
X13298140Y-14126756D01*
X13298140Y-14126756D02*
X13279092Y-14136279D01*
X13631473Y-14279137D02*
X13631473Y-14079137D01*
X13717187Y-14279137D02*
X13717187Y-14174375D01*
X13717187Y-14174375D02*
X13707664Y-14155327D01*
X13707664Y-14155327D02*
X13688616Y-14145803D01*
X13688616Y-14145803D02*
X13660045Y-14145803D01*
X13660045Y-14145803D02*
X13640997Y-14155327D01*
X13640997Y-14155327D02*
X13631473Y-14164851D01*
X13840997Y-14279137D02*
X13821949Y-14269613D01*
X13821949Y-14269613D02*
X13812426Y-14260089D01*
X13812426Y-14260089D02*
X13802902Y-14241041D01*
X13802902Y-14241041D02*
X13802902Y-14183898D01*
X13802902Y-14183898D02*
X13812426Y-14164851D01*
X13812426Y-14164851D02*
X13821949Y-14155327D01*
X13821949Y-14155327D02*
X13840997Y-14145803D01*
X13840997Y-14145803D02*
X13869568Y-14145803D01*
X13869568Y-14145803D02*
X13888616Y-14155327D01*
X13888616Y-14155327D02*
X13898140Y-14164851D01*
X13898140Y-14164851D02*
X13907664Y-14183898D01*
X13907664Y-14183898D02*
X13907664Y-14241041D01*
X13907664Y-14241041D02*
X13898140Y-14260089D01*
X13898140Y-14260089D02*
X13888616Y-14269613D01*
X13888616Y-14269613D02*
X13869568Y-14279137D01*
X13869568Y-14279137D02*
X13840997Y-14279137D01*
X14021949Y-14279137D02*
X14002902Y-14269613D01*
X14002902Y-14269613D02*
X13993378Y-14250565D01*
X13993378Y-14250565D02*
X13993378Y-14079137D01*
X14174330Y-14269613D02*
X14155283Y-14279137D01*
X14155283Y-14279137D02*
X14117187Y-14279137D01*
X14117187Y-14279137D02*
X14098140Y-14269613D01*
X14098140Y-14269613D02*
X14088616Y-14250565D01*
X14088616Y-14250565D02*
X14088616Y-14174375D01*
X14088616Y-14174375D02*
X14098140Y-14155327D01*
X14098140Y-14155327D02*
X14117187Y-14145803D01*
X14117187Y-14145803D02*
X14155283Y-14145803D01*
X14155283Y-14145803D02*
X14174330Y-14155327D01*
X14174330Y-14155327D02*
X14183854Y-14174375D01*
X14183854Y-14174375D02*
X14183854Y-14193422D01*
X14183854Y-14193422D02*
X14088616Y-14212470D01*
X14250521Y-14355327D02*
X14260045Y-14345803D01*
X14260045Y-14345803D02*
X14279092Y-14317232D01*
X14279092Y-14317232D02*
X14288616Y-14298184D01*
X14288616Y-14298184D02*
X14298140Y-14269613D01*
X14298140Y-14269613D02*
X14307664Y-14221994D01*
X14307664Y-14221994D02*
X14307664Y-14183898D01*
X14307664Y-14183898D02*
X14298140Y-14136279D01*
X14298140Y-14136279D02*
X14288616Y-14107708D01*
X14288616Y-14107708D02*
X14279092Y-14088660D01*
X14279092Y-14088660D02*
X14260045Y-14060089D01*
X14260045Y-14060089D02*
X14250521Y-14050565D01*
D16*
X9467363Y-14372653D02*
X9637363Y-14542653D01*
X9637363Y-14372653D02*
X9467363Y-14542653D01*
X9637363Y-14457653D02*
G75*
G03*
X9637363Y-14457653I-85000J0D01*
G01*
D11*
X10002901Y-14549137D02*
X9888616Y-14549137D01*
X9945759Y-14549137D02*
X9945759Y-14349137D01*
X9945759Y-14349137D02*
X9926711Y-14377708D01*
X9926711Y-14377708D02*
X9907663Y-14396756D01*
X9907663Y-14396756D02*
X9888616Y-14406279D01*
X10088616Y-14530089D02*
X10098140Y-14539613D01*
X10098140Y-14539613D02*
X10088616Y-14549137D01*
X10088616Y-14549137D02*
X10079092Y-14539613D01*
X10079092Y-14539613D02*
X10088616Y-14530089D01*
X10088616Y-14530089D02*
X10088616Y-14549137D01*
X10164806Y-14349137D02*
X10298140Y-14349137D01*
X10298140Y-14349137D02*
X10212425Y-14549137D01*
X10412425Y-14349137D02*
X10431473Y-14349137D01*
X10431473Y-14349137D02*
X10450521Y-14358660D01*
X10450521Y-14358660D02*
X10460044Y-14368184D01*
X10460044Y-14368184D02*
X10469568Y-14387232D01*
X10469568Y-14387232D02*
X10479092Y-14425327D01*
X10479092Y-14425327D02*
X10479092Y-14472946D01*
X10479092Y-14472946D02*
X10469568Y-14511041D01*
X10469568Y-14511041D02*
X10460044Y-14530089D01*
X10460044Y-14530089D02*
X10450521Y-14539613D01*
X10450521Y-14539613D02*
X10431473Y-14549137D01*
X10431473Y-14549137D02*
X10412425Y-14549137D01*
X10412425Y-14549137D02*
X10393378Y-14539613D01*
X10393378Y-14539613D02*
X10383854Y-14530089D01*
X10383854Y-14530089D02*
X10374330Y-14511041D01*
X10374330Y-14511041D02*
X10364806Y-14472946D01*
X10364806Y-14472946D02*
X10364806Y-14425327D01*
X10364806Y-14425327D02*
X10374330Y-14387232D01*
X10374330Y-14387232D02*
X10383854Y-14368184D01*
X10383854Y-14368184D02*
X10393378Y-14358660D01*
X10393378Y-14358660D02*
X10412425Y-14349137D01*
X10602901Y-14349137D02*
X10621949Y-14349137D01*
X10621949Y-14349137D02*
X10640997Y-14358660D01*
X10640997Y-14358660D02*
X10650521Y-14368184D01*
X10650521Y-14368184D02*
X10660044Y-14387232D01*
X10660044Y-14387232D02*
X10669568Y-14425327D01*
X10669568Y-14425327D02*
X10669568Y-14472946D01*
X10669568Y-14472946D02*
X10660044Y-14511041D01*
X10660044Y-14511041D02*
X10650521Y-14530089D01*
X10650521Y-14530089D02*
X10640997Y-14539613D01*
X10640997Y-14539613D02*
X10621949Y-14549137D01*
X10621949Y-14549137D02*
X10602901Y-14549137D01*
X10602901Y-14549137D02*
X10583854Y-14539613D01*
X10583854Y-14539613D02*
X10574330Y-14530089D01*
X10574330Y-14530089D02*
X10564806Y-14511041D01*
X10564806Y-14511041D02*
X10555282Y-14472946D01*
X10555282Y-14472946D02*
X10555282Y-14425327D01*
X10555282Y-14425327D02*
X10564806Y-14387232D01*
X10564806Y-14387232D02*
X10574330Y-14368184D01*
X10574330Y-14368184D02*
X10583854Y-14358660D01*
X10583854Y-14358660D02*
X10602901Y-14349137D01*
X10755282Y-14549137D02*
X10755282Y-14415803D01*
X10755282Y-14434851D02*
X10764806Y-14425327D01*
X10764806Y-14425327D02*
X10783854Y-14415803D01*
X10783854Y-14415803D02*
X10812425Y-14415803D01*
X10812425Y-14415803D02*
X10831473Y-14425327D01*
X10831473Y-14425327D02*
X10840997Y-14444375D01*
X10840997Y-14444375D02*
X10840997Y-14549137D01*
X10840997Y-14444375D02*
X10850521Y-14425327D01*
X10850521Y-14425327D02*
X10869568Y-14415803D01*
X10869568Y-14415803D02*
X10898140Y-14415803D01*
X10898140Y-14415803D02*
X10917187Y-14425327D01*
X10917187Y-14425327D02*
X10926711Y-14444375D01*
X10926711Y-14444375D02*
X10926711Y-14549137D01*
X11021949Y-14549137D02*
X11021949Y-14415803D01*
X11021949Y-14434851D02*
X11031473Y-14425327D01*
X11031473Y-14425327D02*
X11050521Y-14415803D01*
X11050521Y-14415803D02*
X11079092Y-14415803D01*
X11079092Y-14415803D02*
X11098140Y-14425327D01*
X11098140Y-14425327D02*
X11107663Y-14444375D01*
X11107663Y-14444375D02*
X11107663Y-14549137D01*
X11107663Y-14444375D02*
X11117187Y-14425327D01*
X11117187Y-14425327D02*
X11136235Y-14415803D01*
X11136235Y-14415803D02*
X11164806Y-14415803D01*
X11164806Y-14415803D02*
X11183854Y-14425327D01*
X11183854Y-14425327D02*
X11193378Y-14444375D01*
X11193378Y-14444375D02*
X11193378Y-14549137D01*
X11583854Y-14339613D02*
X11412425Y-14596756D01*
X11840997Y-14349137D02*
X11860044Y-14349137D01*
X11860044Y-14349137D02*
X11879092Y-14358660D01*
X11879092Y-14358660D02*
X11888616Y-14368184D01*
X11888616Y-14368184D02*
X11898140Y-14387232D01*
X11898140Y-14387232D02*
X11907663Y-14425327D01*
X11907663Y-14425327D02*
X11907663Y-14472946D01*
X11907663Y-14472946D02*
X11898140Y-14511041D01*
X11898140Y-14511041D02*
X11888616Y-14530089D01*
X11888616Y-14530089D02*
X11879092Y-14539613D01*
X11879092Y-14539613D02*
X11860044Y-14549137D01*
X11860044Y-14549137D02*
X11840997Y-14549137D01*
X11840997Y-14549137D02*
X11821949Y-14539613D01*
X11821949Y-14539613D02*
X11812425Y-14530089D01*
X11812425Y-14530089D02*
X11802902Y-14511041D01*
X11802902Y-14511041D02*
X11793378Y-14472946D01*
X11793378Y-14472946D02*
X11793378Y-14425327D01*
X11793378Y-14425327D02*
X11802902Y-14387232D01*
X11802902Y-14387232D02*
X11812425Y-14368184D01*
X11812425Y-14368184D02*
X11821949Y-14358660D01*
X11821949Y-14358660D02*
X11840997Y-14349137D01*
X11993378Y-14530089D02*
X12002902Y-14539613D01*
X12002902Y-14539613D02*
X11993378Y-14549137D01*
X11993378Y-14549137D02*
X11983854Y-14539613D01*
X11983854Y-14539613D02*
X11993378Y-14530089D01*
X11993378Y-14530089D02*
X11993378Y-14549137D01*
X12126711Y-14349137D02*
X12145759Y-14349137D01*
X12145759Y-14349137D02*
X12164806Y-14358660D01*
X12164806Y-14358660D02*
X12174330Y-14368184D01*
X12174330Y-14368184D02*
X12183854Y-14387232D01*
X12183854Y-14387232D02*
X12193378Y-14425327D01*
X12193378Y-14425327D02*
X12193378Y-14472946D01*
X12193378Y-14472946D02*
X12183854Y-14511041D01*
X12183854Y-14511041D02*
X12174330Y-14530089D01*
X12174330Y-14530089D02*
X12164806Y-14539613D01*
X12164806Y-14539613D02*
X12145759Y-14549137D01*
X12145759Y-14549137D02*
X12126711Y-14549137D01*
X12126711Y-14549137D02*
X12107663Y-14539613D01*
X12107663Y-14539613D02*
X12098140Y-14530089D01*
X12098140Y-14530089D02*
X12088616Y-14511041D01*
X12088616Y-14511041D02*
X12079092Y-14472946D01*
X12079092Y-14472946D02*
X12079092Y-14425327D01*
X12079092Y-14425327D02*
X12088616Y-14387232D01*
X12088616Y-14387232D02*
X12098140Y-14368184D01*
X12098140Y-14368184D02*
X12107663Y-14358660D01*
X12107663Y-14358660D02*
X12126711Y-14349137D01*
X12364806Y-14349137D02*
X12326711Y-14349137D01*
X12326711Y-14349137D02*
X12307663Y-14358660D01*
X12307663Y-14358660D02*
X12298140Y-14368184D01*
X12298140Y-14368184D02*
X12279092Y-14396756D01*
X12279092Y-14396756D02*
X12269568Y-14434851D01*
X12269568Y-14434851D02*
X12269568Y-14511041D01*
X12269568Y-14511041D02*
X12279092Y-14530089D01*
X12279092Y-14530089D02*
X12288616Y-14539613D01*
X12288616Y-14539613D02*
X12307663Y-14549137D01*
X12307663Y-14549137D02*
X12345759Y-14549137D01*
X12345759Y-14549137D02*
X12364806Y-14539613D01*
X12364806Y-14539613D02*
X12374330Y-14530089D01*
X12374330Y-14530089D02*
X12383854Y-14511041D01*
X12383854Y-14511041D02*
X12383854Y-14463422D01*
X12383854Y-14463422D02*
X12374330Y-14444375D01*
X12374330Y-14444375D02*
X12364806Y-14434851D01*
X12364806Y-14434851D02*
X12345759Y-14425327D01*
X12345759Y-14425327D02*
X12307663Y-14425327D01*
X12307663Y-14425327D02*
X12288616Y-14434851D01*
X12288616Y-14434851D02*
X12279092Y-14444375D01*
X12279092Y-14444375D02*
X12269568Y-14463422D01*
X12555283Y-14349137D02*
X12517187Y-14349137D01*
X12517187Y-14349137D02*
X12498140Y-14358660D01*
X12498140Y-14358660D02*
X12488616Y-14368184D01*
X12488616Y-14368184D02*
X12469568Y-14396756D01*
X12469568Y-14396756D02*
X12460044Y-14434851D01*
X12460044Y-14434851D02*
X12460044Y-14511041D01*
X12460044Y-14511041D02*
X12469568Y-14530089D01*
X12469568Y-14530089D02*
X12479092Y-14539613D01*
X12479092Y-14539613D02*
X12498140Y-14549137D01*
X12498140Y-14549137D02*
X12536235Y-14549137D01*
X12536235Y-14549137D02*
X12555283Y-14539613D01*
X12555283Y-14539613D02*
X12564806Y-14530089D01*
X12564806Y-14530089D02*
X12574330Y-14511041D01*
X12574330Y-14511041D02*
X12574330Y-14463422D01*
X12574330Y-14463422D02*
X12564806Y-14444375D01*
X12564806Y-14444375D02*
X12555283Y-14434851D01*
X12555283Y-14434851D02*
X12536235Y-14425327D01*
X12536235Y-14425327D02*
X12498140Y-14425327D01*
X12498140Y-14425327D02*
X12479092Y-14434851D01*
X12479092Y-14434851D02*
X12469568Y-14444375D01*
X12469568Y-14444375D02*
X12460044Y-14463422D01*
X12669568Y-14549137D02*
X12707663Y-14549137D01*
X12707663Y-14549137D02*
X12726711Y-14539613D01*
X12726711Y-14539613D02*
X12736235Y-14530089D01*
X12736235Y-14530089D02*
X12755283Y-14501517D01*
X12755283Y-14501517D02*
X12764806Y-14463422D01*
X12764806Y-14463422D02*
X12764806Y-14387232D01*
X12764806Y-14387232D02*
X12755283Y-14368184D01*
X12755283Y-14368184D02*
X12745759Y-14358660D01*
X12745759Y-14358660D02*
X12726711Y-14349137D01*
X12726711Y-14349137D02*
X12688616Y-14349137D01*
X12688616Y-14349137D02*
X12669568Y-14358660D01*
X12669568Y-14358660D02*
X12660044Y-14368184D01*
X12660044Y-14368184D02*
X12650521Y-14387232D01*
X12650521Y-14387232D02*
X12650521Y-14434851D01*
X12650521Y-14434851D02*
X12660044Y-14453898D01*
X12660044Y-14453898D02*
X12669568Y-14463422D01*
X12669568Y-14463422D02*
X12688616Y-14472946D01*
X12688616Y-14472946D02*
X12726711Y-14472946D01*
X12726711Y-14472946D02*
X12745759Y-14463422D01*
X12745759Y-14463422D02*
X12755283Y-14453898D01*
X12755283Y-14453898D02*
X12764806Y-14434851D01*
X12840997Y-14349137D02*
X12840997Y-14387232D01*
X12917187Y-14349137D02*
X12917187Y-14387232D01*
X13212426Y-14625327D02*
X13202902Y-14615803D01*
X13202902Y-14615803D02*
X13183854Y-14587232D01*
X13183854Y-14587232D02*
X13174330Y-14568184D01*
X13174330Y-14568184D02*
X13164806Y-14539613D01*
X13164806Y-14539613D02*
X13155283Y-14491994D01*
X13155283Y-14491994D02*
X13155283Y-14453898D01*
X13155283Y-14453898D02*
X13164806Y-14406279D01*
X13164806Y-14406279D02*
X13174330Y-14377708D01*
X13174330Y-14377708D02*
X13183854Y-14358660D01*
X13183854Y-14358660D02*
X13202902Y-14330089D01*
X13202902Y-14330089D02*
X13212426Y-14320565D01*
X13374330Y-14415803D02*
X13374330Y-14549137D01*
X13326711Y-14339613D02*
X13279092Y-14482470D01*
X13279092Y-14482470D02*
X13402902Y-14482470D01*
X13631473Y-14549137D02*
X13631473Y-14349137D01*
X13717187Y-14549137D02*
X13717187Y-14444375D01*
X13717187Y-14444375D02*
X13707664Y-14425327D01*
X13707664Y-14425327D02*
X13688616Y-14415803D01*
X13688616Y-14415803D02*
X13660045Y-14415803D01*
X13660045Y-14415803D02*
X13640997Y-14425327D01*
X13640997Y-14425327D02*
X13631473Y-14434851D01*
X13840997Y-14549137D02*
X13821949Y-14539613D01*
X13821949Y-14539613D02*
X13812426Y-14530089D01*
X13812426Y-14530089D02*
X13802902Y-14511041D01*
X13802902Y-14511041D02*
X13802902Y-14453898D01*
X13802902Y-14453898D02*
X13812426Y-14434851D01*
X13812426Y-14434851D02*
X13821949Y-14425327D01*
X13821949Y-14425327D02*
X13840997Y-14415803D01*
X13840997Y-14415803D02*
X13869568Y-14415803D01*
X13869568Y-14415803D02*
X13888616Y-14425327D01*
X13888616Y-14425327D02*
X13898140Y-14434851D01*
X13898140Y-14434851D02*
X13907664Y-14453898D01*
X13907664Y-14453898D02*
X13907664Y-14511041D01*
X13907664Y-14511041D02*
X13898140Y-14530089D01*
X13898140Y-14530089D02*
X13888616Y-14539613D01*
X13888616Y-14539613D02*
X13869568Y-14549137D01*
X13869568Y-14549137D02*
X13840997Y-14549137D01*
X14021949Y-14549137D02*
X14002902Y-14539613D01*
X14002902Y-14539613D02*
X13993378Y-14520565D01*
X13993378Y-14520565D02*
X13993378Y-14349137D01*
X14174330Y-14539613D02*
X14155283Y-14549137D01*
X14155283Y-14549137D02*
X14117187Y-14549137D01*
X14117187Y-14549137D02*
X14098140Y-14539613D01*
X14098140Y-14539613D02*
X14088616Y-14520565D01*
X14088616Y-14520565D02*
X14088616Y-14444375D01*
X14088616Y-14444375D02*
X14098140Y-14425327D01*
X14098140Y-14425327D02*
X14117187Y-14415803D01*
X14117187Y-14415803D02*
X14155283Y-14415803D01*
X14155283Y-14415803D02*
X14174330Y-14425327D01*
X14174330Y-14425327D02*
X14183854Y-14444375D01*
X14183854Y-14444375D02*
X14183854Y-14463422D01*
X14183854Y-14463422D02*
X14088616Y-14482470D01*
X14260045Y-14539613D02*
X14279092Y-14549137D01*
X14279092Y-14549137D02*
X14317187Y-14549137D01*
X14317187Y-14549137D02*
X14336235Y-14539613D01*
X14336235Y-14539613D02*
X14345759Y-14520565D01*
X14345759Y-14520565D02*
X14345759Y-14511041D01*
X14345759Y-14511041D02*
X14336235Y-14491994D01*
X14336235Y-14491994D02*
X14317187Y-14482470D01*
X14317187Y-14482470D02*
X14288616Y-14482470D01*
X14288616Y-14482470D02*
X14269568Y-14472946D01*
X14269568Y-14472946D02*
X14260045Y-14453898D01*
X14260045Y-14453898D02*
X14260045Y-14444375D01*
X14260045Y-14444375D02*
X14269568Y-14425327D01*
X14269568Y-14425327D02*
X14288616Y-14415803D01*
X14288616Y-14415803D02*
X14317187Y-14415803D01*
X14317187Y-14415803D02*
X14336235Y-14425327D01*
X14412426Y-14625327D02*
X14421949Y-14615803D01*
X14421949Y-14615803D02*
X14440997Y-14587232D01*
X14440997Y-14587232D02*
X14450521Y-14568184D01*
X14450521Y-14568184D02*
X14460045Y-14539613D01*
X14460045Y-14539613D02*
X14469568Y-14491994D01*
X14469568Y-14491994D02*
X14469568Y-14453898D01*
X14469568Y-14453898D02*
X14460045Y-14406279D01*
X14460045Y-14406279D02*
X14450521Y-14377708D01*
X14450521Y-14377708D02*
X14440997Y-14358660D01*
X14440997Y-14358660D02*
X14421949Y-14330089D01*
X14421949Y-14330089D02*
X14412426Y-14320565D01*
X9437363Y-14647653D02*
X9637363Y-14847653D01*
X9637363Y-14647653D02*
X9437363Y-14847653D01*
X9537363Y-14647653D02*
X9537363Y-14847653D01*
X9437363Y-14747653D02*
X9637363Y-14747653D01*
X9888616Y-14658184D02*
X9898140Y-14648660D01*
X9898140Y-14648660D02*
X9917187Y-14639137D01*
X9917187Y-14639137D02*
X9964806Y-14639137D01*
X9964806Y-14639137D02*
X9983854Y-14648660D01*
X9983854Y-14648660D02*
X9993378Y-14658184D01*
X9993378Y-14658184D02*
X10002901Y-14677232D01*
X10002901Y-14677232D02*
X10002901Y-14696279D01*
X10002901Y-14696279D02*
X9993378Y-14724851D01*
X9993378Y-14724851D02*
X9879092Y-14839137D01*
X9879092Y-14839137D02*
X10002901Y-14839137D01*
X10088616Y-14820089D02*
X10098140Y-14829613D01*
X10098140Y-14829613D02*
X10088616Y-14839137D01*
X10088616Y-14839137D02*
X10079092Y-14829613D01*
X10079092Y-14829613D02*
X10088616Y-14820089D01*
X10088616Y-14820089D02*
X10088616Y-14839137D01*
X10164806Y-14639137D02*
X10298140Y-14639137D01*
X10298140Y-14639137D02*
X10212425Y-14839137D01*
X10469568Y-14639137D02*
X10374330Y-14639137D01*
X10374330Y-14639137D02*
X10364806Y-14734375D01*
X10364806Y-14734375D02*
X10374330Y-14724851D01*
X10374330Y-14724851D02*
X10393378Y-14715327D01*
X10393378Y-14715327D02*
X10440997Y-14715327D01*
X10440997Y-14715327D02*
X10460044Y-14724851D01*
X10460044Y-14724851D02*
X10469568Y-14734375D01*
X10469568Y-14734375D02*
X10479092Y-14753422D01*
X10479092Y-14753422D02*
X10479092Y-14801041D01*
X10479092Y-14801041D02*
X10469568Y-14820089D01*
X10469568Y-14820089D02*
X10460044Y-14829613D01*
X10460044Y-14829613D02*
X10440997Y-14839137D01*
X10440997Y-14839137D02*
X10393378Y-14839137D01*
X10393378Y-14839137D02*
X10374330Y-14829613D01*
X10374330Y-14829613D02*
X10364806Y-14820089D01*
X10602901Y-14639137D02*
X10621949Y-14639137D01*
X10621949Y-14639137D02*
X10640997Y-14648660D01*
X10640997Y-14648660D02*
X10650521Y-14658184D01*
X10650521Y-14658184D02*
X10660044Y-14677232D01*
X10660044Y-14677232D02*
X10669568Y-14715327D01*
X10669568Y-14715327D02*
X10669568Y-14762946D01*
X10669568Y-14762946D02*
X10660044Y-14801041D01*
X10660044Y-14801041D02*
X10650521Y-14820089D01*
X10650521Y-14820089D02*
X10640997Y-14829613D01*
X10640997Y-14829613D02*
X10621949Y-14839137D01*
X10621949Y-14839137D02*
X10602901Y-14839137D01*
X10602901Y-14839137D02*
X10583854Y-14829613D01*
X10583854Y-14829613D02*
X10574330Y-14820089D01*
X10574330Y-14820089D02*
X10564806Y-14801041D01*
X10564806Y-14801041D02*
X10555282Y-14762946D01*
X10555282Y-14762946D02*
X10555282Y-14715327D01*
X10555282Y-14715327D02*
X10564806Y-14677232D01*
X10564806Y-14677232D02*
X10574330Y-14658184D01*
X10574330Y-14658184D02*
X10583854Y-14648660D01*
X10583854Y-14648660D02*
X10602901Y-14639137D01*
X10755282Y-14839137D02*
X10755282Y-14705803D01*
X10755282Y-14724851D02*
X10764806Y-14715327D01*
X10764806Y-14715327D02*
X10783854Y-14705803D01*
X10783854Y-14705803D02*
X10812425Y-14705803D01*
X10812425Y-14705803D02*
X10831473Y-14715327D01*
X10831473Y-14715327D02*
X10840997Y-14734375D01*
X10840997Y-14734375D02*
X10840997Y-14839137D01*
X10840997Y-14734375D02*
X10850521Y-14715327D01*
X10850521Y-14715327D02*
X10869568Y-14705803D01*
X10869568Y-14705803D02*
X10898140Y-14705803D01*
X10898140Y-14705803D02*
X10917187Y-14715327D01*
X10917187Y-14715327D02*
X10926711Y-14734375D01*
X10926711Y-14734375D02*
X10926711Y-14839137D01*
X11021949Y-14839137D02*
X11021949Y-14705803D01*
X11021949Y-14724851D02*
X11031473Y-14715327D01*
X11031473Y-14715327D02*
X11050521Y-14705803D01*
X11050521Y-14705803D02*
X11079092Y-14705803D01*
X11079092Y-14705803D02*
X11098140Y-14715327D01*
X11098140Y-14715327D02*
X11107663Y-14734375D01*
X11107663Y-14734375D02*
X11107663Y-14839137D01*
X11107663Y-14734375D02*
X11117187Y-14715327D01*
X11117187Y-14715327D02*
X11136235Y-14705803D01*
X11136235Y-14705803D02*
X11164806Y-14705803D01*
X11164806Y-14705803D02*
X11183854Y-14715327D01*
X11183854Y-14715327D02*
X11193378Y-14734375D01*
X11193378Y-14734375D02*
X11193378Y-14839137D01*
X11583854Y-14629613D02*
X11412425Y-14886756D01*
X11840997Y-14639137D02*
X11860044Y-14639137D01*
X11860044Y-14639137D02*
X11879092Y-14648660D01*
X11879092Y-14648660D02*
X11888616Y-14658184D01*
X11888616Y-14658184D02*
X11898140Y-14677232D01*
X11898140Y-14677232D02*
X11907663Y-14715327D01*
X11907663Y-14715327D02*
X11907663Y-14762946D01*
X11907663Y-14762946D02*
X11898140Y-14801041D01*
X11898140Y-14801041D02*
X11888616Y-14820089D01*
X11888616Y-14820089D02*
X11879092Y-14829613D01*
X11879092Y-14829613D02*
X11860044Y-14839137D01*
X11860044Y-14839137D02*
X11840997Y-14839137D01*
X11840997Y-14839137D02*
X11821949Y-14829613D01*
X11821949Y-14829613D02*
X11812425Y-14820089D01*
X11812425Y-14820089D02*
X11802902Y-14801041D01*
X11802902Y-14801041D02*
X11793378Y-14762946D01*
X11793378Y-14762946D02*
X11793378Y-14715327D01*
X11793378Y-14715327D02*
X11802902Y-14677232D01*
X11802902Y-14677232D02*
X11812425Y-14658184D01*
X11812425Y-14658184D02*
X11821949Y-14648660D01*
X11821949Y-14648660D02*
X11840997Y-14639137D01*
X11993378Y-14820089D02*
X12002902Y-14829613D01*
X12002902Y-14829613D02*
X11993378Y-14839137D01*
X11993378Y-14839137D02*
X11983854Y-14829613D01*
X11983854Y-14829613D02*
X11993378Y-14820089D01*
X11993378Y-14820089D02*
X11993378Y-14839137D01*
X12193378Y-14839137D02*
X12079092Y-14839137D01*
X12136235Y-14839137D02*
X12136235Y-14639137D01*
X12136235Y-14639137D02*
X12117187Y-14667708D01*
X12117187Y-14667708D02*
X12098140Y-14686756D01*
X12098140Y-14686756D02*
X12079092Y-14696279D01*
X12317187Y-14639137D02*
X12336235Y-14639137D01*
X12336235Y-14639137D02*
X12355283Y-14648660D01*
X12355283Y-14648660D02*
X12364806Y-14658184D01*
X12364806Y-14658184D02*
X12374330Y-14677232D01*
X12374330Y-14677232D02*
X12383854Y-14715327D01*
X12383854Y-14715327D02*
X12383854Y-14762946D01*
X12383854Y-14762946D02*
X12374330Y-14801041D01*
X12374330Y-14801041D02*
X12364806Y-14820089D01*
X12364806Y-14820089D02*
X12355283Y-14829613D01*
X12355283Y-14829613D02*
X12336235Y-14839137D01*
X12336235Y-14839137D02*
X12317187Y-14839137D01*
X12317187Y-14839137D02*
X12298140Y-14829613D01*
X12298140Y-14829613D02*
X12288616Y-14820089D01*
X12288616Y-14820089D02*
X12279092Y-14801041D01*
X12279092Y-14801041D02*
X12269568Y-14762946D01*
X12269568Y-14762946D02*
X12269568Y-14715327D01*
X12269568Y-14715327D02*
X12279092Y-14677232D01*
X12279092Y-14677232D02*
X12288616Y-14658184D01*
X12288616Y-14658184D02*
X12298140Y-14648660D01*
X12298140Y-14648660D02*
X12317187Y-14639137D01*
X12498140Y-14724851D02*
X12479092Y-14715327D01*
X12479092Y-14715327D02*
X12469568Y-14705803D01*
X12469568Y-14705803D02*
X12460044Y-14686756D01*
X12460044Y-14686756D02*
X12460044Y-14677232D01*
X12460044Y-14677232D02*
X12469568Y-14658184D01*
X12469568Y-14658184D02*
X12479092Y-14648660D01*
X12479092Y-14648660D02*
X12498140Y-14639137D01*
X12498140Y-14639137D02*
X12536235Y-14639137D01*
X12536235Y-14639137D02*
X12555283Y-14648660D01*
X12555283Y-14648660D02*
X12564806Y-14658184D01*
X12564806Y-14658184D02*
X12574330Y-14677232D01*
X12574330Y-14677232D02*
X12574330Y-14686756D01*
X12574330Y-14686756D02*
X12564806Y-14705803D01*
X12564806Y-14705803D02*
X12555283Y-14715327D01*
X12555283Y-14715327D02*
X12536235Y-14724851D01*
X12536235Y-14724851D02*
X12498140Y-14724851D01*
X12498140Y-14724851D02*
X12479092Y-14734375D01*
X12479092Y-14734375D02*
X12469568Y-14743898D01*
X12469568Y-14743898D02*
X12460044Y-14762946D01*
X12460044Y-14762946D02*
X12460044Y-14801041D01*
X12460044Y-14801041D02*
X12469568Y-14820089D01*
X12469568Y-14820089D02*
X12479092Y-14829613D01*
X12479092Y-14829613D02*
X12498140Y-14839137D01*
X12498140Y-14839137D02*
X12536235Y-14839137D01*
X12536235Y-14839137D02*
X12555283Y-14829613D01*
X12555283Y-14829613D02*
X12564806Y-14820089D01*
X12564806Y-14820089D02*
X12574330Y-14801041D01*
X12574330Y-14801041D02*
X12574330Y-14762946D01*
X12574330Y-14762946D02*
X12564806Y-14743898D01*
X12564806Y-14743898D02*
X12555283Y-14734375D01*
X12555283Y-14734375D02*
X12536235Y-14724851D01*
X12640997Y-14639137D02*
X12764806Y-14639137D01*
X12764806Y-14639137D02*
X12698140Y-14715327D01*
X12698140Y-14715327D02*
X12726711Y-14715327D01*
X12726711Y-14715327D02*
X12745759Y-14724851D01*
X12745759Y-14724851D02*
X12755283Y-14734375D01*
X12755283Y-14734375D02*
X12764806Y-14753422D01*
X12764806Y-14753422D02*
X12764806Y-14801041D01*
X12764806Y-14801041D02*
X12755283Y-14820089D01*
X12755283Y-14820089D02*
X12745759Y-14829613D01*
X12745759Y-14829613D02*
X12726711Y-14839137D01*
X12726711Y-14839137D02*
X12669568Y-14839137D01*
X12669568Y-14839137D02*
X12650521Y-14829613D01*
X12650521Y-14829613D02*
X12640997Y-14820089D01*
X12840997Y-14639137D02*
X12840997Y-14677232D01*
X12917187Y-14639137D02*
X12917187Y-14677232D01*
X13212426Y-14915327D02*
X13202902Y-14905803D01*
X13202902Y-14905803D02*
X13183854Y-14877232D01*
X13183854Y-14877232D02*
X13174330Y-14858184D01*
X13174330Y-14858184D02*
X13164806Y-14829613D01*
X13164806Y-14829613D02*
X13155283Y-14781994D01*
X13155283Y-14781994D02*
X13155283Y-14743898D01*
X13155283Y-14743898D02*
X13164806Y-14696279D01*
X13164806Y-14696279D02*
X13174330Y-14667708D01*
X13174330Y-14667708D02*
X13183854Y-14648660D01*
X13183854Y-14648660D02*
X13202902Y-14620089D01*
X13202902Y-14620089D02*
X13212426Y-14610565D01*
X13374330Y-14705803D02*
X13374330Y-14839137D01*
X13326711Y-14629613D02*
X13279092Y-14772470D01*
X13279092Y-14772470D02*
X13402902Y-14772470D01*
X13631473Y-14839137D02*
X13631473Y-14639137D01*
X13717187Y-14839137D02*
X13717187Y-14734375D01*
X13717187Y-14734375D02*
X13707664Y-14715327D01*
X13707664Y-14715327D02*
X13688616Y-14705803D01*
X13688616Y-14705803D02*
X13660045Y-14705803D01*
X13660045Y-14705803D02*
X13640997Y-14715327D01*
X13640997Y-14715327D02*
X13631473Y-14724851D01*
X13840997Y-14839137D02*
X13821949Y-14829613D01*
X13821949Y-14829613D02*
X13812426Y-14820089D01*
X13812426Y-14820089D02*
X13802902Y-14801041D01*
X13802902Y-14801041D02*
X13802902Y-14743898D01*
X13802902Y-14743898D02*
X13812426Y-14724851D01*
X13812426Y-14724851D02*
X13821949Y-14715327D01*
X13821949Y-14715327D02*
X13840997Y-14705803D01*
X13840997Y-14705803D02*
X13869568Y-14705803D01*
X13869568Y-14705803D02*
X13888616Y-14715327D01*
X13888616Y-14715327D02*
X13898140Y-14724851D01*
X13898140Y-14724851D02*
X13907664Y-14743898D01*
X13907664Y-14743898D02*
X13907664Y-14801041D01*
X13907664Y-14801041D02*
X13898140Y-14820089D01*
X13898140Y-14820089D02*
X13888616Y-14829613D01*
X13888616Y-14829613D02*
X13869568Y-14839137D01*
X13869568Y-14839137D02*
X13840997Y-14839137D01*
X14021949Y-14839137D02*
X14002902Y-14829613D01*
X14002902Y-14829613D02*
X13993378Y-14810565D01*
X13993378Y-14810565D02*
X13993378Y-14639137D01*
X14174330Y-14829613D02*
X14155283Y-14839137D01*
X14155283Y-14839137D02*
X14117187Y-14839137D01*
X14117187Y-14839137D02*
X14098140Y-14829613D01*
X14098140Y-14829613D02*
X14088616Y-14810565D01*
X14088616Y-14810565D02*
X14088616Y-14734375D01*
X14088616Y-14734375D02*
X14098140Y-14715327D01*
X14098140Y-14715327D02*
X14117187Y-14705803D01*
X14117187Y-14705803D02*
X14155283Y-14705803D01*
X14155283Y-14705803D02*
X14174330Y-14715327D01*
X14174330Y-14715327D02*
X14183854Y-14734375D01*
X14183854Y-14734375D02*
X14183854Y-14753422D01*
X14183854Y-14753422D02*
X14088616Y-14772470D01*
X14260045Y-14829613D02*
X14279092Y-14839137D01*
X14279092Y-14839137D02*
X14317187Y-14839137D01*
X14317187Y-14839137D02*
X14336235Y-14829613D01*
X14336235Y-14829613D02*
X14345759Y-14810565D01*
X14345759Y-14810565D02*
X14345759Y-14801041D01*
X14345759Y-14801041D02*
X14336235Y-14781994D01*
X14336235Y-14781994D02*
X14317187Y-14772470D01*
X14317187Y-14772470D02*
X14288616Y-14772470D01*
X14288616Y-14772470D02*
X14269568Y-14762946D01*
X14269568Y-14762946D02*
X14260045Y-14743898D01*
X14260045Y-14743898D02*
X14260045Y-14734375D01*
X14260045Y-14734375D02*
X14269568Y-14715327D01*
X14269568Y-14715327D02*
X14288616Y-14705803D01*
X14288616Y-14705803D02*
X14317187Y-14705803D01*
X14317187Y-14705803D02*
X14336235Y-14715327D01*
X14412426Y-14915327D02*
X14421949Y-14905803D01*
X14421949Y-14905803D02*
X14440997Y-14877232D01*
X14440997Y-14877232D02*
X14450521Y-14858184D01*
X14450521Y-14858184D02*
X14460045Y-14829613D01*
X14460045Y-14829613D02*
X14469568Y-14781994D01*
X14469568Y-14781994D02*
X14469568Y-14743898D01*
X14469568Y-14743898D02*
X14460045Y-14696279D01*
X14460045Y-14696279D02*
X14450521Y-14667708D01*
X14450521Y-14667708D02*
X14440997Y-14648660D01*
X14440997Y-14648660D02*
X14421949Y-14620089D01*
X14421949Y-14620089D02*
X14412426Y-14610565D01*
X9437363Y-14967653D02*
X9637363Y-15167653D01*
X9637363Y-14967653D02*
X9437363Y-15167653D01*
X9608074Y-15138364D02*
X9608074Y-14996941D01*
X9466651Y-14996941D01*
X9466651Y-15138364D01*
X9608074Y-15138364D01*
X9993378Y-14959137D02*
X9898140Y-14959137D01*
X9898140Y-14959137D02*
X9888616Y-15054375D01*
X9888616Y-15054375D02*
X9898140Y-15044851D01*
X9898140Y-15044851D02*
X9917187Y-15035327D01*
X9917187Y-15035327D02*
X9964806Y-15035327D01*
X9964806Y-15035327D02*
X9983854Y-15044851D01*
X9983854Y-15044851D02*
X9993378Y-15054375D01*
X9993378Y-15054375D02*
X10002901Y-15073422D01*
X10002901Y-15073422D02*
X10002901Y-15121041D01*
X10002901Y-15121041D02*
X9993378Y-15140089D01*
X9993378Y-15140089D02*
X9983854Y-15149613D01*
X9983854Y-15149613D02*
X9964806Y-15159137D01*
X9964806Y-15159137D02*
X9917187Y-15159137D01*
X9917187Y-15159137D02*
X9898140Y-15149613D01*
X9898140Y-15149613D02*
X9888616Y-15140089D01*
X10088616Y-15140089D02*
X10098140Y-15149613D01*
X10098140Y-15149613D02*
X10088616Y-15159137D01*
X10088616Y-15159137D02*
X10079092Y-15149613D01*
X10079092Y-15149613D02*
X10088616Y-15140089D01*
X10088616Y-15140089D02*
X10088616Y-15159137D01*
X10221949Y-14959137D02*
X10240997Y-14959137D01*
X10240997Y-14959137D02*
X10260044Y-14968660D01*
X10260044Y-14968660D02*
X10269568Y-14978184D01*
X10269568Y-14978184D02*
X10279092Y-14997232D01*
X10279092Y-14997232D02*
X10288616Y-15035327D01*
X10288616Y-15035327D02*
X10288616Y-15082946D01*
X10288616Y-15082946D02*
X10279092Y-15121041D01*
X10279092Y-15121041D02*
X10269568Y-15140089D01*
X10269568Y-15140089D02*
X10260044Y-15149613D01*
X10260044Y-15149613D02*
X10240997Y-15159137D01*
X10240997Y-15159137D02*
X10221949Y-15159137D01*
X10221949Y-15159137D02*
X10202901Y-15149613D01*
X10202901Y-15149613D02*
X10193378Y-15140089D01*
X10193378Y-15140089D02*
X10183854Y-15121041D01*
X10183854Y-15121041D02*
X10174330Y-15082946D01*
X10174330Y-15082946D02*
X10174330Y-15035327D01*
X10174330Y-15035327D02*
X10183854Y-14997232D01*
X10183854Y-14997232D02*
X10193378Y-14978184D01*
X10193378Y-14978184D02*
X10202901Y-14968660D01*
X10202901Y-14968660D02*
X10221949Y-14959137D01*
X10412425Y-14959137D02*
X10431473Y-14959137D01*
X10431473Y-14959137D02*
X10450521Y-14968660D01*
X10450521Y-14968660D02*
X10460044Y-14978184D01*
X10460044Y-14978184D02*
X10469568Y-14997232D01*
X10469568Y-14997232D02*
X10479092Y-15035327D01*
X10479092Y-15035327D02*
X10479092Y-15082946D01*
X10479092Y-15082946D02*
X10469568Y-15121041D01*
X10469568Y-15121041D02*
X10460044Y-15140089D01*
X10460044Y-15140089D02*
X10450521Y-15149613D01*
X10450521Y-15149613D02*
X10431473Y-15159137D01*
X10431473Y-15159137D02*
X10412425Y-15159137D01*
X10412425Y-15159137D02*
X10393378Y-15149613D01*
X10393378Y-15149613D02*
X10383854Y-15140089D01*
X10383854Y-15140089D02*
X10374330Y-15121041D01*
X10374330Y-15121041D02*
X10364806Y-15082946D01*
X10364806Y-15082946D02*
X10364806Y-15035327D01*
X10364806Y-15035327D02*
X10374330Y-14997232D01*
X10374330Y-14997232D02*
X10383854Y-14978184D01*
X10383854Y-14978184D02*
X10393378Y-14968660D01*
X10393378Y-14968660D02*
X10412425Y-14959137D01*
X10602901Y-14959137D02*
X10621949Y-14959137D01*
X10621949Y-14959137D02*
X10640997Y-14968660D01*
X10640997Y-14968660D02*
X10650521Y-14978184D01*
X10650521Y-14978184D02*
X10660044Y-14997232D01*
X10660044Y-14997232D02*
X10669568Y-15035327D01*
X10669568Y-15035327D02*
X10669568Y-15082946D01*
X10669568Y-15082946D02*
X10660044Y-15121041D01*
X10660044Y-15121041D02*
X10650521Y-15140089D01*
X10650521Y-15140089D02*
X10640997Y-15149613D01*
X10640997Y-15149613D02*
X10621949Y-15159137D01*
X10621949Y-15159137D02*
X10602901Y-15159137D01*
X10602901Y-15159137D02*
X10583854Y-15149613D01*
X10583854Y-15149613D02*
X10574330Y-15140089D01*
X10574330Y-15140089D02*
X10564806Y-15121041D01*
X10564806Y-15121041D02*
X10555282Y-15082946D01*
X10555282Y-15082946D02*
X10555282Y-15035327D01*
X10555282Y-15035327D02*
X10564806Y-14997232D01*
X10564806Y-14997232D02*
X10574330Y-14978184D01*
X10574330Y-14978184D02*
X10583854Y-14968660D01*
X10583854Y-14968660D02*
X10602901Y-14959137D01*
X10755282Y-15159137D02*
X10755282Y-15025803D01*
X10755282Y-15044851D02*
X10764806Y-15035327D01*
X10764806Y-15035327D02*
X10783854Y-15025803D01*
X10783854Y-15025803D02*
X10812425Y-15025803D01*
X10812425Y-15025803D02*
X10831473Y-15035327D01*
X10831473Y-15035327D02*
X10840997Y-15054375D01*
X10840997Y-15054375D02*
X10840997Y-15159137D01*
X10840997Y-15054375D02*
X10850521Y-15035327D01*
X10850521Y-15035327D02*
X10869568Y-15025803D01*
X10869568Y-15025803D02*
X10898140Y-15025803D01*
X10898140Y-15025803D02*
X10917187Y-15035327D01*
X10917187Y-15035327D02*
X10926711Y-15054375D01*
X10926711Y-15054375D02*
X10926711Y-15159137D01*
X11021949Y-15159137D02*
X11021949Y-15025803D01*
X11021949Y-15044851D02*
X11031473Y-15035327D01*
X11031473Y-15035327D02*
X11050521Y-15025803D01*
X11050521Y-15025803D02*
X11079092Y-15025803D01*
X11079092Y-15025803D02*
X11098140Y-15035327D01*
X11098140Y-15035327D02*
X11107663Y-15054375D01*
X11107663Y-15054375D02*
X11107663Y-15159137D01*
X11107663Y-15054375D02*
X11117187Y-15035327D01*
X11117187Y-15035327D02*
X11136235Y-15025803D01*
X11136235Y-15025803D02*
X11164806Y-15025803D01*
X11164806Y-15025803D02*
X11183854Y-15035327D01*
X11183854Y-15035327D02*
X11193378Y-15054375D01*
X11193378Y-15054375D02*
X11193378Y-15159137D01*
X11583854Y-14949613D02*
X11412425Y-15206756D01*
X11840997Y-14959137D02*
X11860044Y-14959137D01*
X11860044Y-14959137D02*
X11879092Y-14968660D01*
X11879092Y-14968660D02*
X11888616Y-14978184D01*
X11888616Y-14978184D02*
X11898140Y-14997232D01*
X11898140Y-14997232D02*
X11907663Y-15035327D01*
X11907663Y-15035327D02*
X11907663Y-15082946D01*
X11907663Y-15082946D02*
X11898140Y-15121041D01*
X11898140Y-15121041D02*
X11888616Y-15140089D01*
X11888616Y-15140089D02*
X11879092Y-15149613D01*
X11879092Y-15149613D02*
X11860044Y-15159137D01*
X11860044Y-15159137D02*
X11840997Y-15159137D01*
X11840997Y-15159137D02*
X11821949Y-15149613D01*
X11821949Y-15149613D02*
X11812425Y-15140089D01*
X11812425Y-15140089D02*
X11802902Y-15121041D01*
X11802902Y-15121041D02*
X11793378Y-15082946D01*
X11793378Y-15082946D02*
X11793378Y-15035327D01*
X11793378Y-15035327D02*
X11802902Y-14997232D01*
X11802902Y-14997232D02*
X11812425Y-14978184D01*
X11812425Y-14978184D02*
X11821949Y-14968660D01*
X11821949Y-14968660D02*
X11840997Y-14959137D01*
X11993378Y-15140089D02*
X12002902Y-15149613D01*
X12002902Y-15149613D02*
X11993378Y-15159137D01*
X11993378Y-15159137D02*
X11983854Y-15149613D01*
X11983854Y-15149613D02*
X11993378Y-15140089D01*
X11993378Y-15140089D02*
X11993378Y-15159137D01*
X12193378Y-15159137D02*
X12079092Y-15159137D01*
X12136235Y-15159137D02*
X12136235Y-14959137D01*
X12136235Y-14959137D02*
X12117187Y-14987708D01*
X12117187Y-14987708D02*
X12098140Y-15006756D01*
X12098140Y-15006756D02*
X12079092Y-15016279D01*
X12288616Y-15159137D02*
X12326711Y-15159137D01*
X12326711Y-15159137D02*
X12345759Y-15149613D01*
X12345759Y-15149613D02*
X12355283Y-15140089D01*
X12355283Y-15140089D02*
X12374330Y-15111517D01*
X12374330Y-15111517D02*
X12383854Y-15073422D01*
X12383854Y-15073422D02*
X12383854Y-14997232D01*
X12383854Y-14997232D02*
X12374330Y-14978184D01*
X12374330Y-14978184D02*
X12364806Y-14968660D01*
X12364806Y-14968660D02*
X12345759Y-14959137D01*
X12345759Y-14959137D02*
X12307663Y-14959137D01*
X12307663Y-14959137D02*
X12288616Y-14968660D01*
X12288616Y-14968660D02*
X12279092Y-14978184D01*
X12279092Y-14978184D02*
X12269568Y-14997232D01*
X12269568Y-14997232D02*
X12269568Y-15044851D01*
X12269568Y-15044851D02*
X12279092Y-15063898D01*
X12279092Y-15063898D02*
X12288616Y-15073422D01*
X12288616Y-15073422D02*
X12307663Y-15082946D01*
X12307663Y-15082946D02*
X12345759Y-15082946D01*
X12345759Y-15082946D02*
X12364806Y-15073422D01*
X12364806Y-15073422D02*
X12374330Y-15063898D01*
X12374330Y-15063898D02*
X12383854Y-15044851D01*
X12555283Y-14959137D02*
X12517187Y-14959137D01*
X12517187Y-14959137D02*
X12498140Y-14968660D01*
X12498140Y-14968660D02*
X12488616Y-14978184D01*
X12488616Y-14978184D02*
X12469568Y-15006756D01*
X12469568Y-15006756D02*
X12460044Y-15044851D01*
X12460044Y-15044851D02*
X12460044Y-15121041D01*
X12460044Y-15121041D02*
X12469568Y-15140089D01*
X12469568Y-15140089D02*
X12479092Y-15149613D01*
X12479092Y-15149613D02*
X12498140Y-15159137D01*
X12498140Y-15159137D02*
X12536235Y-15159137D01*
X12536235Y-15159137D02*
X12555283Y-15149613D01*
X12555283Y-15149613D02*
X12564806Y-15140089D01*
X12564806Y-15140089D02*
X12574330Y-15121041D01*
X12574330Y-15121041D02*
X12574330Y-15073422D01*
X12574330Y-15073422D02*
X12564806Y-15054375D01*
X12564806Y-15054375D02*
X12555283Y-15044851D01*
X12555283Y-15044851D02*
X12536235Y-15035327D01*
X12536235Y-15035327D02*
X12498140Y-15035327D01*
X12498140Y-15035327D02*
X12479092Y-15044851D01*
X12479092Y-15044851D02*
X12469568Y-15054375D01*
X12469568Y-15054375D02*
X12460044Y-15073422D01*
X12669568Y-15159137D02*
X12707663Y-15159137D01*
X12707663Y-15159137D02*
X12726711Y-15149613D01*
X12726711Y-15149613D02*
X12736235Y-15140089D01*
X12736235Y-15140089D02*
X12755283Y-15111517D01*
X12755283Y-15111517D02*
X12764806Y-15073422D01*
X12764806Y-15073422D02*
X12764806Y-14997232D01*
X12764806Y-14997232D02*
X12755283Y-14978184D01*
X12755283Y-14978184D02*
X12745759Y-14968660D01*
X12745759Y-14968660D02*
X12726711Y-14959137D01*
X12726711Y-14959137D02*
X12688616Y-14959137D01*
X12688616Y-14959137D02*
X12669568Y-14968660D01*
X12669568Y-14968660D02*
X12660044Y-14978184D01*
X12660044Y-14978184D02*
X12650521Y-14997232D01*
X12650521Y-14997232D02*
X12650521Y-15044851D01*
X12650521Y-15044851D02*
X12660044Y-15063898D01*
X12660044Y-15063898D02*
X12669568Y-15073422D01*
X12669568Y-15073422D02*
X12688616Y-15082946D01*
X12688616Y-15082946D02*
X12726711Y-15082946D01*
X12726711Y-15082946D02*
X12745759Y-15073422D01*
X12745759Y-15073422D02*
X12755283Y-15063898D01*
X12755283Y-15063898D02*
X12764806Y-15044851D01*
X12840997Y-14959137D02*
X12840997Y-14997232D01*
X12917187Y-14959137D02*
X12917187Y-14997232D01*
X13212426Y-15235327D02*
X13202902Y-15225803D01*
X13202902Y-15225803D02*
X13183854Y-15197232D01*
X13183854Y-15197232D02*
X13174330Y-15178184D01*
X13174330Y-15178184D02*
X13164806Y-15149613D01*
X13164806Y-15149613D02*
X13155283Y-15101994D01*
X13155283Y-15101994D02*
X13155283Y-15063898D01*
X13155283Y-15063898D02*
X13164806Y-15016279D01*
X13164806Y-15016279D02*
X13174330Y-14987708D01*
X13174330Y-14987708D02*
X13183854Y-14968660D01*
X13183854Y-14968660D02*
X13202902Y-14940089D01*
X13202902Y-14940089D02*
X13212426Y-14930565D01*
X13374330Y-15025803D02*
X13374330Y-15159137D01*
X13326711Y-14949613D02*
X13279092Y-15092470D01*
X13279092Y-15092470D02*
X13402902Y-15092470D01*
X13631473Y-15159137D02*
X13631473Y-14959137D01*
X13717187Y-15159137D02*
X13717187Y-15054375D01*
X13717187Y-15054375D02*
X13707664Y-15035327D01*
X13707664Y-15035327D02*
X13688616Y-15025803D01*
X13688616Y-15025803D02*
X13660045Y-15025803D01*
X13660045Y-15025803D02*
X13640997Y-15035327D01*
X13640997Y-15035327D02*
X13631473Y-15044851D01*
X13840997Y-15159137D02*
X13821949Y-15149613D01*
X13821949Y-15149613D02*
X13812426Y-15140089D01*
X13812426Y-15140089D02*
X13802902Y-15121041D01*
X13802902Y-15121041D02*
X13802902Y-15063898D01*
X13802902Y-15063898D02*
X13812426Y-15044851D01*
X13812426Y-15044851D02*
X13821949Y-15035327D01*
X13821949Y-15035327D02*
X13840997Y-15025803D01*
X13840997Y-15025803D02*
X13869568Y-15025803D01*
X13869568Y-15025803D02*
X13888616Y-15035327D01*
X13888616Y-15035327D02*
X13898140Y-15044851D01*
X13898140Y-15044851D02*
X13907664Y-15063898D01*
X13907664Y-15063898D02*
X13907664Y-15121041D01*
X13907664Y-15121041D02*
X13898140Y-15140089D01*
X13898140Y-15140089D02*
X13888616Y-15149613D01*
X13888616Y-15149613D02*
X13869568Y-15159137D01*
X13869568Y-15159137D02*
X13840997Y-15159137D01*
X14021949Y-15159137D02*
X14002902Y-15149613D01*
X14002902Y-15149613D02*
X13993378Y-15130565D01*
X13993378Y-15130565D02*
X13993378Y-14959137D01*
X14174330Y-15149613D02*
X14155283Y-15159137D01*
X14155283Y-15159137D02*
X14117187Y-15159137D01*
X14117187Y-15159137D02*
X14098140Y-15149613D01*
X14098140Y-15149613D02*
X14088616Y-15130565D01*
X14088616Y-15130565D02*
X14088616Y-15054375D01*
X14088616Y-15054375D02*
X14098140Y-15035327D01*
X14098140Y-15035327D02*
X14117187Y-15025803D01*
X14117187Y-15025803D02*
X14155283Y-15025803D01*
X14155283Y-15025803D02*
X14174330Y-15035327D01*
X14174330Y-15035327D02*
X14183854Y-15054375D01*
X14183854Y-15054375D02*
X14183854Y-15073422D01*
X14183854Y-15073422D02*
X14088616Y-15092470D01*
X14260045Y-15149613D02*
X14279092Y-15159137D01*
X14279092Y-15159137D02*
X14317187Y-15159137D01*
X14317187Y-15159137D02*
X14336235Y-15149613D01*
X14336235Y-15149613D02*
X14345759Y-15130565D01*
X14345759Y-15130565D02*
X14345759Y-15121041D01*
X14345759Y-15121041D02*
X14336235Y-15101994D01*
X14336235Y-15101994D02*
X14317187Y-15092470D01*
X14317187Y-15092470D02*
X14288616Y-15092470D01*
X14288616Y-15092470D02*
X14269568Y-15082946D01*
X14269568Y-15082946D02*
X14260045Y-15063898D01*
X14260045Y-15063898D02*
X14260045Y-15054375D01*
X14260045Y-15054375D02*
X14269568Y-15035327D01*
X14269568Y-15035327D02*
X14288616Y-15025803D01*
X14288616Y-15025803D02*
X14317187Y-15025803D01*
X14317187Y-15025803D02*
X14336235Y-15035327D01*
X14412426Y-15235327D02*
X14421949Y-15225803D01*
X14421949Y-15225803D02*
X14440997Y-15197232D01*
X14440997Y-15197232D02*
X14450521Y-15178184D01*
X14450521Y-15178184D02*
X14460045Y-15149613D01*
X14460045Y-15149613D02*
X14469568Y-15101994D01*
X14469568Y-15101994D02*
X14469568Y-15063898D01*
X14469568Y-15063898D02*
X14460045Y-15016279D01*
X14460045Y-15016279D02*
X14450521Y-14987708D01*
X14450521Y-14987708D02*
X14440997Y-14968660D01*
X14440997Y-14968660D02*
X14421949Y-14940089D01*
X14421949Y-14940089D02*
X14412426Y-14930565D01*
M02*
